<?xml version="1.0" encoding="UTF-8"?><svg id="Layer_1" xmlns="http://www.w3.org/2000/svg" width="2000" height="542" viewBox="0 0 2000 542"><defs><style>.cls-1{fill:#7f622e;}.cls-2{fill:#020202;}</style></defs><path class="cls-1" d="M134.27,395.22c9.86,0,10.39,2.2,11.79,7.59l.87,3.33h5.13l-1.2-18.38h-71.98l-1.27,18.38h5.19l.87-3.33c1.4-5.39,2-7.59,11.72-7.59h13.45v46.81c0,11.12-1.2,11.85-9.46,11.85h-1.46v5.33h33.83v-5.33h-1.47c-8.26,0-9.46-.73-9.46-11.85v-46.81h13.45Z"/><path class="cls-1" d="M187.01,453.89h-1.47v5.33h33.76v-5.33h-1.46c-8.12,0-9.32-.73-9.32-11.85v-17.05h35.82v17.05c0,11.12-1.2,11.85-9.46,11.85h-1.47v5.33h33.89v-5.33h-1.47c-8.26,0-9.46-.73-9.46-11.85v-37.09c0-11.05,1.07-11.72,9.46-11.72h1.47v-5.39h-33.89v5.39h1.47c8.26,0,9.46.73,9.46,11.72v12.85h-35.82v-12.85c0-11.05,1.07-11.72,9.32-11.72h1.46v-5.39h-33.76v5.39h1.47c8.26,0,9.32.67,9.32,11.72v37.09c0,11.12-1.13,11.85-9.32,11.85Z"/><path class="cls-1" d="M305.67,453.89h-1.47v5.33h58.8l1.07-18.05h-5.13l-.87,3.46c-1.33,5.19-1.93,7.52-11.79,7.52h-9.79c-8.12,0-9.32-.73-9.32-11.79v-15.12h4.2c11.12,0,11.79,1.07,11.79,9.46v1.46h5.39v-29.1h-5.39v1.47c0,8.26-.73,9.46-11.79,9.46h-4.2v-22.91h15.38c9.79,0,10.39,2.13,11.79,7.39l.87,3.4h5.19l-1.27-18.05h-54.94v5.39h1.47c8.26,0,9.32.67,9.32,11.72v37.09c0,11.12-1.13,11.85-9.32,11.85Z"/><path class="cls-1" d="M461.49,453.89h-1.46v5.33h32.36c24.84,0,39.62-13.32,39.62-35.69s-14.78-35.69-39.55-35.69h-32.43v5.39h1.46c8.12,0,9.32.73,9.32,11.72v37.09c0,11.12-1.13,11.85-9.32,11.85ZM482.93,395.02h9.52c21.11,0,25.57,15.52,25.57,28.5s-4.39,28.57-25.97,28.57c-8.12,0-9.12-.67-9.12-11.79v-45.28Z"/><path class="cls-1" d="M600.19,393.22h1.46v-5.39h-33.83v5.39h1.46c8.12,0,9.32.73,9.32,11.72v27.37c0,17.31,11.59,28.9,28.83,28.9s28.97-11.65,28.97-28.9v-27.37c0-10.99,1.2-11.72,9.46-11.72h1.66v-5.39h-29.63v5.39h1.47c8.26,0,9.46.73,9.46,11.72v27.97c0,12.85-7.12,20.18-19.51,20.18-11.72,0-18.45-7.39-18.45-20.18v-27.97c0-11.05,1-11.72,9.32-11.72Z"/><path class="cls-1" d="M685.82,453.89h-1.46v5.33h33.76v-5.33h-1.47c-8.06,0-9.26-.73-9.26-11.85v-15.18l1.4-1.13,27.97,24.17c1.93,1.66,2.13,2.6,2.06,2.8-.13.33-1.33,1.2-5.46,1.2h-1.47v5.33h35.03v-5.39h-1.46c-2.6,0-9.59-2.66-13.72-6.26l-34.09-29.57,18.64-15.98c7.99-6.73,11.72-8.86,19.91-8.86h1.46v-5.39h-29.43v5.39h1.47c3.13,0,3.66.67,3.66.67,0,.07.27,1.4-5.13,5.99l-20.84,17.85v-12.72c0-11.05,1-11.72,9.26-11.72h1.47v-5.39h-33.76v5.39h1.46c8.26,0,9.32.67,9.32,11.72v37.09c0,11.12-1.2,11.85-9.32,11.85Z"/><path class="cls-1" d="M801.82,453.89h-1.47v5.33h58.73l1.13-18.11h-5.19l-.8,3.46c-1.27,5.19-1.86,7.52-11.79,7.52h-9.79c-8.12,0-9.32-.73-9.32-11.79v-15.12h4.26c10.99,0,11.65,1.07,11.65,9.46v1.46h5.39v-29.1h-5.39v1.47c0,8.39-.6,9.46-11.65,9.46h-4.26v-22.91h15.38c9.72,0,10.32,2.2,11.79,7.39l.8,3.46h5.13l-1.2-18.05h-54.87v5.39h1.47c8.12,0,9.32.73,9.32,11.72v37.09c0,11.12-1.2,11.85-9.32,11.85Z"/><path class="cls-1" d="M957.5,453.89h-1.46v5.33h58.8l1.07-18.05h-5.19l-.8,3.46c-1.27,5.19-1.86,7.52-11.79,7.52h-9.79c-8.12,0-9.32-.73-9.32-11.79v-15.12h4.2c11.05,0,11.72,1.07,11.72,9.46v1.46h5.39v-29.1h-5.39v1.47c0,8.26-.73,9.46-11.72,9.46h-4.2v-22.91h15.45c9.72,0,10.32,2.13,11.72,7.39l.87,3.4h5.19l-1.27-18.05h-54.94v5.39h1.46c8.12,0,9.32.73,9.32,11.72v37.09c0,11.12-1.13,11.85-9.32,11.85Z"/><path class="cls-1" d="M1056.05,453.89h-1.46v5.33h29.03v-5.33h-1.46c-8.12,0-9.46-.8-9.46-11.85v-35.49l44.21,54.67h4.93v-56.27c0-10.99,1.13-11.72,9.46-11.72h1.46v-5.39h-29.03v5.39h1.46c8.26,0,9.32.67,9.32,11.72v34.43l-41.55-51.54h-18.38v5.39h1.46c8.26,0,9.32.67,9.32,11.72v37.09c0,11.12-1.13,11.85-9.32,11.85Z"/><path class="cls-1" d="M1170.12,453.89h-1.46v5.39h32.5c24.84,0,39.62-13.38,39.62-35.76s-14.85-35.69-39.62-35.69h-32.5v5.39h1.46c8.39,0,9.46.67,9.46,11.72v37.09c0,11.12-1.2,11.85-9.46,11.85ZM1191.62,395.02h9.59c21.11,0,25.57,15.52,25.57,28.5s-4.39,28.57-25.97,28.57c-8.12,0-9.19-.67-9.19-11.79v-45.28Z"/><path class="cls-1" d="M1319.21,385.9c-21.77,0-39.55,16.85-39.55,37.62s17.71,37.69,39.55,37.69,39.42-16.91,39.42-37.69-17.65-37.62-39.42-37.62ZM1344.91,423.46c0,11.19-5.46,30.1-25.7,30.1s-25.77-18.91-25.77-30.1,5.39-30.16,25.77-30.16c17.58,0,25.64,15.65,25.7,30.16Z"/><path class="cls-1" d="M1417.49,393.16h1.46v-5.39h-34.96v5.39h1.47c8.86,0,9.79,1.13,12.19,8.92l18.78,59.13h3.66l14.98-47.08,14.85,47.08h3.66l19.04-59.2c2.33-7.26,3.6-8.86,12.19-8.86h1.47v-5.39h-28.63v5.39h1.47c3.73,0,5.93.53,6.73,1.6.67.93.53,2.6-.27,5.13l-10.99,34.76-14.92-46.88h-3.8l-14.85,46.94-11.12-34.83c-.8-2.66-.87-4.26-.27-5.06.8-1.13,3.4-1.66,7.86-1.66Z"/><path class="cls-1" d="M1516.78,453.89h-1.47v5.33h28.9v-5.33h-1.47c-8.06,0-9.39-.8-9.39-11.85v-33.36l22.77,52.54h3.53l21.17-49.14v29.96c0,11.12-1.2,11.85-9.32,11.85h-1.47v5.33h33.76v-5.33h-1.46c-8.26,0-9.46-.73-9.46-11.85v-37.09c0-10.99,1.2-11.72,9.46-11.72h1.46v-5.39h-20.38l-23.11,53.27-23.11-53.27h-21.91v5.39h1.47c8.19,0,9.26.67,9.26,11.72v37.09c0,11.12-1.13,11.85-9.26,11.85Z"/><path class="cls-1" d="M1642.23,453.89h-1.47v5.33h58.8l1.2-18.11h-5.06l-.87,3.46c-1.27,5.19-1.86,7.52-11.79,7.52h-9.86c-8.19,0-9.39-.73-9.39-11.79v-15.12h4.2c11.05,0,11.72,1.07,11.72,9.46v1.46h5.39v-29.1h-5.39v1.47c0,8.26-.73,9.46-11.72,9.46h-4.2v-22.91h15.45c9.72,0,10.32,2.2,11.72,7.46l.87,3.4h5.13l-1.27-18.05h-54.94v5.39h1.47c8.32,0,9.39.67,9.39,11.72v37.09c0,11.12-1.2,11.85-9.39,11.85Z"/><path class="cls-1" d="M1739.98,453.89h-1.46v5.33h28.97v-5.33h-1.46c-8.12,0-9.46-.8-9.46-11.85v-35.49l44.28,54.67h4.86v-56.27c0-10.99,1.13-11.72,9.39-11.72h1.46v-5.39h-28.97v5.39h1.46c8.26,0,9.32.67,9.32,11.72v34.43l-41.55-51.54h-18.31v5.39h1.46c8.26,0,9.32.67,9.32,11.72v37.09c0,11.12-1.2,11.85-9.32,11.85Z"/><path class="cls-1" d="M1903.85,395.16c9.85,0,10.39,2.26,11.79,7.66l.87,3.33h5.13l-1.2-18.38h-72.05l-1.2,18.38h5.19l.8-3.33c1.46-5.39,2.06-7.59,11.79-7.59h13.45v46.81c0,11.12-1.13,11.85-9.39,11.85h-1.46v5.33h33.76v-5.39h-1.47c-8.26,0-9.46-.73-9.46-11.85v-46.81h13.45Z"/><rect class="cls-1" x="10.55" y="519.28" width="1980" height="9.06"/><rect class="cls-1" x="10.55" y="318.91" width="1980" height="8.99"/><path class="cls-2" d="M1827.61,238.48l-2.44-2.39c-3.79-3.7-9.11-4.13-12.78-4.13-1.99,0-4.04.14-5.7.26-1.37.1-2.59.18-3.76.2-19.7.7-39.69,3.31-59.03,5.84-16.53,2.16-32.15,4.2-46.08,4.83l-7.02.27c-7.42.31-16.65.7-25.88.7-34.29,0-51.5-5.81-52.64-17.68-.24-4.22,2.85-9.81,8.71-15.78,24.17-7.04,47.81-15.02,71.16-34.26,5.55-4.44,14.84-11.88,10.05-21.19-1.65-2.87-3.8-4.09-7.18-4.09-1.12,0-2.45.13-4.24.34l-.21.04c-47.76,10.79-62.93,27.44-80.5,46.72l-.4.43c-1.44,1.58-2.9,3.18-4.4,4.8h-.02c-10.26,2.26-25.77,5.67-37.5,5.68-8.57,0-11.72-1.8-12.85-2.93-5.1-7.13-2.84-20.48-.46-34.61l.03-.19c.68-4.06,1.39-8.25,1.94-12.43l15.42-12.1c24.51-19.24,42.21-33.15,118.39-92.2,1.51-1.27,3.19-2.48,4.94-3.72l.09-.06c3.88-2.81,7.9-5.71,11.01-9.85l2.62-3.48-3.96-1.81c-2.28-1.04-4.65-1.57-7.06-1.57-8.3,0-15.04,6.02-20.47,10.86l-1.86,1.65c-21.79,18.59-61.65,49.48-70.26,55.85-6.25,4.27-17.17,12.81-27.73,21.08l-1.04.81c-8.16,6.38-15.91,12.44-21.45,16.5-1.03-1.49-2.52-2.37-4.32-2.49h-.18s-.17,0-.17,0c-10.51,1.13-13.65,8.7-15.33,21.41-14.79,15.08-29.88,26.58-37.08,31,14.89-31.7,38.52-53.67,63.45-76.86,6.51-6.04,12.38-11.52,18.34-17.3,21.26-17.07,23.59-23.01,20.46-27.04l-.74-.96-1.17-.3c-1.4-.36-2.81-.54-4.18-.54-7.19,0-12.08,4.96-16.02,8.96-1.02,1.05-2.02,2.06-3.02,2.94-4.91,4.39-9.56,9.2-14.5,14.3-3.83,3.97-8.18,8.47-12.86,12.91-6.84,6.3-12.97,13.1-18.96,19.74-6.61,7.34-13.45,14.93-21.39,21.94-11.29,10.23-25.08,19.87-38.42,29.18l-.2.14c-3.43,2.45-7.16,5.42-11.11,8.56-10.81,8.59-24.26,19.29-32.55,19.29-1.15,0-2.16-.21-2.94-.6-3.5-2.66-1.72-7.81,3.57-18.23,9.23-15.07,13.39-20.76,23.79-33.7,5.85-5.72,12.27-11.2,18.48-16.49l.08-.07c10.82-9.22,22.01-18.75,30.96-30.15,3.23-4.13,6.6-10.49,7.09-13.36.25-1.49-.18-3.02-1.17-4.2-1.13-1.34-2.87-2.08-4.9-2.08-3.35,0-7.32,1.92-12.15,5.88-16.48,13.54-30.04,25.84-42.63,41.85-2.09,2.65-3.96,5.28-5.78,7.82l-.25.35c-4.01,5.64-7.8,10.96-13.21,15.73-13.28,11.62-26.51,22.43-36.32,29.67l-2.1,1.58c-9.56,7.17-19.43,14.57-31.2,15.14l.33-.62c7.5-14.7,20.36-30.73,31.71-44.87,16.7-20.81,28.76-35.84,25.46-45.63-3.22-9.7-9.87-11.46-19.07-13.89l-.14-.04c-4.75-1.26-10.61-2.82-18.07-5.78,13.68-26.64,10.9-45.68,6.04-57.05-6.42-15.05-18.84-23.16-25.63-24.94-3.61-.95-7.31-1.43-11-1.43-23.12,0-43.2,19.59-43.85,42.78-.11,4.49.94,9.28,3.22,14.64l.05.1c1.19,2.41,2.24,4.01,3.58,5.66-33.61,25.65-59.97,60.56-81.38,91.52-3.56,1.62-8.25,4.1-14.12,7.2l-.16.09c-21.16,11.2-56.58,29.93-82.86,29.94-3.36,0-6.51-.31-9.39-.93,14.05-16.79,46.12-57.94,51.64-66.71l.43-.59c9.18-12.77,13.14-21.84,12.11-27.72-.8-4.66-3.77-7.7-8.13-8.43.44-.69.9-1.39,1.36-2.1,5.57-8.63,12.5-19.37,14.32-28.88,1.64-8.2.5-14.76-3.38-19.48-3.65-4.45-9.4-6.8-16.64-6.8-5.93,0-12.62,1.67-18.82,4.7-33.16,16.19-60.49,43.29-68.16,51.29l-4.11,3.73-.16.16c-5.7,6.5-11.98,13.16-19.29,20.9l-2.16,2.29c-3.68,3.9-7.49,7.94-11.54,12.31-1.01,1.09-2.08,2.23-3.19,3.41-10.01,6.47-89.31,57.26-111.01,57.26-1.73,0-2.29-.37-2.39-.44-4.51-3.55,1.61-17.67,6.55-29.06,7.07-16.33,15.09-34.83,1.67-40.9-.73-.33-1.53-.5-2.37-.5-4.85,0-10.21,5.61-20.04,16.36l-.08.09c-6.2,6.77-13.22,14.44-20.26,20.04-9.86,7.86-11.13,8.87-24.46,15.03-11.09,5.12-22.18,9.48-32.94,12.95-1.01.33-2.23.76-3.96,1.39-4.3,1.56-10.8,3.92-15.08,3.92-.79,0-1.49-.08-2-.23-1.07-.33-2.18-1.08-2.29-4.16-.27-7.3,5.51-17.17,7.61-17.97,16.82-6.47,40.92-22.8,41.95-34.68.3-3.51-1.29-6.49-4.47-8.4-2.05-1.23-4.32-1.85-6.76-1.85-9.99,0-21.58,10.54-36.31,23.94-20.82,18.95-46.72,42.52-78.14,45.93-.21.02-.42.03-.61.03-3.47,0-4.91-3.73-5.21-5.93-.9-6.62,1.75-13.91,4.79-21.43,2.94-7.27,6.71-14.86,11.86-23.88,1.6-2.81,3.25-5.57,4.89-8.23l.34-.46c1.12-1.52,2.27-3.09,1.95-5.03-.41-2.45-2.9-3.92-6.66-3.92-1.1,0-2.69.14-3.87,1.35-22.3,23.12-58.15,57.2-72.5,63.79.63-1.94,1.6-4.54,2.94-7.59,3.94-9.01,8.62-18.13,12.7-25.98,1.63-3.14,3.28-6.26,4.94-9.38.07-.13.22-.36.41-.67l.13-.22c3.07-4.99,4.48-7.5,2.96-9.91-1.33-2.08-4.01-2.08-5.31-2.08h-1.05c-2.44,0-4.38.77-5.8,2.27-.47.51-.89,1.04-1.26,1.51,0,0-4.11,5.02-5.91,7.18-5.8,6.93-11.53,13.58-17.05,19.77-7.86,8.79-14.43,15.74-20.68,21.86-5.99,5.86-11.9,11.46-18.4,15.6-1.77,1.13-4.16,2.66-6.48,2.76-.11-.52-.22-2.1.99-6.03,2.22-7.27,5.87-14.2,10.05-21.85,3.92-7.17,8.37-14.67,14-23.6,1.9-3.01,3.84-6.03,5.77-8.97.28-.44.58-.86.89-1.29.54-.75,1.14-1.61,1.83-2.81.58-.95,1.56-2.54,1.07-4.41-.19-.77-1.11-3.3-4.77-3.3-.3,0-.62.02-1.24.06l-.28.02c-3.03.06-4.53,1.24-6.03,2.66-3.98,3.76-8.14,7.55-12.7,11.61-7.25,6.43-14.11,12.25-20.97,17.78-8.99,7.25-17.05,13.25-24.63,18.35-6.71,4.52-14.75,9.62-23.47,13.25-4,1.66-8.66,3.36-12.94,3.36-1.27,0-2.46-.15-3.54-.46-2.33-.65-2.91-1.7-3.15-2.42-2.53-7.96,15.5-30.15,25.19-42.07,9.62-11.85,12.37-15.41,11.81-18.55-.67-3.83-3.6-6.21-7.64-6.21-1.07,0-2.12.16-3.01.37-2.99-3.58-9.69-9.68-20.52-9.68-7.42,0-15.37,2.99-23.63,8.88-33.88,1.15-76.56,18.66-110.9,32.75-1.05.43-2.1.86-3.14,1.29,11.08-12.83,22.09-24.4,30.22-31.71,34.32-28.25,74.9-56.38,83.1-61.83l5.61-3.7c9-5.9,16.11-10.57,20.61-15.53,1.31-1.45,1.67-3.37.97-5.14-.8-2.02-2.91-3.51-5.24-3.7h-.1s-.1,0-.1,0c-84.35,1.16-152.45,41.28-182.51,80.53-11.3,14.75-20.95,47.03-9.99,68.42-34.98,18.13-68.82,41.55-97.98,67.82-25.54,23.01-38.93,48.18-42.94,64.06-4.1,16.25-2.81,28.75,3.83,37.16,3.15,3.98,7.7,6.82,13.18,8.23,1.99.5,4.07.75,6.17.75,14.06,0,27.38-11.38,35.34-18.18,15.96-13.62,28.71-30.94,39.96-46.24l.52-.7c2.89-3.93,5.88-7.99,8.69-12.1l.08-.12c.1-.14.22-.31.36-.51,6.06-8.82,36.46-53,52.86-75.14,11.78,9.3,44.61,33.24,70.27,33.24,3.41,0,6.61-.44,9.52-1.3l1.53-.46-.4-6.12-1.58-.25c-27.58-4.3-50.94-15.19-73.37-34.22,1.42-2.14,2.8-4.28,4.14-6.37l.38-.59c4.56-7.1,8.86-13.81,14.31-20.01,10.8-3.89,21.21-8.02,31.35-12.05,25.53-10.14,49.69-19.73,79.17-25.44-22.38,18.52-36.98,33.86-31.42,53.13.99,3.4,4.05,9.1,13.5,9.1,12.04,0,29.52-9.29,38.97-14.89.15,4.35,1.16,10.01,4.75,14.35,3.5,4.23,8.63,6.37,15.25,6.37,15.25,0,39.11-11.84,70.97-35.2-.57,1.14-1.14,2.26-1.71,3.38l-.28.55c-7.47,14.72-12.87,25.36-8.86,31.9,1.88,3.07,5.31,4.56,10.49,4.56,1.19,0,2.53-.09,3.97-.25,12.15-1.39,28.89-16.07,43.16-31.16-7.05,15.82-5.84,19.13-5.33,20.54.51,1.41,1.53,2.46,2.86,2.97.56.22,1.2.33,1.89.33,8.09,0,40.47-24.08,61.87-40.71-2.15,10.49-3.55,24.95,2.33,33.26,2.92,4.13,7.19,6.31,12.76,6.48h.72c18.06,0,48.35-19.88,64.64-30.57l.85-.56c-1.43,4.84-2.19,10.43-.67,15.51,1.32,4.42,4.15,7.79,8.4,9.99,1.74.91,3.88,1.35,6.54,1.35,11.01,0,30.12-8.06,45.48-14.53,8.65-3.65,17.59-7.42,20.48-7.56.1,0,.18,0,.23.01.31.65.54,2.93.64,3.94.79,8.08,2.12,21.61,29.58,21.61h.76c25.1-.21,65.38-21.6,94.84-37.25,1.42-.75,2.85-1.51,4.27-2.27-7.16,8.85-13,17.15-17.75,25.19-5.89,10.36-8.16,15.83-6.08,20.83l.1.23.15.2c1.67,2.23,4.19,3.46,7.1,3.46,4.84,0,9.51-3.18,11.81-5.05,11.94-9.09,21.05-18.34,32.58-30.04l8-8.09c7.72-7.7,41.37-48.63,44.89-58.91,2.53-7.43,2.44-10.59-1.02-15.67,16.35-16.92,34.26-33.95,54.49-45.03,6.19-3.45,13.34-7.12,19.91-7.12,2.73,0,5.28.63,7.41,1.82,5.94,6.95-.4,24.38-17.03,46.83-13.13,4.72-47.23,20.86-43.04,37.06l.29,1.11.9.73c1.61,1.29,3.68,1.95,6.16,1.95,8.87,0,21.6-8.47,27.53-13.82,5.93-5.34,13.88-14.29,16.91-17.82,1.68-.54,2.51-.46,2.76-.4,0,.02,0,.05,0,.08.2,2.27-.47,3.86-3.59,8.55-2.85,4.31-41.96,59.39-57.07,75.76-.64.69-1.18,1.31-1.64,1.85-3.83-6.58-4.65-17.07-5.32-25.73-.69-8.83-1.19-15.21-4.95-17.89l-.22-.14c-1.11-.59-2.37-.9-3.73-.9-1.86,0-3.55.57-4.63,1.04-9.68,4.11-16.23,16.47-20.03,37.78-.64,3.55-1.3,9.05-1.24,12.74.22,16.98,5.14,25.83,15.04,27.04.9.11,1.76.16,2.63.16,9.81,0,15.88-7.16,20.79-12.95.9-1.07,1.74-2.05,2.57-2.98,5.16.95,10.41,1.44,15.64,1.44,26.94,0,50.14-12.39,72.58-24.38,4.26-2.28,8.43-4.5,12.62-6.64l4.78-2.45c.79-.41,1.63-.84,2.49-1.28-2.13,3.84-4.07,8.05-5.23,12.52-2,7.75-1.16,10.23-.34,11.44.72,1.05,1.79,1.62,3.28,1.76h.19c3.04,0,5.49-2.19,11.37-10.21l.14-.22c2.22-4.05,3.88-8.17,5.47-12.15l.08-.2c2.23-5.56,4.33-10.82,7.36-14.76,3.29-2.24,5.29-3.59,7.7-5.15.27,4.84.39,9.77.5,15.13v.1c.3,12.71.56,23.69,3.47,29.34l.09.16c3.65,5.75,8.94,8.66,15.73,8.66,6.42,0,14.11-2.73,22.87-8.13,11.88-7.47,38.14-39,42.16-45.16.28-.41,1.47-2.05,3.53-4.86,3.89-5.34,9.77-13.41,11.81-16.48,9.43-14.26,14.22-23.01,21.66-37.45,1.81.54,3.84,1.08,5.97,1.64,8.86,2.36,23.68,6.32,22.62,11.71-1.31,6.67-13.52,22.09-24.3,35.69-8.12,10.26-15.79,19.96-20.36,27.51-.82,1.33-2.97,4.39-4.55,6.62-1.29,1.84-2.55,3.63-3.41,4.9-.74,1.1-1.44,2.06-2.12,3-2.78,3.83-4.98,6.86-4.13,12.43.81,5.3,3.16,8.03,7.87,9.12l.25.06h.26c24.78-.81,40.66-14.73,56.02-28.19,3.71-3.25,7.5-6.57,11.37-9.64-5.4,9.6-9.53,19.92-5.75,30.15l.1.27.17.23c3.15,4.21,7.24,6.34,12.18,6.34,7.97,0,16.76-5.68,25.26-11.17,2.25-1.46,4.66-3.01,7.15-4.51l.16-.11c12.36-9.15,21.41-15.88,31.09-23.26.06-.05.12-.09.18-.14-3.9,6.45-6.9,13.05-8.97,19.71-1.21,3.33-.12,6.44,3.08,8.78,1.63,1.17,3.64,1.77,5.98,1.77,11.74,0,32.01-15.95,48.14-30.58-.11,9.08.22,16.36,1.66,24.25,2.3,12.43,12.25,18.74,29.57,18.74,10.06,0,21.77-2.05,31.86-3.99-3.3,7.67-3.43,14.7-.38,20.92,6.39,13.07,25.62,19.34,41.48,20.84,7.31.74,15.27,1.11,23.65,1.11,30.4,0,63.28-4.71,95.08-9.26,23.18-3.32,45.08-6.46,64.33-7.5l7.96-.42-3.26-3.19ZM1636.69,191.73c10.9-10.33,24.45-17.95,38.7-21.79-13.53,10.42-26.3,17.61-38.7,21.79ZM1326.98,74.94c.65-.5,1.32-1.01,2-1.54,7.59-5.86,19.05-14.71,25.1-14.76-.56,3.12-6.38,11.62-17.17,21.57-3.84-1.37-6.38-2.62-9.92-5.27ZM1318.02,82.16c3.3,2.29,7.01,4.69,10.85,6.6-8.48,8.48-13.45,13.26-22.81,21.38-5.68,4.37-10.6,8.23-15.81,12.31l-12.18,9.54c-4.59,3.6-6.35,4.91-13.13,9.55-.54.37-1.23.83-2,1.3-.34-.71-.76-1.42-1.29-2.08,13-18.07,43.1-47.48,56.36-58.61ZM1264.89,154.1c20.99-14.97,51.01-37.28,74.38-61.12,3.82,1.31,7.09,2.53,9.76,3.53,3.12,1.17,6.33,2.37,9.96,3.57-15.53,31.55-33.19,57.8-53.98,80.21l-.44.49c-5.81,6.46-21.23,23.62-33.25,23.62-1.19,0-2.45-.19-3.43-.51-3.82-3.21-3.38-16.3-2.99-27.87v-.09c.26-7.28.52-14.8-.02-21.82ZM1365.13,55.6c-.44-3.29-2.4-7.22-9.21-7.22-.85,0-1.79.05-2.95.15-10.59.89-23.93,10.38-34.13,17.9-5.04-7.62-4.68-15.11-3.41-20.18,2.44-9.76,10.15-18.58,19.66-22.5,3.47-1.15,6.91-1.73,10.21-1.73,17.58,0,28.69,16.03,29.28,31.47.12,9.05-1.69,15.68-3.51,21.6-2.62,7.2-4.96,12.17-6.45,15.05-5.33-1.68-11.16-3.87-16.36-5.82l-.52-.19c8.66-8.41,18.57-19.66,17.39-28.53ZM1053.61,147.73c11.46-12.81,22.4-24.23,31.91-33.31-1.04,3.92-4.34,9.62-9.95,17.24-16.98,24.55-48.5,56.72-64.03,67.83,6.07-8.98,18.12-24.22,31.99-40.31.21-.04.36-.06.46-.06,3.41.63,6.27-.37,7.96-2.72,1.45-1.99,2-4.91,1.64-8.68ZM936.19,142.52c-.14.51-.35,1.16-.68,2.01-1.07,2.72-2.22,5.74-3.73,9.74l-.14.36c-3.13,8.26-6.68,17.62-10.33,25.8l-1.07,2.42c-3.12,7.06-6.06,13.72-10.29,14.24h0c-.38.05-.77.07-1.15.07-2.28,0-4.13-.9-5.64-2.74-2.91-3.53-3.66-9.36-2.89-13.29.5-2.58,6.78-11.62,16.06-21.74,9.54-10.4,16.55-15.77,19.87-16.87ZM830.82,158.67c5.66-6.99,14.59-13.89,21.08-16.88-4.08,5.27-12.19,12.82-21.08,16.88ZM554.62,147.93c-4.43,6.51-46.18,50.39-64.65,50.39-1.41,0-2.6-.29-3.53-.85-2.19-1.34-3.01-3.1-2.67-5.72,2.2-16.81,45.01-49.65,57.03-53.2,1.9-.56,3.69-.85,5.32-.85,3.8,0,6.84,1.61,8.33,4.4,1.06,2.01,1.13,4.41.17,5.83ZM372.73,183.35c-4.26,2.28-8.64,4.63-13.2,7.18-8.5-18.04.65-43.8,7.74-53.99,15.38-22.07,31.72-32.6,43.65-40.29,1.85-1.19,3.61-2.33,5.27-3.44,9.8-6.57,28.31-14.22,38.48-18.2,25.8-10.11,50.74-16,74.26-17.54-.19.12-.37.24-.54.34l-.69.44c-11.73,7.43-50.63,33.23-89.28,63.02-13.31,10.98-25.41,21.35-38.84,37.04l-6.83,7.98c-3.51,4.1-6.67,7.8-10.46,12.28-3.01,1.66-6.2,3.37-9.46,5.12l-.1.05ZM258.72,272.02c31.42-27.68,48.12-40,96.36-66.79,1.86,2.94,3.59,5.32,5.5,7.59-15.31,20.4-30.49,42.2-46.34,66.58-2.92,4.48-5.83,8.98-8.67,13.4-15.88,23.53-39.42,54.22-61.42,66.83-3.92,2.25-8.06,3.44-11.99,3.44-4.6,0-8.65-1.67-11.4-4.71-3.39-3.73-4.83-9.37-4.16-16.32,3.78-39.16,41.67-69.65,42.05-69.95l.08-.07ZM1100.62,208.63c-3.99,5.52-8.16,10.5-12.09,10.5-.44,0-.89-.06-1.31-.18-.45-.13-1.13-.47-1.81-1.84-3.08-6.24-1.11-22.51,2.9-36.15.67,6,2.25,13.71,5.89,20.12,1.95,3.47,4.31,5.84,6.42,7.57Z"/></svg>