<svg xmlns="http://www.w3.org/2000/svg" viewBox="0 0 72 60" width="288" height="240" shape-rendering="crispEdges"><rect x="40" y="21" width="5" height="1" fill="#1a1a1a"/><rect x="39" y="22" width="2" height="1" fill="#1a1a1a"/><rect x="41" y="22" width="3" height="1" fill="#ffe8c2"/><rect x="44" y="22" width="2" height="1" fill="#1a1a1a"/><rect x="39" y="23" width="1" height="1" fill="#1a1a1a"/><rect x="40" y="23" width="5" height="1" fill="#ffe8c2"/><rect x="45" y="23" width="1" height="1" fill="#1a1a1a"/><rect x="38" y="24" width="2" height="1" fill="#1a1a1a"/><rect x="40" y="24" width="5" height="1" fill="#ffe8c2"/><rect x="45" y="24" width="1" height="1" fill="#1a1a1a"/><rect x="32" y="25" width="5" height="1" fill="#1a1a1a"/><rect x="38" y="25" width="1" height="1" fill="#1a1a1a"/><rect x="39" y="25" width="1" height="1" fill="#c64610"/><rect x="40" y="25" width="5" height="1" fill="#ffe8c2"/><rect x="45" y="25" width="1" height="1" fill="#1a1a1a"/><rect x="31" y="26" width="2" height="1" fill="#1a1a1a"/><rect x="33" y="26" width="3" height="1" fill="#ffe8c2"/><rect x="36" y="26" width="3" height="1" fill="#1a1a1a"/><rect x="39" y="26" width="1" height="1" fill="#c64610"/><rect x="40" y="26" width="1" height="1" fill="#842a0e"/><rect x="41" y="26" width="3" height="1" fill="#ffe8c2"/><rect x="44" y="26" width="2" height="1" fill="#1a1a1a"/><rect x="31" y="27" width="1" height="1" fill="#1a1a1a"/><rect x="32" y="27" width="5" height="1" fill="#ffe8c2"/><rect x="37" y="27" width="1" height="1" fill="#1a1a1a"/><rect x="38" y="27" width="1" height="1" fill="#c64610"/><rect x="39" y="27" width="4" height="1" fill="#842a0e"/><rect x="43" y="27" width="2" height="1" fill="#1a1a1a"/><rect x="31" y="28" width="1" height="1" fill="#1a1a1a"/><rect x="32" y="28" width="5" height="1" fill="#ffe8c2"/><rect x="37" y="28" width="1" height="1" fill="#1a1a1a"/><rect x="38" y="28" width="4" height="1" fill="#842a0e"/><rect x="42" y="28" width="2" height="1" fill="#1a1a1a"/><rect x="31" y="29" width="1" height="1" fill="#1a1a1a"/><rect x="32" y="29" width="5" height="1" fill="#ffe8c2"/><rect x="37" y="29" width="2" height="1" fill="#1a1a1a"/><rect x="39" y="29" width="3" height="1" fill="#842a0e"/><rect x="42" y="29" width="1" height="1" fill="#1a1a1a"/><rect x="31" y="30" width="2" height="1" fill="#1a1a1a"/><rect x="33" y="30" width="3" height="1" fill="#ffe8c2"/><rect x="36" y="30" width="1" height="1" fill="#842a0e"/><rect x="37" y="30" width="1" height="1" fill="#c64610"/><rect x="38" y="30" width="2" height="1" fill="#1a1a1a"/><rect x="40" y="30" width="1" height="1" fill="#842a0e"/><rect x="41" y="30" width="2" height="1" fill="#1a1a1a"/><rect x="32" y="31" width="1" height="1" fill="#1a1a1a"/><rect x="33" y="31" width="5" height="1" fill="#842a0e"/><rect x="38" y="31" width="1" height="1" fill="#c64610"/><rect x="39" y="31" width="1" height="1" fill="#1a1a1a"/><rect x="40" y="31" width="1" height="1" fill="#c64610"/><rect x="41" y="31" width="1" height="1" fill="#1a1a1a"/><rect x="32" y="32" width="2" height="1" fill="#1a1a1a"/><rect x="34" y="32" width="5" height="1" fill="#842a0e"/><rect x="39" y="32" width="3" height="1" fill="#1a1a1a"/><rect x="33" y="33" width="2" height="1" fill="#1a1a1a"/><rect x="35" y="33" width="4" height="1" fill="#842a0e"/><rect x="39" y="33" width="1" height="1" fill="#c64610"/><rect x="40" y="33" width="1" height="1" fill="#1a1a1a"/><rect x="62" y="33" width="1" height="1" fill="#fff4be"/><rect x="33" y="34" width="2" height="1" fill="#1a1a1a"/><rect x="35" y="34" width="1" height="1" fill="#c64610"/><rect x="36" y="34" width="3" height="1" fill="#842a0e"/><rect x="39" y="34" width="1" height="1" fill="#c64610"/><rect x="40" y="34" width="2" height="1" fill="#1a1a1a"/><rect x="15" y="35" width="7" height="1" fill="#1a1a1a"/><rect x="33" y="35" width="3" height="1" fill="#1a1a1a"/><rect x="36" y="35" width="1" height="1" fill="#842a0e"/><rect x="37" y="35" width="1" height="1" fill="#c64610"/><rect x="38" y="35" width="2" height="1" fill="#842a0e"/><rect x="40" y="35" width="1" height="1" fill="#c64610"/><rect x="41" y="35" width="2" height="1" fill="#1a1a1a"/><rect x="55" y="35" width="1" height="1" fill="#ffbe3c"/><rect x="15" y="36" width="1" height="1" fill="#1a1a1a"/><rect x="16" y="36" width="5" height="1" fill="#c5d3e8"/><rect x="21" y="36" width="1" height="1" fill="#1a1a1a"/><rect x="32" y="36" width="2" height="1" fill="#1a1a1a"/><rect x="34" y="36" width="1" height="1" fill="#842a0e"/><rect x="35" y="36" width="1" height="1" fill="#1a1a1a"/><rect x="36" y="36" width="3" height="1" fill="#842a0e"/><rect x="39" y="36" width="1" height="1" fill="#c64610"/><rect x="40" y="36" width="1" height="1" fill="#842a0e"/><rect x="41" y="36" width="1" height="1" fill="#c64610"/><rect x="42" y="36" width="1" height="1" fill="#1a1a1a"/><rect x="11" y="37" width="5" height="1" fill="#1a1a1a"/><rect x="16" y="37" width="5" height="1" fill="#c5d3e8"/><rect x="21" y="37" width="5" height="1" fill="#1a1a1a"/><rect x="31" y="37" width="2" height="1" fill="#1a1a1a"/><rect x="33" y="37" width="1" height="1" fill="#c64610"/><rect x="34" y="37" width="1" height="1" fill="#842a0e"/><rect x="35" y="37" width="2" height="1" fill="#1a1a1a"/><rect x="37" y="37" width="4" height="1" fill="#842a0e"/><rect x="41" y="37" width="1" height="1" fill="#c64610"/><rect x="42" y="37" width="2" height="1" fill="#1a1a1a"/><rect x="11" y="38" width="1" height="1" fill="#1a1a1a"/><rect x="12" y="38" width="13" height="1" fill="#f8f7f4"/><rect x="25" y="38" width="1" height="1" fill="#1a1a1a"/><rect x="31" y="38" width="1" height="1" fill="#1a1a1a"/><rect x="32" y="38" width="2" height="1" fill="#c64610"/><rect x="34" y="38" width="2" height="1" fill="#842a0e"/><rect x="36" y="38" width="2" height="1" fill="#1a1a1a"/><rect x="38" y="38" width="4" height="1" fill="#842a0e"/><rect x="42" y="38" width="1" height="1" fill="#c64610"/><rect x="43" y="38" width="2" height="1" fill="#1a1a1a"/><rect x="59" y="38" width="1" height="1" fill="#f8801c"/><rect x="11" y="39" width="1" height="1" fill="#1a1a1a"/><rect x="12" y="39" width="13" height="1" fill="#f8f7f4"/><rect x="25" y="39" width="1" height="1" fill="#1a1a1a"/><rect x="30" y="39" width="2" height="1" fill="#1a1a1a"/><rect x="32" y="39" width="1" height="1" fill="#c64610"/><rect x="33" y="39" width="1" height="1" fill="#842a0e"/><rect x="34" y="39" width="1" height="1" fill="#c64610"/><rect x="35" y="39" width="1" height="1" fill="#842a0e"/><rect x="36" y="39" width="2" height="1" fill="#1a1a1a"/><rect x="38" y="39" width="4" height="1" fill="#842a0e"/><rect x="42" y="39" width="2" height="1" fill="#c64610"/><rect x="44" y="39" width="1" height="1" fill="#1a1a1a"/><rect x="58" y="39" width="2" height="1" fill="#f8801c"/><rect x="11" y="40" width="1" height="1" fill="#1a1a1a"/><rect x="12" y="40" width="13" height="1" fill="#f8f7f4"/><rect x="25" y="40" width="1" height="1" fill="#1a1a1a"/><rect x="30" y="40" width="1" height="1" fill="#1a1a1a"/><rect x="31" y="40" width="1" height="1" fill="#c64610"/><rect x="32" y="40" width="4" height="1" fill="#842a0e"/><rect x="36" y="40" width="3" height="1" fill="#1a1a1a"/><rect x="39" y="40" width="4" height="1" fill="#842a0e"/><rect x="43" y="40" width="1" height="1" fill="#c64610"/><rect x="44" y="40" width="2" height="1" fill="#1a1a1a"/><rect x="58" y="40" width="1" height="1" fill="#f8801c"/><rect x="59" y="40" width="1" height="1" fill="#ffbe3c"/><rect x="60" y="40" width="1" height="1" fill="#f8801c"/><rect x="11" y="41" width="1" height="1" fill="#1a1a1a"/><rect x="12" y="41" width="3" height="1" fill="#f8f7f4"/><rect x="15" y="41" width="1" height="1" fill="#6edc82"/><rect x="16" y="41" width="9" height="1" fill="#f8f7f4"/><rect x="25" y="41" width="1" height="1" fill="#1a1a1a"/><rect x="29" y="41" width="2" height="1" fill="#1a1a1a"/><rect x="31" y="41" width="4" height="1" fill="#842a0e"/><rect x="35" y="41" width="2" height="1" fill="#1a1a1a"/><rect x="38" y="41" width="2" height="1" fill="#1a1a1a"/><rect x="40" y="41" width="4" height="1" fill="#842a0e"/><rect x="44" y="41" width="1" height="1" fill="#c64610"/><rect x="45" y="41" width="2" height="1" fill="#1a1a1a"/><rect x="57" y="41" width="1" height="1" fill="#f8801c"/><rect x="58" y="41" width="2" height="1" fill="#ffbe3c"/><rect x="60" y="41" width="1" height="1" fill="#f8801c"/><rect x="10" y="42" width="2" height="1" fill="#1a1a1a"/><rect x="12" y="42" width="2" height="1" fill="#f8f7f4"/><rect x="14" y="42" width="1" height="1" fill="#6edc82"/><rect x="15" y="42" width="10" height="1" fill="#f8f7f4"/><rect x="25" y="42" width="1" height="1" fill="#1a1a1a"/><rect x="29" y="42" width="1" height="1" fill="#1a1a1a"/><rect x="30" y="42" width="1" height="1" fill="#c64610"/><rect x="31" y="42" width="4" height="1" fill="#842a0e"/><rect x="35" y="42" width="2" height="1" fill="#1a1a1a"/><rect x="39" y="42" width="1" height="1" fill="#1a1a1a"/><rect x="40" y="42" width="1" height="1" fill="#c64610"/><rect x="41" y="42" width="4" height="1" fill="#842a0e"/><rect x="45" y="42" width="1" height="1" fill="#c64610"/><rect x="46" y="42" width="1" height="1" fill="#1a1a1a"/><rect x="57" y="42" width="1" height="1" fill="#f8801c"/><rect x="58" y="42" width="2" height="1" fill="#fff4be"/><rect x="60" y="42" width="1" height="1" fill="#f8801c"/><rect x="10" y="43" width="1" height="1" fill="#1a1a1a"/><rect x="11" y="43" width="1" height="1" fill="#f8f7f4"/><rect x="12" y="43" width="1" height="1" fill="#6edc82"/><rect x="13" y="43" width="1" height="1" fill="#f8f7f4"/><rect x="14" y="43" width="1" height="1" fill="#6edc82"/><rect x="15" y="43" width="1" height="1" fill="#f8f7f4"/><rect x="16" y="43" width="6" height="1" fill="#1a1a1a"/><rect x="22" y="43" width="2" height="1" fill="#f8f7f4"/><rect x="24" y="43" width="6" height="1" fill="#1a1a1a"/><rect x="30" y="43" width="2" height="1" fill="#c64610"/><rect x="32" y="43" width="2" height="1" fill="#842a0e"/><rect x="34" y="43" width="7" height="1" fill="#1a1a1a"/><rect x="41" y="43" width="1" height="1" fill="#842a0e"/><rect x="42" y="43" width="1" height="1" fill="#c64610"/><rect x="43" y="43" width="3" height="1" fill="#842a0e"/><rect x="46" y="43" width="3" height="1" fill="#1a1a1a"/><rect x="57" y="43" width="1" height="1" fill="#1a1a1a"/><rect x="58" y="43" width="1" height="1" fill="#f8801c"/><rect x="59" y="43" width="1" height="1" fill="#fff4be"/><rect x="60" y="43" width="1" height="1" fill="#f8801c"/><rect x="10" y="44" width="1" height="1" fill="#1a1a1a"/><rect x="11" y="44" width="2" height="1" fill="#f8f7f4"/><rect x="13" y="44" width="1" height="1" fill="#6edc82"/><rect x="14" y="44" width="10" height="1" fill="#f8f7f4"/><rect x="24" y="44" width="1" height="1" fill="#1a1a1a"/><rect x="25" y="44" width="1" height="1" fill="#ffe8c2"/><rect x="26" y="44" width="2" height="1" fill="#c64610"/><rect x="28" y="44" width="1" height="1" fill="#1a1a1a"/><rect x="29" y="44" width="1" height="1" fill="#c64610"/><rect x="30" y="44" width="3" height="1" fill="#842a0e"/><rect x="33" y="44" width="1" height="1" fill="#c64610"/><rect x="34" y="44" width="2" height="1" fill="#1a1a1a"/><rect x="36" y="44" width="4" height="1" fill="#c64610"/><rect x="40" y="44" width="2" height="1" fill="#1a1a1a"/><rect x="42" y="44" width="2" height="1" fill="#842a0e"/><rect x="44" y="44" width="1" height="1" fill="#c64610"/><rect x="45" y="44" width="1" height="1" fill="#842a0e"/><rect x="46" y="44" width="1" height="1" fill="#c64610"/><rect x="47" y="44" width="2" height="1" fill="#1a1a1a"/><rect x="57" y="44" width="1" height="1" fill="#1a1a1a"/><rect x="58" y="44" width="2" height="1" fill="#c64610"/><rect x="60" y="44" width="1" height="1" fill="#1a1a1a"/><rect x="10" y="45" width="1" height="1" fill="#1a1a1a"/><rect x="11" y="45" width="13" height="1" fill="#f8f7f4"/><rect x="24" y="45" width="1" height="1" fill="#1a1a1a"/><rect x="25" y="45" width="1" height="1" fill="#ffe8c2"/><rect x="26" y="45" width="1" height="1" fill="#c64610"/><rect x="27" y="45" width="2" height="1" fill="#1a1a1a"/><rect x="29" y="45" width="4" height="1" fill="#842a0e"/><rect x="33" y="45" width="2" height="1" fill="#1a1a1a"/><rect x="35" y="45" width="2" height="1" fill="#c64610"/><rect x="37" y="45" width="2" height="1" fill="#1a1a1a"/><rect x="39" y="45" width="2" height="1" fill="#c64610"/><rect x="41" y="45" width="1" height="1" fill="#1a1a1a"/><rect x="42" y="45" width="4" height="1" fill="#842a0e"/><rect x="46" y="45" width="1" height="1" fill="#c64610"/><rect x="47" y="45" width="2" height="1" fill="#1a1a1a"/><rect x="57" y="45" width="1" height="1" fill="#1a1a1a"/><rect x="58" y="45" width="2" height="1" fill="#c64610"/><rect x="60" y="45" width="2" height="1" fill="#1a1a1a"/><rect x="10" y="46" width="1" height="1" fill="#1a1a1a"/><rect x="11" y="46" width="13" height="1" fill="#f8f7f4"/><rect x="24" y="46" width="31" height="1" fill="#1a1a1a"/><rect x="57" y="46" width="2" height="1" fill="#1a1a1a"/><rect x="59" y="46" width="2" height="1" fill="#ffe8c2"/><rect x="61" y="46" width="1" height="1" fill="#1a1a1a"/><rect x="10" y="47" width="1" height="1" fill="#1a1a1a"/><rect x="11" y="47" width="5" height="1" fill="#f8f7f4"/><rect x="16" y="47" width="5" height="1" fill="#1a1a1a"/><rect x="21" y="47" width="3" height="1" fill="#f8f7f4"/><rect x="24" y="47" width="1" height="1" fill="#1a1a1a"/><rect x="25" y="47" width="26" height="1" fill="#c64610"/><rect x="51" y="47" width="3" height="1" fill="#ffe8c2"/><rect x="54" y="47" width="2" height="1" fill="#1a1a1a"/><rect x="58" y="47" width="1" height="1" fill="#1a1a1a"/><rect x="59" y="47" width="2" height="1" fill="#ffe8c2"/><rect x="61" y="47" width="2" height="1" fill="#1a1a1a"/><rect x="9" y="48" width="2" height="1" fill="#1a1a1a"/><rect x="11" y="48" width="13" height="1" fill="#f8f7f4"/><rect x="24" y="48" width="1" height="1" fill="#1a1a1a"/><rect x="25" y="48" width="1" height="1" fill="#c64610"/><rect x="26" y="48" width="1" height="1" fill="#842a0e"/><rect x="27" y="48" width="1" height="1" fill="#c64610"/><rect x="28" y="48" width="1" height="1" fill="#842a0e"/><rect x="29" y="48" width="3" height="1" fill="#c64610"/><rect x="32" y="48" width="1" height="1" fill="#842a0e"/><rect x="33" y="48" width="1" height="1" fill="#c64610"/><rect x="34" y="48" width="1" height="1" fill="#842a0e"/><rect x="35" y="48" width="1" height="1" fill="#c64610"/><rect x="36" y="48" width="1" height="1" fill="#842a0e"/><rect x="37" y="48" width="1" height="1" fill="#c64610"/><rect x="38" y="48" width="1" height="1" fill="#842a0e"/><rect x="39" y="48" width="1" height="1" fill="#c64610"/><rect x="40" y="48" width="1" height="1" fill="#842a0e"/><rect x="41" y="48" width="1" height="1" fill="#c64610"/><rect x="42" y="48" width="1" height="1" fill="#842a0e"/><rect x="43" y="48" width="1" height="1" fill="#c64610"/><rect x="44" y="48" width="1" height="1" fill="#842a0e"/><rect x="45" y="48" width="1" height="1" fill="#c64610"/><rect x="46" y="48" width="1" height="1" fill="#842a0e"/><rect x="47" y="48" width="1" height="1" fill="#c64610"/><rect x="48" y="48" width="1" height="1" fill="#842a0e"/><rect x="49" y="48" width="1" height="1" fill="#c64610"/><rect x="50" y="48" width="5" height="1" fill="#ffe8c2"/><rect x="55" y="48" width="1" height="1" fill="#1a1a1a"/><rect x="58" y="48" width="2" height="1" fill="#1a1a1a"/><rect x="60" y="48" width="2" height="1" fill="#ffe8c2"/><rect x="62" y="48" width="1" height="1" fill="#1a1a1a"/><rect x="9" y="49" width="1" height="1" fill="#1a1a1a"/><rect x="10" y="49" width="13" height="1" fill="#f8f7f4"/><rect x="23" y="49" width="2" height="1" fill="#1a1a1a"/><rect x="25" y="49" width="7" height="1" fill="#842a0e"/><rect x="32" y="49" width="1" height="1" fill="#c64610"/><rect x="33" y="49" width="10" height="1" fill="#842a0e"/><rect x="43" y="49" width="1" height="1" fill="#c64610"/><rect x="44" y="49" width="6" height="1" fill="#842a0e"/><rect x="50" y="49" width="5" height="1" fill="#ffe8c2"/><rect x="55" y="49" width="1" height="1" fill="#1a1a1a"/><rect x="59" y="49" width="1" height="1" fill="#1a1a1a"/><rect x="60" y="49" width="2" height="1" fill="#ffe8c2"/><rect x="62" y="49" width="2" height="1" fill="#1a1a1a"/><rect x="9" y="50" width="1" height="1" fill="#1a1a1a"/><rect x="10" y="50" width="13" height="1" fill="#f8f7f4"/><rect x="23" y="50" width="2" height="1" fill="#1a1a1a"/><rect x="25" y="50" width="9" height="1" fill="#842a0e"/><rect x="34" y="50" width="1" height="1" fill="#c64610"/><rect x="35" y="50" width="10" height="1" fill="#842a0e"/><rect x="45" y="50" width="1" height="1" fill="#c64610"/><rect x="46" y="50" width="4" height="1" fill="#842a0e"/><rect x="50" y="50" width="2" height="1" fill="#ffe8c2"/><rect x="52" y="50" width="1" height="1" fill="#ffbe3c"/><rect x="53" y="50" width="2" height="1" fill="#ffe8c2"/><rect x="55" y="50" width="1" height="1" fill="#1a1a1a"/><rect x="59" y="50" width="2" height="1" fill="#1a1a1a"/><rect x="61" y="50" width="2" height="1" fill="#ffe8c2"/><rect x="63" y="50" width="1" height="1" fill="#1a1a1a"/><rect x="9" y="51" width="1" height="1" fill="#1a1a1a"/><rect x="10" y="51" width="5" height="1" fill="#f8f7f4"/><rect x="15" y="51" width="6" height="1" fill="#1a1a1a"/><rect x="21" y="51" width="2" height="1" fill="#f8f7f4"/><rect x="23" y="51" width="2" height="1" fill="#1a1a1a"/><rect x="25" y="51" width="1" height="1" fill="#c64610"/><rect x="26" y="51" width="10" height="1" fill="#842a0e"/><rect x="36" y="51" width="1" height="1" fill="#c64610"/><rect x="37" y="51" width="10" height="1" fill="#842a0e"/><rect x="47" y="51" width="1" height="1" fill="#c64610"/><rect x="48" y="51" width="3" height="1" fill="#842a0e"/><rect x="51" y="51" width="3" height="1" fill="#ffe8c2"/><rect x="54" y="51" width="2" height="1" fill="#1a1a1a"/><rect x="60" y="51" width="1" height="1" fill="#1a1a1a"/><rect x="61" y="51" width="2" height="1" fill="#ffe8c2"/><rect x="63" y="51" width="2" height="1" fill="#1a1a1a"/><rect x="9" y="52" width="1" height="1" fill="#1a1a1a"/><rect x="10" y="52" width="13" height="1" fill="#f8f7f4"/><rect x="23" y="52" width="32" height="1" fill="#1a1a1a"/><rect x="60" y="52" width="2" height="1" fill="#1a1a1a"/><rect x="62" y="52" width="2" height="1" fill="#ffe8c2"/><rect x="64" y="52" width="1" height="1" fill="#1a1a1a"/><rect x="9" y="53" width="1" height="1" fill="#1a1a1a"/><rect x="10" y="53" width="13" height="1" fill="#f8f7f4"/><rect x="23" y="53" width="1" height="1" fill="#1a1a1a"/><rect x="29" y="53" width="1" height="1" fill="#0e1636"/><rect x="31" y="53" width="1" height="1" fill="#0e1636"/><rect x="33" y="53" width="1" height="1" fill="#0e1636"/><rect x="39" y="53" width="1" height="1" fill="#0e1636"/><rect x="41" y="53" width="1" height="1" fill="#0e1636"/><rect x="43" y="53" width="1" height="1" fill="#0e1636"/><rect x="49" y="53" width="1" height="1" fill="#0e1636"/><rect x="51" y="53" width="1" height="1" fill="#0e1636"/><rect x="53" y="53" width="1" height="1" fill="#0e1636"/><rect x="61" y="53" width="1" height="1" fill="#1a1a1a"/><rect x="62" y="53" width="2" height="1" fill="#ffe8c2"/><rect x="64" y="53" width="1" height="1" fill="#ffbe3c"/><rect x="9" y="54" width="1" height="1" fill="#1a1a1a"/><rect x="10" y="54" width="13" height="1" fill="#f8f7f4"/><rect x="23" y="54" width="1" height="1" fill="#1a1a1a"/><rect x="24" y="54" width="1" height="1" fill="#0e1636"/><rect x="30" y="54" width="1" height="1" fill="#0e1636"/><rect x="32" y="54" width="1" height="1" fill="#0e1636"/><rect x="34" y="54" width="1" height="1" fill="#0e1636"/><rect x="40" y="54" width="1" height="1" fill="#0e1636"/><rect x="42" y="54" width="1" height="1" fill="#0e1636"/><rect x="44" y="54" width="1" height="1" fill="#0e1636"/><rect x="50" y="54" width="1" height="1" fill="#0e1636"/><rect x="52" y="54" width="1" height="1" fill="#0e1636"/><rect x="54" y="54" width="1" height="1" fill="#0e1636"/><rect x="56" y="54" width="1" height="1" fill="#f8801c"/><rect x="61" y="54" width="4" height="1" fill="#1a1a1a"/><rect x="9" y="55" width="15" height="1" fill="#1a1a1a"/><rect x="25" y="55" width="1" height="1" fill="#0e1636"/><rect x="31" y="55" width="1" height="1" fill="#0e1636"/><rect x="33" y="55" width="1" height="1" fill="#0e1636"/><rect x="35" y="55" width="1" height="1" fill="#0e1636"/><rect x="41" y="55" width="1" height="1" fill="#0e1636"/><rect x="43" y="55" width="1" height="1" fill="#0e1636"/><rect x="45" y="55" width="1" height="1" fill="#0e1636"/><rect x="51" y="55" width="1" height="1" fill="#0e1636"/><rect x="53" y="55" width="1" height="1" fill="#0e1636"/><rect x="55" y="55" width="1" height="1" fill="#0e1636"/><rect x="60" y="55" width="1" height="1" fill="#ffbe3c"/></svg>