<svg xmlns="http://www.w3.org/2000/svg" viewBox="0 0 84 58" width="336" height="232" shape-rendering="crispEdges"><rect x="63" y="1" width="1" height="1" fill="#ffbe3c"/><rect x="68" y="1" width="1" height="1" fill="#f8801c"/><rect x="72" y="1" width="1" height="1" fill="#ffbe3c"/><rect x="80" y="1" width="1" height="1" fill="#c64610"/><rect x="60" y="2" width="1" height="1" fill="#f8801c"/><rect x="65" y="2" width="1" height="1" fill="#ffbe3c"/><rect x="66" y="2" width="1" height="1" fill="#f8801c"/><rect x="77" y="2" width="1" height="1" fill="#c64610"/><rect x="62" y="3" width="1" height="1" fill="#f8801c"/><rect x="64" y="3" width="1" height="1" fill="#ffbe3c"/><rect x="67" y="3" width="1" height="1" fill="#f8801c"/><rect x="69" y="3" width="1" height="1" fill="#f8801c"/><rect x="71" y="3" width="1" height="1" fill="#c64610"/><rect x="82" y="3" width="1" height="1" fill="#c64610"/><rect x="59" y="4" width="1" height="1" fill="#f8801c"/><rect x="61" y="4" width="7" height="1" fill="#f8801c"/><rect x="68" y="4" width="1" height="1" fill="#c64610"/><rect x="69" y="4" width="2" height="1" fill="#f8801c"/><rect x="74" y="4" width="1" height="1" fill="#842a0e"/><rect x="82" y="4" width="1" height="1" fill="#842a0e"/><rect x="55" y="5" width="1" height="1" fill="#ffbe3c"/><rect x="58" y="5" width="1" height="1" fill="#ffbe3c"/><rect x="60" y="5" width="2" height="1" fill="#f8801c"/><rect x="62" y="5" width="1" height="1" fill="#ffbe3c"/><rect x="63" y="5" width="1" height="1" fill="#f8801c"/><rect x="64" y="5" width="1" height="1" fill="#ffbe3c"/><rect x="65" y="5" width="1" height="1" fill="#c64610"/><rect x="66" y="5" width="3" height="1" fill="#f8801c"/><rect x="76" y="5" width="1" height="1" fill="#c64610"/><rect x="54" y="6" width="1" height="1" fill="#f8801c"/><rect x="56" y="6" width="1" height="1" fill="#f8801c"/><rect x="57" y="6" width="1" height="1" fill="#ffbe3c"/><rect x="58" y="6" width="3" height="1" fill="#f8801c"/><rect x="61" y="6" width="2" height="1" fill="#ffbe3c"/><rect x="63" y="6" width="1" height="1" fill="#f8801c"/><rect x="64" y="6" width="1" height="1" fill="#ffbe3c"/><rect x="65" y="6" width="1" height="1" fill="#f8801c"/><rect x="66" y="6" width="1" height="1" fill="#c64610"/><rect x="67" y="6" width="1" height="1" fill="#f8801c"/><rect x="68" y="6" width="1" height="1" fill="#c64610"/><rect x="69" y="6" width="1" height="1" fill="#ffbe3c"/><rect x="70" y="6" width="2" height="1" fill="#c64610"/><rect x="74" y="6" width="1" height="1" fill="#842a0e"/><rect x="79" y="6" width="1" height="1" fill="#c64610"/><rect x="55" y="7" width="5" height="1" fill="#ffbe3c"/><rect x="60" y="7" width="1" height="1" fill="#ffe8c2"/><rect x="61" y="7" width="3" height="1" fill="#ffbe3c"/><rect x="64" y="7" width="1" height="1" fill="#ffe8c2"/><rect x="65" y="7" width="1" height="1" fill="#ffbe3c"/><rect x="66" y="7" width="1" height="1" fill="#f8801c"/><rect x="67" y="7" width="1" height="1" fill="#c64610"/><rect x="68" y="7" width="1" height="1" fill="#f8801c"/><rect x="70" y="7" width="1" height="1" fill="#c64610"/><rect x="52" y="8" width="2" height="1" fill="#ffbe3c"/><rect x="54" y="8" width="1" height="1" fill="#f8801c"/><rect x="55" y="8" width="5" height="1" fill="#ffbe3c"/><rect x="60" y="8" width="1" height="1" fill="#f8801c"/><rect x="61" y="8" width="2" height="1" fill="#ffbe3c"/><rect x="63" y="8" width="1" height="1" fill="#ffe8c2"/><rect x="64" y="8" width="1" height="1" fill="#f8801c"/><rect x="65" y="8" width="1" height="1" fill="#6d82b4"/><rect x="66" y="8" width="5" height="1" fill="#c64610"/><rect x="72" y="8" width="1" height="1" fill="#842a0e"/><rect x="73" y="8" width="1" height="1" fill="#c64610"/><rect x="76" y="8" width="1" height="1" fill="#842a0e"/><rect x="51" y="9" width="4" height="1" fill="#ffbe3c"/><rect x="55" y="9" width="2" height="1" fill="#ffe8c2"/><rect x="57" y="9" width="1" height="1" fill="#f8801c"/><rect x="58" y="9" width="1" height="1" fill="#ffbe3c"/><rect x="59" y="9" width="2" height="1" fill="#f8801c"/><rect x="61" y="9" width="3" height="1" fill="#ffbe3c"/><rect x="64" y="9" width="1" height="1" fill="#f8801c"/><rect x="65" y="9" width="3" height="1" fill="#c64610"/><rect x="69" y="9" width="1" height="1" fill="#c64610"/><rect x="72" y="9" width="1" height="1" fill="#c64610"/><rect x="52" y="10" width="1" height="1" fill="#f8801c"/><rect x="53" y="10" width="3" height="1" fill="#ffbe3c"/><rect x="56" y="10" width="6" height="1" fill="#f8801c"/><rect x="62" y="10" width="1" height="1" fill="#c64610"/><rect x="63" y="10" width="1" height="1" fill="#f8801c"/><rect x="65" y="10" width="1" height="1" fill="#c64610"/><rect x="66" y="10" width="1" height="1" fill="#842a0e"/><rect x="51" y="11" width="4" height="1" fill="#ffbe3c"/><rect x="55" y="11" width="1" height="1" fill="#f8801c"/><rect x="56" y="11" width="1" height="1" fill="#ffbe3c"/><rect x="57" y="11" width="1" height="1" fill="#f8801c"/><rect x="58" y="11" width="1" height="1" fill="#ffe8c2"/><rect x="59" y="11" width="1" height="1" fill="#c64610"/><rect x="60" y="11" width="1" height="1" fill="#ffbe3c"/><rect x="61" y="11" width="1" height="1" fill="#c64610"/><rect x="62" y="11" width="1" height="1" fill="#f8801c"/><rect x="63" y="11" width="1" height="1" fill="#c64610"/><rect x="64" y="11" width="1" height="1" fill="#f8801c"/><rect x="69" y="11" width="1" height="1" fill="#c64610"/><rect x="19" y="12" width="1" height="1" fill="#f8801c"/><rect x="51" y="12" width="3" height="1" fill="#ffbe3c"/><rect x="54" y="12" width="2" height="1" fill="#f8801c"/><rect x="56" y="12" width="1" height="1" fill="#c64610"/><rect x="57" y="12" width="1" height="1" fill="#ffbe3c"/><rect x="58" y="12" width="2" height="1" fill="#c64610"/><rect x="60" y="12" width="1" height="1" fill="#842a0e"/><rect x="62" y="12" width="1" height="1" fill="#c64610"/><rect x="65" y="12" width="1" height="1" fill="#c64610"/><rect x="66" y="12" width="1" height="1" fill="#842a0e"/><rect x="1" y="13" width="1" height="1" fill="#842a0e"/><rect x="27" y="13" width="1" height="1" fill="#c64610"/><rect x="51" y="13" width="2" height="1" fill="#ffbe3c"/><rect x="53" y="13" width="1" height="1" fill="#f8801c"/><rect x="54" y="13" width="1" height="1" fill="#ffbe3c"/><rect x="55" y="13" width="1" height="1" fill="#f8801c"/><rect x="56" y="13" width="1" height="1" fill="#ffbe3c"/><rect x="57" y="13" width="1" height="1" fill="#f8801c"/><rect x="58" y="13" width="1" height="1" fill="#c64610"/><rect x="1" y="14" width="1" height="1" fill="#c64610"/><rect x="51" y="14" width="3" height="1" fill="#ffbe3c"/><rect x="54" y="14" width="4" height="1" fill="#f8801c"/><rect x="41" y="15" width="1" height="1" fill="#ffbe3c"/><rect x="51" y="15" width="1" height="1" fill="#445c93"/><rect x="52" y="15" width="3" height="1" fill="#f8801c"/><rect x="55" y="15" width="1" height="1" fill="#c64610"/><rect x="56" y="15" width="1" height="1" fill="#f8801c"/><rect x="57" y="15" width="1" height="1" fill="#2c447f"/><rect x="31" y="16" width="1" height="1" fill="#c64610"/><rect x="32" y="16" width="1" height="1" fill="#842a0e"/><rect x="51" y="16" width="1" height="1" fill="#445c93"/><rect x="52" y="16" width="2" height="1" fill="#6d82b4"/><rect x="54" y="16" width="2" height="1" fill="#445c93"/><rect x="56" y="16" width="2" height="1" fill="#1c2c5c"/><rect x="51" y="17" width="2" height="1" fill="#445c93"/><rect x="53" y="17" width="1" height="1" fill="#2c447f"/><rect x="54" y="17" width="1" height="1" fill="#445c93"/><rect x="55" y="17" width="3" height="1" fill="#1c2c5c"/><rect x="51" y="18" width="1" height="1" fill="#445c93"/><rect x="52" y="18" width="2" height="1" fill="#6d82b4"/><rect x="54" y="18" width="1" height="1" fill="#445c93"/><rect x="55" y="18" width="1" height="1" fill="#2c447f"/><rect x="56" y="18" width="1" height="1" fill="#0e1636"/><rect x="57" y="18" width="1" height="1" fill="#1c2c5c"/><rect x="51" y="19" width="1" height="1" fill="#445c93"/><rect x="52" y="19" width="1" height="1" fill="#c5d3e8"/><rect x="53" y="19" width="2" height="1" fill="#6d82b4"/><rect x="55" y="19" width="1" height="1" fill="#2c447f"/><rect x="56" y="19" width="2" height="1" fill="#1c2c5c"/><rect x="51" y="20" width="1" height="1" fill="#445c93"/><rect x="52" y="20" width="2" height="1" fill="#6d82b4"/><rect x="54" y="20" width="1" height="1" fill="#445c93"/><rect x="55" y="20" width="1" height="1" fill="#2c447f"/><rect x="56" y="20" width="1" height="1" fill="#0e1636"/><rect x="57" y="20" width="1" height="1" fill="#1c2c5c"/><rect x="40" y="21" width="2" height="1" fill="#2c447f"/><rect x="42" y="21" width="2" height="1" fill="#445c93"/><rect x="44" y="21" width="1" height="1" fill="#6d82b4"/><rect x="45" y="21" width="1" height="1" fill="#445c93"/><rect x="46" y="21" width="1" height="1" fill="#6d82b4"/><rect x="47" y="21" width="5" height="1" fill="#445c93"/><rect x="52" y="21" width="1" height="1" fill="#6d82b4"/><rect x="53" y="21" width="2" height="1" fill="#445c93"/><rect x="55" y="21" width="3" height="1" fill="#1c2c5c"/><rect x="58" y="21" width="1" height="1" fill="#2c447f"/><rect x="36" y="22" width="1" height="1" fill="#2c447f"/><rect x="37" y="22" width="2" height="1" fill="#445c93"/><rect x="39" y="22" width="11" height="1" fill="#6d82b4"/><rect x="50" y="22" width="5" height="1" fill="#445c93"/><rect x="55" y="22" width="1" height="1" fill="#2c447f"/><rect x="56" y="22" width="1" height="1" fill="#1c2c5c"/><rect x="57" y="22" width="1" height="1" fill="#0e1636"/><rect x="58" y="22" width="2" height="1" fill="#1c2c5c"/><rect x="60" y="22" width="1" height="1" fill="#2c447f"/><rect x="61" y="22" width="1" height="1" fill="#445c93"/><rect x="62" y="22" width="1" height="1" fill="#2c447f"/><rect x="63" y="22" width="1" height="1" fill="#445c93"/><rect x="64" y="22" width="1" height="1" fill="#2c447f"/><rect x="65" y="22" width="1" height="1" fill="#445c93"/><rect x="66" y="22" width="1" height="1" fill="#2c447f"/><rect x="67" y="22" width="1" height="1" fill="#1c2c5c"/><rect x="35" y="23" width="1" height="1" fill="#445c93"/><rect x="36" y="23" width="7" height="1" fill="#6d82b4"/><rect x="43" y="23" width="1" height="1" fill="#445c93"/><rect x="44" y="23" width="3" height="1" fill="#6d82b4"/><rect x="47" y="23" width="1" height="1" fill="#445c93"/><rect x="48" y="23" width="5" height="1" fill="#6d82b4"/><rect x="53" y="23" width="1" height="1" fill="#445c93"/><rect x="54" y="23" width="1" height="1" fill="#6d82b4"/><rect x="55" y="23" width="1" height="1" fill="#445c93"/><rect x="56" y="23" width="7" height="1" fill="#6d82b4"/><rect x="63" y="23" width="4" height="1" fill="#445c93"/><rect x="67" y="23" width="1" height="1" fill="#2c447f"/><rect x="36" y="24" width="1" height="1" fill="#0e1636"/><rect x="37" y="24" width="2" height="1" fill="#1c2c5c"/><rect x="39" y="24" width="1" height="1" fill="#2c447f"/><rect x="40" y="24" width="1" height="1" fill="#1c2c5c"/><rect x="41" y="24" width="4" height="1" fill="#445c93"/><rect x="45" y="24" width="5" height="1" fill="#6d82b4"/><rect x="50" y="24" width="5" height="1" fill="#445c93"/><rect x="55" y="24" width="1" height="1" fill="#6d82b4"/><rect x="56" y="24" width="1" height="1" fill="#445c93"/><rect x="57" y="24" width="1" height="1" fill="#6d82b4"/><rect x="58" y="24" width="2" height="1" fill="#445c93"/><rect x="60" y="24" width="4" height="1" fill="#2c447f"/><rect x="64" y="24" width="2" height="1" fill="#1c2c5c"/><rect x="66" y="24" width="2" height="1" fill="#0e1636"/><rect x="36" y="25" width="1" height="1" fill="#445c93"/><rect x="37" y="25" width="2" height="1" fill="#6d82b4"/><rect x="39" y="25" width="2" height="1" fill="#445c93"/><rect x="41" y="25" width="2" height="1" fill="#2c447f"/><rect x="43" y="25" width="2" height="1" fill="#1c2c5c"/><rect x="45" y="25" width="2" height="1" fill="#0e1636"/><rect x="47" y="25" width="3" height="1" fill="#1c2c5c"/><rect x="50" y="25" width="1" height="1" fill="#2c447f"/><rect x="51" y="25" width="1" height="1" fill="#1c2c5c"/><rect x="52" y="25" width="1" height="1" fill="#445c93"/><rect x="53" y="25" width="1" height="1" fill="#2c447f"/><rect x="54" y="25" width="2" height="1" fill="#445c93"/><rect x="56" y="25" width="3" height="1" fill="#6d82b4"/><rect x="59" y="25" width="1" height="1" fill="#2c447f"/><rect x="60" y="25" width="3" height="1" fill="#1c2c5c"/><rect x="63" y="25" width="1" height="1" fill="#0e1636"/><rect x="64" y="25" width="1" height="1" fill="#1c2c5c"/><rect x="65" y="25" width="1" height="1" fill="#0e1636"/><rect x="66" y="25" width="1" height="1" fill="#1c2c5c"/><rect x="36" y="26" width="1" height="1" fill="#445c93"/><rect x="37" y="26" width="2" height="1" fill="#6d82b4"/><rect x="39" y="26" width="4" height="1" fill="#445c93"/><rect x="43" y="26" width="1" height="1" fill="#6d82b4"/><rect x="44" y="26" width="4" height="1" fill="#445c93"/><rect x="48" y="26" width="3" height="1" fill="#2c447f"/><rect x="51" y="26" width="1" height="1" fill="#1c2c5c"/><rect x="52" y="26" width="1" height="1" fill="#2c447f"/><rect x="53" y="26" width="1" height="1" fill="#445c93"/><rect x="54" y="26" width="2" height="1" fill="#2c447f"/><rect x="56" y="26" width="2" height="1" fill="#1c2c5c"/><rect x="58" y="26" width="3" height="1" fill="#0e1636"/><rect x="61" y="26" width="3" height="1" fill="#1c2c5c"/><rect x="64" y="26" width="3" height="1" fill="#2c447f"/><rect x="36" y="27" width="2" height="1" fill="#6d82b4"/><rect x="38" y="27" width="1" height="1" fill="#445c93"/><rect x="39" y="27" width="12" height="1" fill="#6d82b4"/><rect x="51" y="27" width="2" height="1" fill="#445c93"/><rect x="53" y="27" width="1" height="1" fill="#2c447f"/><rect x="54" y="27" width="4" height="1" fill="#6d82b4"/><rect x="58" y="27" width="1" height="1" fill="#445c93"/><rect x="59" y="27" width="1" height="1" fill="#1c2c5c"/><rect x="60" y="27" width="1" height="1" fill="#445c93"/><rect x="61" y="27" width="1" height="1" fill="#2c447f"/><rect x="62" y="27" width="1" height="1" fill="#445c93"/><rect x="63" y="27" width="3" height="1" fill="#2c447f"/><rect x="66" y="27" width="1" height="1" fill="#445c93"/><rect x="36" y="28" width="2" height="1" fill="#445c93"/><rect x="38" y="28" width="2" height="1" fill="#6d82b4"/><rect x="40" y="28" width="1" height="1" fill="#1c2c5c"/><rect x="41" y="28" width="7" height="1" fill="#0e1636"/><rect x="48" y="28" width="1" height="1" fill="#1c2c5c"/><rect x="49" y="28" width="1" height="1" fill="#2c447f"/><rect x="50" y="28" width="1" height="1" fill="#445c93"/><rect x="51" y="28" width="2" height="1" fill="#6d82b4"/><rect x="53" y="28" width="1" height="1" fill="#445c93"/><rect x="54" y="28" width="1" height="1" fill="#2c447f"/><rect x="55" y="28" width="1" height="1" fill="#445c93"/><rect x="56" y="28" width="2" height="1" fill="#6d82b4"/><rect x="58" y="28" width="1" height="1" fill="#2c447f"/><rect x="59" y="28" width="1" height="1" fill="#445c93"/><rect x="60" y="28" width="2" height="1" fill="#2c447f"/><rect x="62" y="28" width="3" height="1" fill="#1c2c5c"/><rect x="65" y="28" width="1" height="1" fill="#2c447f"/><rect x="66" y="28" width="1" height="1" fill="#1c2c5c"/><rect x="36" y="29" width="2" height="1" fill="#445c93"/><rect x="38" y="29" width="1" height="1" fill="#6d82b4"/><rect x="39" y="29" width="1" height="1" fill="#1c2c5c"/><rect x="40" y="29" width="3" height="1" fill="#6edc82"/><rect x="43" y="29" width="9" height="1" fill="#0e1636"/><rect x="52" y="29" width="1" height="1" fill="#445c93"/><rect x="53" y="29" width="2" height="1" fill="#6d82b4"/><rect x="55" y="29" width="1" height="1" fill="#2c447f"/><rect x="56" y="29" width="2" height="1" fill="#6d82b4"/><rect x="58" y="29" width="1" height="1" fill="#445c93"/><rect x="59" y="29" width="1" height="1" fill="#2c447f"/><rect x="60" y="29" width="1" height="1" fill="#445c93"/><rect x="61" y="29" width="1" height="1" fill="#1c2c5c"/><rect x="62" y="29" width="3" height="1" fill="#445c93"/><rect x="65" y="29" width="1" height="1" fill="#1c2c5c"/><rect x="66" y="29" width="1" height="1" fill="#2c447f"/><rect x="36" y="30" width="2" height="1" fill="#445c93"/><rect x="38" y="30" width="1" height="1" fill="#6d82b4"/><rect x="39" y="30" width="1" height="1" fill="#1c2c5c"/><rect x="40" y="30" width="13" height="1" fill="#0e1636"/><rect x="53" y="30" width="1" height="1" fill="#445c93"/><rect x="54" y="30" width="1" height="1" fill="#6d82b4"/><rect x="55" y="30" width="1" height="1" fill="#2c447f"/><rect x="56" y="30" width="1" height="1" fill="#1c2c5c"/><rect x="57" y="30" width="1" height="1" fill="#6d82b4"/><rect x="58" y="30" width="3" height="1" fill="#2c447f"/><rect x="61" y="30" width="1" height="1" fill="#445c93"/><rect x="62" y="30" width="1" height="1" fill="#2c447f"/><rect x="63" y="30" width="1" height="1" fill="#445c93"/><rect x="64" y="30" width="1" height="1" fill="#2c447f"/><rect x="65" y="30" width="1" height="1" fill="#445c93"/><rect x="66" y="30" width="1" height="1" fill="#1c2c5c"/><rect x="36" y="31" width="2" height="1" fill="#445c93"/><rect x="38" y="31" width="1" height="1" fill="#6d82b4"/><rect x="39" y="31" width="1" height="1" fill="#1c2c5c"/><rect x="40" y="31" width="11" height="1" fill="#6edc82"/><rect x="51" y="31" width="2" height="1" fill="#0e1636"/><rect x="53" y="31" width="1" height="1" fill="#445c93"/><rect x="54" y="31" width="1" height="1" fill="#6d82b4"/><rect x="55" y="31" width="4" height="1" fill="#445c93"/><rect x="59" y="31" width="1" height="1" fill="#1c2c5c"/><rect x="60" y="31" width="1" height="1" fill="#2c447f"/><rect x="61" y="31" width="2" height="1" fill="#445c93"/><rect x="63" y="31" width="1" height="1" fill="#2c447f"/><rect x="64" y="31" width="1" height="1" fill="#445c93"/><rect x="65" y="31" width="2" height="1" fill="#2c447f"/><rect x="36" y="32" width="1" height="1" fill="#445c93"/><rect x="37" y="32" width="1" height="1" fill="#2c447f"/><rect x="38" y="32" width="1" height="1" fill="#445c93"/><rect x="39" y="32" width="1" height="1" fill="#842a0e"/><rect x="40" y="32" width="13" height="1" fill="#0e1636"/><rect x="53" y="32" width="1" height="1" fill="#445c93"/><rect x="54" y="32" width="1" height="1" fill="#2c447f"/><rect x="55" y="32" width="1" height="1" fill="#445c93"/><rect x="56" y="32" width="1" height="1" fill="#2c447f"/><rect x="57" y="32" width="1" height="1" fill="#1c2c5c"/><rect x="58" y="32" width="2" height="1" fill="#2c447f"/><rect x="60" y="32" width="1" height="1" fill="#1c2c5c"/><rect x="61" y="32" width="1" height="1" fill="#445c93"/><rect x="62" y="32" width="4" height="1" fill="#2c447f"/><rect x="66" y="32" width="1" height="1" fill="#1c2c5c"/><rect x="35" y="33" width="1" height="1" fill="#2c447f"/><rect x="36" y="33" width="2" height="1" fill="#1c2c5c"/><rect x="38" y="33" width="1" height="1" fill="#2c447f"/><rect x="39" y="33" width="1" height="1" fill="#842a0e"/><rect x="40" y="33" width="2" height="1" fill="#0e1636"/><rect x="42" y="33" width="5" height="1" fill="#6edc82"/><rect x="47" y="33" width="6" height="1" fill="#0e1636"/><rect x="53" y="33" width="1" height="1" fill="#445c93"/><rect x="54" y="33" width="1" height="1" fill="#6d82b4"/><rect x="55" y="33" width="3" height="1" fill="#1c2c5c"/><rect x="58" y="33" width="1" height="1" fill="#445c93"/><rect x="59" y="33" width="1" height="1" fill="#1c2c5c"/><rect x="60" y="33" width="1" height="1" fill="#2c447f"/><rect x="61" y="33" width="1" height="1" fill="#445c93"/><rect x="62" y="33" width="1" height="1" fill="#2c447f"/><rect x="63" y="33" width="1" height="1" fill="#1c2c5c"/><rect x="64" y="33" width="1" height="1" fill="#445c93"/><rect x="65" y="33" width="2" height="1" fill="#2c447f"/><rect x="35" y="34" width="1" height="1" fill="#445c93"/><rect x="36" y="34" width="1" height="1" fill="#2c447f"/><rect x="37" y="34" width="2" height="1" fill="#1c2c5c"/><rect x="39" y="34" width="1" height="1" fill="#842a0e"/><rect x="40" y="34" width="13" height="1" fill="#0e1636"/><rect x="53" y="34" width="1" height="1" fill="#445c93"/><rect x="54" y="34" width="1" height="1" fill="#6d82b4"/><rect x="55" y="34" width="1" height="1" fill="#2c447f"/><rect x="56" y="34" width="1" height="1" fill="#1c2c5c"/><rect x="57" y="34" width="1" height="1" fill="#6d82b4"/><rect x="58" y="34" width="3" height="1" fill="#2c447f"/><rect x="61" y="34" width="1" height="1" fill="#445c93"/><rect x="62" y="34" width="2" height="1" fill="#2c447f"/><rect x="64" y="34" width="1" height="1" fill="#1c2c5c"/><rect x="65" y="34" width="1" height="1" fill="#445c93"/><rect x="66" y="34" width="1" height="1" fill="#1c2c5c"/><rect x="36" y="35" width="2" height="1" fill="#2c447f"/><rect x="38" y="35" width="1" height="1" fill="#445c93"/><rect x="39" y="35" width="1" height="1" fill="#842a0e"/><rect x="40" y="35" width="1" height="1" fill="#0e1636"/><rect x="41" y="35" width="5" height="1" fill="#6edc82"/><rect x="46" y="35" width="2" height="1" fill="#0e1636"/><rect x="48" y="35" width="4" height="1" fill="#6edc82"/><rect x="52" y="35" width="1" height="1" fill="#0e1636"/><rect x="53" y="35" width="1" height="1" fill="#445c93"/><rect x="54" y="35" width="1" height="1" fill="#6d82b4"/><rect x="55" y="35" width="1" height="1" fill="#2c447f"/><rect x="56" y="35" width="1" height="1" fill="#1c2c5c"/><rect x="57" y="35" width="1" height="1" fill="#6d82b4"/><rect x="58" y="35" width="1" height="1" fill="#445c93"/><rect x="59" y="35" width="1" height="1" fill="#1c2c5c"/><rect x="60" y="35" width="2" height="1" fill="#445c93"/><rect x="62" y="35" width="1" height="1" fill="#2c447f"/><rect x="63" y="35" width="1" height="1" fill="#1c2c5c"/><rect x="64" y="35" width="1" height="1" fill="#445c93"/><rect x="65" y="35" width="2" height="1" fill="#2c447f"/><rect x="36" y="36" width="1" height="1" fill="#2c447f"/><rect x="37" y="36" width="1" height="1" fill="#445c93"/><rect x="38" y="36" width="1" height="1" fill="#6d82b4"/><rect x="39" y="36" width="1" height="1" fill="#2c447f"/><rect x="40" y="36" width="2" height="1" fill="#6edc82"/><rect x="42" y="36" width="11" height="1" fill="#0e1636"/><rect x="53" y="36" width="1" height="1" fill="#445c93"/><rect x="54" y="36" width="1" height="1" fill="#6d82b4"/><rect x="55" y="36" width="1" height="1" fill="#2c447f"/><rect x="56" y="36" width="1" height="1" fill="#1c2c5c"/><rect x="57" y="36" width="1" height="1" fill="#6d82b4"/><rect x="58" y="36" width="2" height="1" fill="#2c447f"/><rect x="60" y="36" width="1" height="1" fill="#1c2c5c"/><rect x="61" y="36" width="1" height="1" fill="#445c93"/><rect x="62" y="36" width="1" height="1" fill="#1c2c5c"/><rect x="63" y="36" width="2" height="1" fill="#2c447f"/><rect x="65" y="36" width="1" height="1" fill="#445c93"/><rect x="66" y="36" width="1" height="1" fill="#1c2c5c"/><rect x="36" y="37" width="2" height="1" fill="#445c93"/><rect x="38" y="37" width="1" height="1" fill="#6d82b4"/><rect x="39" y="37" width="1" height="1" fill="#842a0e"/><rect x="40" y="37" width="1" height="1" fill="#1c2c5c"/><rect x="41" y="37" width="12" height="1" fill="#0e1636"/><rect x="53" y="37" width="1" height="1" fill="#2c447f"/><rect x="54" y="37" width="1" height="1" fill="#6d82b4"/><rect x="55" y="37" width="1" height="1" fill="#1c2c5c"/><rect x="56" y="37" width="1" height="1" fill="#2c447f"/><rect x="57" y="37" width="2" height="1" fill="#445c93"/><rect x="59" y="37" width="1" height="1" fill="#1c2c5c"/><rect x="60" y="37" width="1" height="1" fill="#2c447f"/><rect x="61" y="37" width="4" height="1" fill="#445c93"/><rect x="65" y="37" width="2" height="1" fill="#2c447f"/><rect x="36" y="38" width="2" height="1" fill="#445c93"/><rect x="38" y="38" width="2" height="1" fill="#6d82b4"/><rect x="40" y="38" width="3" height="1" fill="#ffbe3c"/><rect x="43" y="38" width="1" height="1" fill="#f8801c"/><rect x="44" y="38" width="2" height="1" fill="#c64610"/><rect x="46" y="38" width="3" height="1" fill="#842a0e"/><rect x="49" y="38" width="4" height="1" fill="#0e1636"/><rect x="53" y="38" width="2" height="1" fill="#445c93"/><rect x="55" y="38" width="1" height="1" fill="#6d82b4"/><rect x="56" y="38" width="2" height="1" fill="#1c2c5c"/><rect x="58" y="38" width="2" height="1" fill="#2c447f"/><rect x="60" y="38" width="1" height="1" fill="#1c2c5c"/><rect x="61" y="38" width="1" height="1" fill="#445c93"/><rect x="62" y="38" width="1" height="1" fill="#2c447f"/><rect x="63" y="38" width="1" height="1" fill="#445c93"/><rect x="64" y="38" width="1" height="1" fill="#1c2c5c"/><rect x="65" y="38" width="1" height="1" fill="#445c93"/><rect x="66" y="38" width="1" height="1" fill="#1c2c5c"/><rect x="36" y="39" width="4" height="1" fill="#445c93"/><rect x="40" y="39" width="8" height="1" fill="#6d82b4"/><rect x="48" y="39" width="3" height="1" fill="#ffbe3c"/><rect x="51" y="39" width="2" height="1" fill="#f8801c"/><rect x="53" y="39" width="2" height="1" fill="#445c93"/><rect x="55" y="39" width="1" height="1" fill="#1c2c5c"/><rect x="56" y="39" width="1" height="1" fill="#445c93"/><rect x="57" y="39" width="1" height="1" fill="#1c2c5c"/><rect x="58" y="39" width="1" height="1" fill="#445c93"/><rect x="59" y="39" width="4" height="1" fill="#2c447f"/><rect x="63" y="39" width="1" height="1" fill="#1c2c5c"/><rect x="64" y="39" width="1" height="1" fill="#2c447f"/><rect x="65" y="39" width="1" height="1" fill="#1c2c5c"/><rect x="66" y="39" width="1" height="1" fill="#445c93"/><rect x="36" y="40" width="1" height="1" fill="#1c2c5c"/><rect x="37" y="40" width="1" height="1" fill="#445c93"/><rect x="38" y="40" width="2" height="1" fill="#2c447f"/><rect x="40" y="40" width="5" height="1" fill="#1c2c5c"/><rect x="45" y="40" width="2" height="1" fill="#2c447f"/><rect x="47" y="40" width="2" height="1" fill="#445c93"/><rect x="49" y="40" width="6" height="1" fill="#6d82b4"/><rect x="55" y="40" width="1" height="1" fill="#1c2c5c"/><rect x="56" y="40" width="1" height="1" fill="#0e1636"/><rect x="57" y="40" width="1" height="1" fill="#445c93"/><rect x="58" y="40" width="4" height="1" fill="#2c447f"/><rect x="62" y="40" width="1" height="1" fill="#1c2c5c"/><rect x="63" y="40" width="3" height="1" fill="#2c447f"/><rect x="66" y="40" width="2" height="1" fill="#1c2c5c"/><rect x="35" y="41" width="1" height="1" fill="#445c93"/><rect x="36" y="41" width="1" height="1" fill="#6d82b4"/><rect x="37" y="41" width="1" height="1" fill="#445c93"/><rect x="38" y="41" width="7" height="1" fill="#6d82b4"/><rect x="45" y="41" width="2" height="1" fill="#445c93"/><rect x="47" y="41" width="1" height="1" fill="#2c447f"/><rect x="48" y="41" width="1" height="1" fill="#1c2c5c"/><rect x="49" y="41" width="1" height="1" fill="#0e1636"/><rect x="50" y="41" width="4" height="1" fill="#1c2c5c"/><rect x="54" y="41" width="1" height="1" fill="#2c447f"/><rect x="55" y="41" width="1" height="1" fill="#1c2c5c"/><rect x="56" y="41" width="1" height="1" fill="#445c93"/><rect x="57" y="41" width="1" height="1" fill="#6d82b4"/><rect x="58" y="41" width="1" height="1" fill="#445c93"/><rect x="59" y="41" width="3" height="1" fill="#2c447f"/><rect x="62" y="41" width="1" height="1" fill="#445c93"/><rect x="63" y="41" width="2" height="1" fill="#2c447f"/><rect x="65" y="41" width="1" height="1" fill="#1c2c5c"/><rect x="66" y="41" width="1" height="1" fill="#2c447f"/><rect x="67" y="41" width="1" height="1" fill="#445c93"/><rect x="35" y="42" width="3" height="1" fill="#1c2c5c"/><rect x="38" y="42" width="1" height="1" fill="#2c447f"/><rect x="39" y="42" width="1" height="1" fill="#445c93"/><rect x="40" y="42" width="7" height="1" fill="#6d82b4"/><rect x="47" y="42" width="2" height="1" fill="#ffbe3c"/><rect x="49" y="42" width="5" height="1" fill="#6d82b4"/><rect x="54" y="42" width="1" height="1" fill="#445c93"/><rect x="55" y="42" width="1" height="1" fill="#1c2c5c"/><rect x="56" y="42" width="1" height="1" fill="#445c93"/><rect x="57" y="42" width="1" height="1" fill="#6d82b4"/><rect x="58" y="42" width="2" height="1" fill="#2c447f"/><rect x="60" y="42" width="3" height="1" fill="#1c2c5c"/><rect x="63" y="42" width="1" height="1" fill="#445c93"/><rect x="64" y="42" width="2" height="1" fill="#2c447f"/><rect x="66" y="42" width="2" height="1" fill="#1c2c5c"/><rect x="35" y="43" width="1" height="1" fill="#1c2c5c"/><rect x="36" y="43" width="1" height="1" fill="#6d82b4"/><rect x="37" y="43" width="1" height="1" fill="#1c2c5c"/><rect x="38" y="43" width="2" height="1" fill="#6d82b4"/><rect x="40" y="43" width="1" height="1" fill="#445c93"/><rect x="41" y="43" width="3" height="1" fill="#6d82b4"/><rect x="44" y="43" width="3" height="1" fill="#445c93"/><rect x="47" y="43" width="4" height="1" fill="#6d82b4"/><rect x="51" y="43" width="2" height="1" fill="#445c93"/><rect x="53" y="43" width="3" height="1" fill="#1c2c5c"/><rect x="56" y="43" width="2" height="1" fill="#445c93"/><rect x="58" y="43" width="1" height="1" fill="#2c447f"/><rect x="59" y="43" width="1" height="1" fill="#1c2c5c"/><rect x="60" y="43" width="2" height="1" fill="#445c93"/><rect x="62" y="43" width="1" height="1" fill="#2c447f"/><rect x="63" y="43" width="2" height="1" fill="#1c2c5c"/><rect x="65" y="43" width="1" height="1" fill="#0e1636"/><rect x="66" y="43" width="2" height="1" fill="#1c2c5c"/><rect x="36" y="44" width="1" height="1" fill="#6d82b4"/><rect x="37" y="44" width="2" height="1" fill="#445c93"/><rect x="39" y="44" width="1" height="1" fill="#6d82b4"/><rect x="40" y="44" width="1" height="1" fill="#445c93"/><rect x="41" y="44" width="3" height="1" fill="#6d82b4"/><rect x="44" y="44" width="2" height="1" fill="#445c93"/><rect x="46" y="44" width="1" height="1" fill="#2c447f"/><rect x="47" y="44" width="5" height="1" fill="#6d82b4"/><rect x="52" y="44" width="1" height="1" fill="#445c93"/><rect x="53" y="44" width="1" height="1" fill="#1c2c5c"/><rect x="54" y="44" width="1" height="1" fill="#0e1636"/><rect x="55" y="44" width="1" height="1" fill="#2c447f"/><rect x="56" y="44" width="1" height="1" fill="#445c93"/><rect x="57" y="44" width="1" height="1" fill="#6d82b4"/><rect x="58" y="44" width="1" height="1" fill="#445c93"/><rect x="59" y="44" width="1" height="1" fill="#2c447f"/><rect x="60" y="44" width="2" height="1" fill="#1c2c5c"/><rect x="64" y="44" width="2" height="1" fill="#0e1636"/><rect x="66" y="44" width="1" height="1" fill="#2c447f"/><rect x="67" y="44" width="1" height="1" fill="#1c2c5c"/><rect x="32" y="45" width="2" height="1" fill="#f8801c"/><rect x="34" y="45" width="1" height="1" fill="#ffbe3c"/><rect x="35" y="45" width="1" height="1" fill="#445c93"/><rect x="36" y="45" width="1" height="1" fill="#6d82b4"/><rect x="37" y="45" width="1" height="1" fill="#1c2c5c"/><rect x="38" y="45" width="1" height="1" fill="#6d82b4"/><rect x="39" y="45" width="2" height="1" fill="#2c447f"/><rect x="41" y="45" width="1" height="1" fill="#445c93"/><rect x="42" y="45" width="2" height="1" fill="#6d82b4"/><rect x="44" y="45" width="2" height="1" fill="#445c93"/><rect x="46" y="45" width="1" height="1" fill="#2c447f"/><rect x="47" y="45" width="6" height="1" fill="#6d82b4"/><rect x="53" y="45" width="2" height="1" fill="#1c2c5c"/><rect x="55" y="45" width="1" height="1" fill="#0e1636"/><rect x="56" y="45" width="2" height="1" fill="#1c2c5c"/><rect x="58" y="45" width="2" height="1" fill="#0e1636"/><rect x="65" y="45" width="1" height="1" fill="#0e1636"/><rect x="66" y="45" width="1" height="1" fill="#2c447f"/><rect x="67" y="45" width="1" height="1" fill="#1c2c5c"/><rect x="22" y="46" width="9" height="1" fill="#f8801c"/><rect x="31" y="46" width="3" height="1" fill="#ffbe3c"/><rect x="34" y="46" width="1" height="1" fill="#f8801c"/><rect x="35" y="46" width="2" height="1" fill="#445c93"/><rect x="37" y="46" width="1" height="1" fill="#1c2c5c"/><rect x="38" y="46" width="4" height="1" fill="#f8801c"/><rect x="42" y="46" width="2" height="1" fill="#c64610"/><rect x="44" y="46" width="2" height="1" fill="#842a0e"/><rect x="46" y="46" width="1" height="1" fill="#2c447f"/><rect x="47" y="46" width="2" height="1" fill="#445c93"/><rect x="49" y="46" width="2" height="1" fill="#6d82b4"/><rect x="51" y="46" width="1" height="1" fill="#445c93"/><rect x="52" y="46" width="1" height="1" fill="#2c447f"/><rect x="53" y="46" width="3" height="1" fill="#1c2c5c"/><rect x="56" y="46" width="1" height="1" fill="#445c93"/><rect x="57" y="46" width="1" height="1" fill="#6d82b4"/><rect x="58" y="46" width="2" height="1" fill="#1c2c5c"/><rect x="60" y="46" width="1" height="1" fill="#842a0e"/><rect x="61" y="46" width="1" height="1" fill="#c64610"/><rect x="65" y="46" width="1" height="1" fill="#0e1636"/><rect x="66" y="46" width="2" height="1" fill="#1c2c5c"/><rect x="18" y="47" width="2" height="1" fill="#c64610"/><rect x="21" y="47" width="4" height="1" fill="#f8801c"/><rect x="25" y="47" width="2" height="1" fill="#ffbe3c"/><rect x="27" y="47" width="3" height="1" fill="#f8801c"/><rect x="30" y="47" width="1" height="1" fill="#ffbe3c"/><rect x="31" y="47" width="4" height="1" fill="#f8801c"/><rect x="35" y="47" width="1" height="1" fill="#6d82b4"/><rect x="36" y="47" width="1" height="1" fill="#2c447f"/><rect x="37" y="47" width="1" height="1" fill="#c64610"/><rect x="38" y="47" width="1" height="1" fill="#ffbe3c"/><rect x="39" y="47" width="1" height="1" fill="#f8801c"/><rect x="40" y="47" width="9" height="1" fill="#ffbe3c"/><rect x="49" y="47" width="2" height="1" fill="#f8801c"/><rect x="51" y="47" width="1" height="1" fill="#842a0e"/><rect x="52" y="47" width="1" height="1" fill="#c64610"/><rect x="53" y="47" width="1" height="1" fill="#842a0e"/><rect x="54" y="47" width="1" height="1" fill="#f8801c"/><rect x="55" y="47" width="1" height="1" fill="#c64610"/><rect x="56" y="47" width="2" height="1" fill="#6d82b4"/><rect x="58" y="47" width="1" height="1" fill="#445c93"/><rect x="59" y="47" width="1" height="1" fill="#1c2c5c"/><rect x="60" y="47" width="1" height="1" fill="#f8801c"/><rect x="61" y="47" width="1" height="1" fill="#c64610"/><rect x="62" y="47" width="1" height="1" fill="#ffbe3c"/><rect x="63" y="47" width="1" height="1" fill="#c64610"/><rect x="66" y="47" width="1" height="1" fill="#0e1636"/><rect x="67" y="47" width="1" height="1" fill="#445c93"/><rect x="16" y="48" width="1" height="1" fill="#842a0e"/><rect x="17" y="48" width="2" height="1" fill="#c64610"/><rect x="19" y="48" width="1" height="1" fill="#f8801c"/><rect x="20" y="48" width="1" height="1" fill="#c64610"/><rect x="21" y="48" width="3" height="1" fill="#f8801c"/><rect x="24" y="48" width="1" height="1" fill="#c64610"/><rect x="25" y="48" width="6" height="1" fill="#f8801c"/><rect x="31" y="48" width="1" height="1" fill="#ffbe3c"/><rect x="32" y="48" width="1" height="1" fill="#f8801c"/><rect x="33" y="48" width="3" height="1" fill="#ffbe3c"/><rect x="36" y="48" width="1" height="1" fill="#f8801c"/><rect x="37" y="48" width="4" height="1" fill="#ffbe3c"/><rect x="41" y="48" width="1" height="1" fill="#ffe8c2"/><rect x="42" y="48" width="1" height="1" fill="#ffbe3c"/><rect x="43" y="48" width="1" height="1" fill="#ffe8c2"/><rect x="44" y="48" width="8" height="1" fill="#ffbe3c"/><rect x="52" y="48" width="1" height="1" fill="#f8801c"/><rect x="53" y="48" width="1" height="1" fill="#ffbe3c"/><rect x="54" y="48" width="2" height="1" fill="#f8801c"/><rect x="56" y="48" width="1" height="1" fill="#445c93"/><rect x="57" y="48" width="1" height="1" fill="#6d82b4"/><rect x="58" y="48" width="1" height="1" fill="#1c2c5c"/><rect x="59" y="48" width="1" height="1" fill="#842a0e"/><rect x="60" y="48" width="1" height="1" fill="#c64610"/><rect x="61" y="48" width="1" height="1" fill="#f8801c"/><rect x="62" y="48" width="3" height="1" fill="#c64610"/><rect x="67" y="48" width="1" height="1" fill="#1c2c5c"/><rect x="12" y="49" width="6" height="1" fill="#c64610"/><rect x="18" y="49" width="1" height="1" fill="#ffbe3c"/><rect x="19" y="49" width="2" height="1" fill="#f8801c"/><rect x="21" y="49" width="1" height="1" fill="#c64610"/><rect x="22" y="49" width="1" height="1" fill="#f8801c"/><rect x="23" y="49" width="1" height="1" fill="#c64610"/><rect x="24" y="49" width="4" height="1" fill="#f8801c"/><rect x="28" y="49" width="6" height="1" fill="#ffbe3c"/><rect x="34" y="49" width="1" height="1" fill="#ffe8c2"/><rect x="35" y="49" width="1" height="1" fill="#ffbe3c"/><rect x="36" y="49" width="1" height="1" fill="#ffe8c2"/><rect x="37" y="49" width="3" height="1" fill="#ffbe3c"/><rect x="40" y="49" width="1" height="1" fill="#ffe8c2"/><rect x="41" y="49" width="1" height="1" fill="#ffbe3c"/><rect x="42" y="49" width="1" height="1" fill="#ffe8c2"/><rect x="43" y="49" width="1" height="1" fill="#ffbe3c"/><rect x="44" y="49" width="1" height="1" fill="#ffe8c2"/><rect x="45" y="49" width="1" height="1" fill="#ffbe3c"/><rect x="46" y="49" width="1" height="1" fill="#ffe8c2"/><rect x="47" y="49" width="1" height="1" fill="#ffbe3c"/><rect x="48" y="49" width="1" height="1" fill="#ffe8c2"/><rect x="49" y="49" width="6" height="1" fill="#ffbe3c"/><rect x="55" y="49" width="1" height="1" fill="#f8801c"/><rect x="56" y="49" width="1" height="1" fill="#c64610"/><rect x="57" y="49" width="1" height="1" fill="#6d82b4"/><rect x="58" y="49" width="1" height="1" fill="#2c447f"/><rect x="59" y="49" width="1" height="1" fill="#842a0e"/><rect x="60" y="49" width="2" height="1" fill="#f8801c"/><rect x="62" y="49" width="1" height="1" fill="#ffbe3c"/><rect x="63" y="49" width="1" height="1" fill="#f8801c"/><rect x="64" y="49" width="2" height="1" fill="#c64610"/><rect x="11" y="50" width="1" height="1" fill="#c64610"/><rect x="13" y="50" width="2" height="1" fill="#c64610"/><rect x="15" y="50" width="1" height="1" fill="#ffbe3c"/><rect x="16" y="50" width="1" height="1" fill="#c64610"/><rect x="17" y="50" width="1" height="1" fill="#f8801c"/><rect x="18" y="50" width="3" height="1" fill="#c64610"/><rect x="21" y="50" width="1" height="1" fill="#f8801c"/><rect x="22" y="50" width="1" height="1" fill="#c64610"/><rect x="23" y="50" width="1" height="1" fill="#f8801c"/><rect x="24" y="50" width="1" height="1" fill="#c64610"/><rect x="25" y="50" width="1" height="1" fill="#f8801c"/><rect x="26" y="50" width="1" height="1" fill="#c64610"/><rect x="27" y="50" width="2" height="1" fill="#f8801c"/><rect x="29" y="50" width="1" height="1" fill="#ffbe3c"/><rect x="30" y="50" width="1" height="1" fill="#f8801c"/><rect x="31" y="50" width="12" height="1" fill="#ffbe3c"/><rect x="43" y="50" width="1" height="1" fill="#ffe8c2"/><rect x="44" y="50" width="1" height="1" fill="#ffbe3c"/><rect x="45" y="50" width="1" height="1" fill="#ffe8c2"/><rect x="46" y="50" width="8" height="1" fill="#ffbe3c"/><rect x="54" y="50" width="2" height="1" fill="#f8801c"/><rect x="56" y="50" width="1" height="1" fill="#c64610"/><rect x="57" y="50" width="1" height="1" fill="#6d82b4"/><rect x="58" y="50" width="1" height="1" fill="#445c93"/><rect x="59" y="50" width="1" height="1" fill="#1c2c5c"/><rect x="60" y="50" width="1" height="1" fill="#c64610"/><rect x="61" y="50" width="1" height="1" fill="#f8801c"/><rect x="62" y="50" width="2" height="1" fill="#c64610"/><rect x="65" y="50" width="1" height="1" fill="#c64610"/><rect x="9" y="51" width="3" height="1" fill="#c64610"/><rect x="12" y="51" width="1" height="1" fill="#f8801c"/><rect x="13" y="51" width="1" height="1" fill="#c64610"/><rect x="14" y="51" width="1" height="1" fill="#ffbe3c"/><rect x="15" y="51" width="2" height="1" fill="#f8801c"/><rect x="17" y="51" width="5" height="1" fill="#c64610"/><rect x="22" y="51" width="1" height="1" fill="#f8801c"/><rect x="23" y="51" width="1" height="1" fill="#c64610"/><rect x="24" y="51" width="4" height="1" fill="#f8801c"/><rect x="28" y="51" width="1" height="1" fill="#ffbe3c"/><rect x="29" y="51" width="3" height="1" fill="#f8801c"/><rect x="32" y="51" width="1" height="1" fill="#ffbe3c"/><rect x="33" y="51" width="1" height="1" fill="#f8801c"/><rect x="34" y="51" width="19" height="1" fill="#ffbe3c"/><rect x="53" y="51" width="4" height="1" fill="#f8801c"/><rect x="57" y="51" width="1" height="1" fill="#c64610"/><rect x="58" y="51" width="1" height="1" fill="#445c93"/><rect x="59" y="51" width="1" height="1" fill="#c64610"/><rect x="60" y="51" width="2" height="1" fill="#ffbe3c"/><rect x="62" y="51" width="1" height="1" fill="#f8801c"/><rect x="63" y="51" width="1" height="1" fill="#c64610"/><rect x="64" y="51" width="1" height="1" fill="#f8801c"/><rect x="10" y="52" width="1" height="1" fill="#842a0e"/><rect x="11" y="52" width="4" height="1" fill="#c64610"/><rect x="15" y="52" width="1" height="1" fill="#ffbe3c"/><rect x="16" y="52" width="1" height="1" fill="#f8801c"/><rect x="17" y="52" width="2" height="1" fill="#c64610"/><rect x="19" y="52" width="1" height="1" fill="#f8801c"/><rect x="20" y="52" width="7" height="1" fill="#c64610"/><rect x="27" y="52" width="1" height="1" fill="#f8801c"/><rect x="28" y="52" width="1" height="1" fill="#c64610"/><rect x="29" y="52" width="10" height="1" fill="#f8801c"/><rect x="39" y="52" width="1" height="1" fill="#ffbe3c"/><rect x="40" y="52" width="1" height="1" fill="#f8801c"/><rect x="41" y="52" width="5" height="1" fill="#ffbe3c"/><rect x="46" y="52" width="1" height="1" fill="#f8801c"/><rect x="47" y="52" width="1" height="1" fill="#ffbe3c"/><rect x="48" y="52" width="1" height="1" fill="#f8801c"/><rect x="49" y="52" width="1" height="1" fill="#ffbe3c"/><rect x="50" y="52" width="5" height="1" fill="#f8801c"/><rect x="55" y="52" width="1" height="1" fill="#ffbe3c"/><rect x="56" y="52" width="1" height="1" fill="#f8801c"/><rect x="57" y="52" width="3" height="1" fill="#ffbe3c"/><rect x="60" y="52" width="3" height="1" fill="#c64610"/><rect x="63" y="52" width="1" height="1" fill="#f8801c"/><rect x="11" y="53" width="2" height="1" fill="#c64610"/><rect x="13" y="53" width="1" height="1" fill="#842a0e"/><rect x="14" y="53" width="2" height="1" fill="#c64610"/><rect x="16" y="53" width="1" height="1" fill="#ffbe3c"/><rect x="17" y="53" width="1" height="1" fill="#f8801c"/><rect x="18" y="53" width="1" height="1" fill="#ffbe3c"/><rect x="19" y="53" width="1" height="1" fill="#c64610"/><rect x="20" y="53" width="1" height="1" fill="#f8801c"/><rect x="21" y="53" width="1" height="1" fill="#c64610"/><rect x="22" y="53" width="1" height="1" fill="#f8801c"/><rect x="23" y="53" width="3" height="1" fill="#c64610"/><rect x="26" y="53" width="1" height="1" fill="#f8801c"/><rect x="27" y="53" width="1" height="1" fill="#c64610"/><rect x="28" y="53" width="1" height="1" fill="#f8801c"/><rect x="29" y="53" width="1" height="1" fill="#c64610"/><rect x="30" y="53" width="1" height="1" fill="#f8801c"/><rect x="31" y="53" width="1" height="1" fill="#c64610"/><rect x="32" y="53" width="10" height="1" fill="#f8801c"/><rect x="42" y="53" width="1" height="1" fill="#ffbe3c"/><rect x="43" y="53" width="1" height="1" fill="#f8801c"/><rect x="44" y="53" width="1" height="1" fill="#ffbe3c"/><rect x="45" y="53" width="8" height="1" fill="#f8801c"/><rect x="53" y="53" width="4" height="1" fill="#ffbe3c"/><rect x="57" y="53" width="4" height="1" fill="#f8801c"/><rect x="61" y="53" width="1" height="1" fill="#c64610"/><rect x="12" y="54" width="1" height="1" fill="#c64610"/><rect x="14" y="54" width="1" height="1" fill="#842a0e"/><rect x="15" y="54" width="2" height="1" fill="#c64610"/><rect x="17" y="54" width="1" height="1" fill="#f8801c"/><rect x="18" y="54" width="1" height="1" fill="#842a0e"/><rect x="19" y="54" width="2" height="1" fill="#f8801c"/><rect x="21" y="54" width="1" height="1" fill="#c5d3e8"/><rect x="22" y="54" width="1" height="1" fill="#f8801c"/><rect x="23" y="54" width="1" height="1" fill="#ffbe3c"/><rect x="24" y="54" width="3" height="1" fill="#f8801c"/><rect x="27" y="54" width="1" height="1" fill="#c64610"/><rect x="28" y="54" width="1" height="1" fill="#f8801c"/><rect x="29" y="54" width="2" height="1" fill="#c64610"/><rect x="31" y="54" width="3" height="1" fill="#f8801c"/><rect x="34" y="54" width="1" height="1" fill="#c64610"/><rect x="35" y="54" width="3" height="1" fill="#f8801c"/><rect x="38" y="54" width="1" height="1" fill="#c64610"/><rect x="39" y="54" width="1" height="1" fill="#ffbe3c"/><rect x="40" y="54" width="1" height="1" fill="#c64610"/><rect x="41" y="54" width="1" height="1" fill="#f8801c"/><rect x="42" y="54" width="1" height="1" fill="#c64610"/><rect x="43" y="54" width="3" height="1" fill="#f8801c"/><rect x="46" y="54" width="1" height="1" fill="#c64610"/><rect x="47" y="54" width="1" height="1" fill="#f8801c"/><rect x="48" y="54" width="1" height="1" fill="#ffbe3c"/><rect x="49" y="54" width="3" height="1" fill="#f8801c"/><rect x="52" y="54" width="2" height="1" fill="#ffbe3c"/><rect x="54" y="54" width="1" height="1" fill="#f8801c"/><rect x="55" y="54" width="1" height="1" fill="#ffbe3c"/><rect x="56" y="54" width="3" height="1" fill="#f8801c"/><rect x="17" y="55" width="2" height="1" fill="#c64610"/><rect x="20" y="55" width="1" height="1" fill="#f8801c"/><rect x="21" y="55" width="3" height="1" fill="#c64610"/><rect x="24" y="55" width="1" height="1" fill="#f8801c"/><rect x="25" y="55" width="1" height="1" fill="#c64610"/><rect x="26" y="55" width="1" height="1" fill="#ffbe3c"/><rect x="27" y="55" width="1" height="1" fill="#6d82b4"/><rect x="28" y="55" width="3" height="1" fill="#ffbe3c"/><rect x="31" y="55" width="1" height="1" fill="#6d82b4"/><rect x="32" y="55" width="1" height="1" fill="#f8801c"/><rect x="33" y="55" width="1" height="1" fill="#6d82b4"/><rect x="34" y="55" width="2" height="1" fill="#f8801c"/><rect x="36" y="55" width="1" height="1" fill="#ffbe3c"/><rect x="37" y="55" width="2" height="1" fill="#f8801c"/><rect x="39" y="55" width="1" height="1" fill="#c64610"/><rect x="40" y="55" width="1" height="1" fill="#f8801c"/><rect x="41" y="55" width="1" height="1" fill="#ffbe3c"/><rect x="42" y="55" width="2" height="1" fill="#f8801c"/><rect x="44" y="55" width="1" height="1" fill="#ffe8c2"/><rect x="45" y="55" width="1" height="1" fill="#c64610"/><rect x="46" y="55" width="1" height="1" fill="#ffe8c2"/><rect x="47" y="55" width="1" height="1" fill="#f8801c"/><rect x="48" y="55" width="1" height="1" fill="#ffbe3c"/><rect x="49" y="55" width="1" height="1" fill="#f8801c"/><rect x="50" y="55" width="1" height="1" fill="#ffbe3c"/><rect x="51" y="55" width="1" height="1" fill="#c64610"/><rect x="52" y="55" width="1" height="1" fill="#ffbe3c"/><rect x="53" y="55" width="2" height="1" fill="#f8801c"/><rect x="56" y="55" width="1" height="1" fill="#f8801c"/><rect x="25" y="56" width="1" height="1" fill="#c64610"/><rect x="27" y="56" width="2" height="1" fill="#c64610"/><rect x="29" y="56" width="1" height="1" fill="#f8801c"/><rect x="30" y="56" width="1" height="1" fill="#c64610"/><rect x="31" y="56" width="1" height="1" fill="#f8801c"/><rect x="32" y="56" width="3" height="1" fill="#c64610"/><rect x="35" y="56" width="1" height="1" fill="#f8801c"/><rect x="36" y="56" width="3" height="1" fill="#c64610"/><rect x="39" y="56" width="1" height="1" fill="#f8801c"/><rect x="40" y="56" width="3" height="1" fill="#c64610"/><rect x="43" y="56" width="1" height="1" fill="#f8801c"/><rect x="44" y="56" width="7" height="1" fill="#c64610"/></svg>