<svg xmlns="http://www.w3.org/2000/svg" viewBox="0 0 74 68" width="296" height="272" shape-rendering="crispEdges"><rect x="0" y="0" width="74" height="1" fill="#c5d3e8"/><rect x="0" y="1" width="74" height="1" fill="#c5d3e8"/><rect x="0" y="2" width="74" height="1" fill="#c5d3e8"/><rect x="0" y="3" width="74" height="1" fill="#c5d3e8"/><rect x="0" y="4" width="74" height="1" fill="#c5d3e8"/><rect x="0" y="5" width="5" height="1" fill="#c5d3e8"/><rect x="5" y="5" width="24" height="1" fill="#1a1a1a"/><rect x="29" y="5" width="45" height="1" fill="#c5d3e8"/><rect x="0" y="6" width="4" height="1" fill="#c5d3e8"/><rect x="4" y="6" width="1" height="1" fill="#1a1a1a"/><rect x="5" y="6" width="24" height="1" fill="#f8f7f4"/><rect x="29" y="6" width="1" height="1" fill="#1a1a1a"/><rect x="30" y="6" width="44" height="1" fill="#c5d3e8"/><rect x="0" y="7" width="4" height="1" fill="#c5d3e8"/><rect x="4" y="7" width="1" height="1" fill="#1a1a1a"/><rect x="5" y="7" width="2" height="1" fill="#f8f7f4"/><rect x="7" y="7" width="2" height="1" fill="#6d82b4"/><rect x="9" y="7" width="1" height="1" fill="#f8f7f4"/><rect x="10" y="7" width="2" height="1" fill="#6d82b4"/><rect x="12" y="7" width="1" height="1" fill="#f8f7f4"/><rect x="13" y="7" width="2" height="1" fill="#6d82b4"/><rect x="15" y="7" width="2" height="1" fill="#f8f7f4"/><rect x="17" y="7" width="10" height="1" fill="#c5d3e8"/><rect x="27" y="7" width="2" height="1" fill="#f8f7f4"/><rect x="29" y="7" width="1" height="1" fill="#1a1a1a"/><rect x="30" y="7" width="2" height="1" fill="#6d82b4"/><rect x="32" y="7" width="42" height="1" fill="#c5d3e8"/><rect x="0" y="8" width="4" height="1" fill="#c5d3e8"/><rect x="4" y="8" width="1" height="1" fill="#1a1a1a"/><rect x="5" y="8" width="2" height="1" fill="#f8f7f4"/><rect x="7" y="8" width="2" height="1" fill="#6d82b4"/><rect x="9" y="8" width="1" height="1" fill="#f8f7f4"/><rect x="10" y="8" width="2" height="1" fill="#6d82b4"/><rect x="12" y="8" width="1" height="1" fill="#f8f7f4"/><rect x="13" y="8" width="2" height="1" fill="#6d82b4"/><rect x="15" y="8" width="2" height="1" fill="#f8f7f4"/><rect x="17" y="8" width="10" height="1" fill="#c5d3e8"/><rect x="27" y="8" width="2" height="1" fill="#f8f7f4"/><rect x="29" y="8" width="1" height="1" fill="#1a1a1a"/><rect x="30" y="8" width="2" height="1" fill="#6d82b4"/><rect x="32" y="8" width="42" height="1" fill="#c5d3e8"/><rect x="0" y="9" width="4" height="1" fill="#c5d3e8"/><rect x="4" y="9" width="1" height="1" fill="#1a1a1a"/><rect x="5" y="9" width="24" height="1" fill="#f8f7f4"/><rect x="29" y="9" width="1" height="1" fill="#1a1a1a"/><rect x="30" y="9" width="2" height="1" fill="#6d82b4"/><rect x="32" y="9" width="42" height="1" fill="#c5d3e8"/><rect x="0" y="10" width="4" height="1" fill="#c5d3e8"/><rect x="4" y="10" width="1" height="1" fill="#1a1a1a"/><rect x="5" y="10" width="24" height="1" fill="#f8f7f4"/><rect x="29" y="10" width="1" height="1" fill="#1a1a1a"/><rect x="30" y="10" width="2" height="1" fill="#6d82b4"/><rect x="32" y="10" width="42" height="1" fill="#c5d3e8"/><rect x="0" y="11" width="4" height="1" fill="#c5d3e8"/><rect x="4" y="11" width="1" height="1" fill="#1a1a1a"/><rect x="5" y="11" width="24" height="1" fill="#c5d3e8"/><rect x="29" y="11" width="1" height="1" fill="#1a1a1a"/><rect x="30" y="11" width="2" height="1" fill="#6d82b4"/><rect x="32" y="11" width="42" height="1" fill="#c5d3e8"/><rect x="0" y="12" width="4" height="1" fill="#c5d3e8"/><rect x="4" y="12" width="1" height="1" fill="#1a1a1a"/><rect x="5" y="12" width="24" height="1" fill="#ffffff"/><rect x="29" y="12" width="1" height="1" fill="#1a1a1a"/><rect x="30" y="12" width="2" height="1" fill="#6d82b4"/><rect x="32" y="12" width="42" height="1" fill="#c5d3e8"/><rect x="0" y="13" width="4" height="1" fill="#c5d3e8"/><rect x="4" y="13" width="1" height="1" fill="#1a1a1a"/><rect x="5" y="13" width="24" height="1" fill="#ffffff"/><rect x="29" y="13" width="1" height="1" fill="#1a1a1a"/><rect x="30" y="13" width="2" height="1" fill="#6d82b4"/><rect x="32" y="13" width="42" height="1" fill="#c5d3e8"/><rect x="0" y="14" width="4" height="1" fill="#c5d3e8"/><rect x="4" y="14" width="1" height="1" fill="#1a1a1a"/><rect x="5" y="14" width="3" height="1" fill="#ffffff"/><rect x="8" y="14" width="11" height="1" fill="#c5d3e8"/><rect x="19" y="14" width="10" height="1" fill="#ffffff"/><rect x="29" y="14" width="1" height="1" fill="#1a1a1a"/><rect x="30" y="14" width="2" height="1" fill="#6d82b4"/><rect x="32" y="14" width="42" height="1" fill="#c5d3e8"/><rect x="0" y="15" width="4" height="1" fill="#c5d3e8"/><rect x="4" y="15" width="1" height="1" fill="#1a1a1a"/><rect x="5" y="15" width="3" height="1" fill="#ffffff"/><rect x="8" y="15" width="11" height="1" fill="#c5d3e8"/><rect x="19" y="15" width="10" height="1" fill="#ffffff"/><rect x="29" y="15" width="1" height="1" fill="#1a1a1a"/><rect x="30" y="15" width="2" height="1" fill="#6d82b4"/><rect x="32" y="15" width="42" height="1" fill="#c5d3e8"/><rect x="0" y="16" width="4" height="1" fill="#c5d3e8"/><rect x="4" y="16" width="1" height="1" fill="#1a1a1a"/><rect x="5" y="16" width="24" height="1" fill="#ffffff"/><rect x="29" y="16" width="1" height="1" fill="#1a1a1a"/><rect x="30" y="16" width="2" height="1" fill="#6d82b4"/><rect x="32" y="16" width="42" height="1" fill="#c5d3e8"/><rect x="0" y="17" width="4" height="1" fill="#c5d3e8"/><rect x="4" y="17" width="1" height="1" fill="#1a1a1a"/><rect x="5" y="17" width="3" height="1" fill="#ffffff"/><rect x="8" y="17" width="6" height="1" fill="#445c93"/><rect x="14" y="17" width="15" height="1" fill="#ffffff"/><rect x="29" y="17" width="1" height="1" fill="#1a1a1a"/><rect x="30" y="17" width="2" height="1" fill="#6d82b4"/><rect x="32" y="17" width="42" height="1" fill="#c5d3e8"/><rect x="0" y="18" width="4" height="1" fill="#c5d3e8"/><rect x="4" y="18" width="1" height="1" fill="#1a1a1a"/><rect x="5" y="18" width="3" height="1" fill="#ffffff"/><rect x="8" y="18" width="6" height="1" fill="#445c93"/><rect x="14" y="18" width="15" height="1" fill="#ffffff"/><rect x="29" y="18" width="1" height="1" fill="#1a1a1a"/><rect x="30" y="18" width="2" height="1" fill="#6d82b4"/><rect x="32" y="18" width="42" height="1" fill="#c5d3e8"/><rect x="0" y="19" width="4" height="1" fill="#c5d3e8"/><rect x="4" y="19" width="1" height="1" fill="#1a1a1a"/><rect x="5" y="19" width="3" height="1" fill="#ffffff"/><rect x="8" y="19" width="6" height="1" fill="#445c93"/><rect x="14" y="19" width="15" height="1" fill="#ffffff"/><rect x="29" y="19" width="1" height="1" fill="#1a1a1a"/><rect x="30" y="19" width="2" height="1" fill="#6d82b4"/><rect x="32" y="19" width="42" height="1" fill="#c5d3e8"/><rect x="0" y="20" width="4" height="1" fill="#c5d3e8"/><rect x="4" y="20" width="1" height="1" fill="#1a1a1a"/><rect x="5" y="20" width="24" height="1" fill="#ffffff"/><rect x="29" y="20" width="1" height="1" fill="#1a1a1a"/><rect x="30" y="20" width="2" height="1" fill="#6d82b4"/><rect x="32" y="20" width="42" height="1" fill="#c5d3e8"/><rect x="0" y="21" width="4" height="1" fill="#c5d3e8"/><rect x="4" y="21" width="1" height="1" fill="#1a1a1a"/><rect x="5" y="21" width="24" height="1" fill="#ffffff"/><rect x="29" y="21" width="1" height="1" fill="#1a1a1a"/><rect x="30" y="21" width="2" height="1" fill="#6d82b4"/><rect x="32" y="21" width="1" height="1" fill="#c5d3e8"/><rect x="33" y="21" width="1" height="1" fill="#ffbe3c"/><rect x="34" y="21" width="40" height="1" fill="#c5d3e8"/><rect x="0" y="22" width="4" height="1" fill="#c5d3e8"/><rect x="4" y="22" width="1" height="1" fill="#1a1a1a"/><rect x="5" y="22" width="24" height="1" fill="#ffffff"/><rect x="29" y="22" width="1" height="1" fill="#1a1a1a"/><rect x="30" y="22" width="2" height="1" fill="#6d82b4"/><rect x="32" y="22" width="42" height="1" fill="#c5d3e8"/><rect x="0" y="23" width="4" height="1" fill="#c5d3e8"/><rect x="4" y="23" width="1" height="1" fill="#1a1a1a"/><rect x="5" y="23" width="24" height="1" fill="#ffffff"/><rect x="29" y="23" width="1" height="1" fill="#1a1a1a"/><rect x="30" y="23" width="2" height="1" fill="#6d82b4"/><rect x="32" y="23" width="3" height="1" fill="#c5d3e8"/><rect x="35" y="23" width="1" height="1" fill="#ffbe3c"/><rect x="36" y="23" width="38" height="1" fill="#c5d3e8"/><rect x="0" y="24" width="5" height="1" fill="#c5d3e8"/><rect x="5" y="24" width="23" height="1" fill="#1a1a1a"/><rect x="28" y="24" width="1" height="1" fill="#ffbe3c"/><rect x="29" y="24" width="1" height="1" fill="#c5d3e8"/><rect x="30" y="24" width="2" height="1" fill="#6d82b4"/><rect x="32" y="24" width="42" height="1" fill="#c5d3e8"/><rect x="0" y="25" width="6" height="1" fill="#c5d3e8"/><rect x="6" y="25" width="26" height="1" fill="#6d82b4"/><rect x="32" y="25" width="42" height="1" fill="#c5d3e8"/><rect x="0" y="26" width="6" height="1" fill="#c5d3e8"/><rect x="6" y="26" width="24" height="1" fill="#6d82b4"/><rect x="30" y="26" width="1" height="1" fill="#ffbe3c"/><rect x="31" y="26" width="1" height="1" fill="#6d82b4"/><rect x="32" y="26" width="6" height="1" fill="#c5d3e8"/><rect x="38" y="26" width="2" height="1" fill="#f8801c"/><rect x="40" y="26" width="34" height="1" fill="#c5d3e8"/><rect x="0" y="27" width="38" height="1" fill="#c5d3e8"/><rect x="38" y="27" width="2" height="1" fill="#f8801c"/><rect x="40" y="27" width="34" height="1" fill="#c5d3e8"/><rect x="0" y="28" width="74" height="1" fill="#c5d3e8"/><rect x="0" y="29" width="23" height="1" fill="#c5d3e8"/><rect x="23" y="29" width="1" height="1" fill="#ffbe3c"/><rect x="24" y="29" width="9" height="1" fill="#c5d3e8"/><rect x="33" y="29" width="2" height="1" fill="#f8801c"/><rect x="35" y="29" width="6" height="1" fill="#c5d3e8"/><rect x="41" y="29" width="1" height="1" fill="#ffbe3c"/><rect x="42" y="29" width="32" height="1" fill="#c5d3e8"/><rect x="0" y="30" width="33" height="1" fill="#c5d3e8"/><rect x="33" y="30" width="2" height="1" fill="#f8801c"/><rect x="35" y="30" width="39" height="1" fill="#c5d3e8"/><rect x="0" y="31" width="25" height="1" fill="#c5d3e8"/><rect x="25" y="31" width="1" height="1" fill="#ffbe3c"/><rect x="26" y="31" width="17" height="1" fill="#c5d3e8"/><rect x="43" y="31" width="1" height="1" fill="#ffbe3c"/><rect x="44" y="31" width="30" height="1" fill="#c5d3e8"/><rect x="0" y="32" width="36" height="1" fill="#c5d3e8"/><rect x="36" y="32" width="1" height="1" fill="#ffbe3c"/><rect x="37" y="32" width="37" height="1" fill="#c5d3e8"/><rect x="0" y="33" width="74" height="1" fill="#c5d3e8"/><rect x="0" y="34" width="28" height="1" fill="#c5d3e8"/><rect x="28" y="34" width="2" height="1" fill="#f8801c"/><rect x="30" y="34" width="8" height="1" fill="#c5d3e8"/><rect x="38" y="34" width="1" height="1" fill="#ffbe3c"/><rect x="39" y="34" width="7" height="1" fill="#c5d3e8"/><rect x="46" y="34" width="2" height="1" fill="#f8801c"/><rect x="48" y="34" width="26" height="1" fill="#c5d3e8"/><rect x="0" y="35" width="28" height="1" fill="#c5d3e8"/><rect x="28" y="35" width="2" height="1" fill="#f8801c"/><rect x="30" y="35" width="16" height="1" fill="#c5d3e8"/><rect x="46" y="35" width="2" height="1" fill="#f8801c"/><rect x="48" y="35" width="26" height="1" fill="#c5d3e8"/><rect x="0" y="36" width="74" height="1" fill="#c5d3e8"/><rect x="0" y="37" width="31" height="1" fill="#c5d3e8"/><rect x="31" y="37" width="1" height="1" fill="#ffbe3c"/><rect x="32" y="37" width="9" height="1" fill="#c5d3e8"/><rect x="41" y="37" width="2" height="1" fill="#f8801c"/><rect x="43" y="37" width="31" height="1" fill="#c5d3e8"/><rect x="0" y="38" width="41" height="1" fill="#c5d3e8"/><rect x="41" y="38" width="2" height="1" fill="#f8801c"/><rect x="43" y="38" width="31" height="1" fill="#c5d3e8"/><rect x="0" y="39" width="33" height="1" fill="#c5d3e8"/><rect x="33" y="39" width="1" height="1" fill="#ffbe3c"/><rect x="34" y="39" width="40" height="1" fill="#c5d3e8"/><rect x="0" y="40" width="74" height="1" fill="#c5d3e8"/><rect x="0" y="41" width="74" height="1" fill="#c5d3e8"/><rect x="0" y="42" width="36" height="1" fill="#c5d3e8"/><rect x="36" y="42" width="2" height="1" fill="#f8801c"/><rect x="38" y="42" width="7" height="1" fill="#c5d3e8"/><rect x="45" y="42" width="24" height="1" fill="#1a1a1a"/><rect x="69" y="42" width="5" height="1" fill="#c5d3e8"/><rect x="0" y="43" width="36" height="1" fill="#c5d3e8"/><rect x="36" y="43" width="2" height="1" fill="#f8801c"/><rect x="38" y="43" width="6" height="1" fill="#c5d3e8"/><rect x="44" y="43" width="1" height="1" fill="#1a1a1a"/><rect x="45" y="43" width="24" height="1" fill="#f8f7f4"/><rect x="69" y="43" width="1" height="1" fill="#1a1a1a"/><rect x="70" y="43" width="4" height="1" fill="#c5d3e8"/><rect x="0" y="44" width="44" height="1" fill="#c5d3e8"/><rect x="44" y="44" width="1" height="1" fill="#1a1a1a"/><rect x="45" y="44" width="2" height="1" fill="#f8f7f4"/><rect x="47" y="44" width="2" height="1" fill="#6d82b4"/><rect x="49" y="44" width="1" height="1" fill="#f8f7f4"/><rect x="50" y="44" width="2" height="1" fill="#6d82b4"/><rect x="52" y="44" width="1" height="1" fill="#f8f7f4"/><rect x="53" y="44" width="2" height="1" fill="#6d82b4"/><rect x="55" y="44" width="2" height="1" fill="#f8f7f4"/><rect x="57" y="44" width="10" height="1" fill="#c5d3e8"/><rect x="67" y="44" width="2" height="1" fill="#f8f7f4"/><rect x="69" y="44" width="1" height="1" fill="#1a1a1a"/><rect x="70" y="44" width="2" height="1" fill="#6d82b4"/><rect x="72" y="44" width="2" height="1" fill="#c5d3e8"/><rect x="0" y="45" width="44" height="1" fill="#c5d3e8"/><rect x="44" y="45" width="1" height="1" fill="#1a1a1a"/><rect x="45" y="45" width="2" height="1" fill="#f8f7f4"/><rect x="47" y="45" width="2" height="1" fill="#6d82b4"/><rect x="49" y="45" width="1" height="1" fill="#f8f7f4"/><rect x="50" y="45" width="2" height="1" fill="#6d82b4"/><rect x="52" y="45" width="1" height="1" fill="#f8f7f4"/><rect x="53" y="45" width="2" height="1" fill="#6d82b4"/><rect x="55" y="45" width="2" height="1" fill="#f8f7f4"/><rect x="57" y="45" width="10" height="1" fill="#c5d3e8"/><rect x="67" y="45" width="2" height="1" fill="#f8f7f4"/><rect x="69" y="45" width="1" height="1" fill="#1a1a1a"/><rect x="70" y="45" width="2" height="1" fill="#6d82b4"/><rect x="72" y="45" width="2" height="1" fill="#c5d3e8"/><rect x="0" y="46" width="44" height="1" fill="#c5d3e8"/><rect x="44" y="46" width="1" height="1" fill="#1a1a1a"/><rect x="45" y="46" width="24" height="1" fill="#f8f7f4"/><rect x="69" y="46" width="1" height="1" fill="#1a1a1a"/><rect x="70" y="46" width="2" height="1" fill="#6d82b4"/><rect x="72" y="46" width="2" height="1" fill="#c5d3e8"/><rect x="0" y="47" width="44" height="1" fill="#c5d3e8"/><rect x="44" y="47" width="1" height="1" fill="#1a1a1a"/><rect x="45" y="47" width="24" height="1" fill="#f8f7f4"/><rect x="69" y="47" width="1" height="1" fill="#1a1a1a"/><rect x="70" y="47" width="2" height="1" fill="#6d82b4"/><rect x="72" y="47" width="2" height="1" fill="#c5d3e8"/><rect x="0" y="48" width="44" height="1" fill="#c5d3e8"/><rect x="44" y="48" width="1" height="1" fill="#1a1a1a"/><rect x="45" y="48" width="24" height="1" fill="#c5d3e8"/><rect x="69" y="48" width="1" height="1" fill="#1a1a1a"/><rect x="70" y="48" width="2" height="1" fill="#6d82b4"/><rect x="72" y="48" width="2" height="1" fill="#c5d3e8"/><rect x="0" y="49" width="44" height="1" fill="#c5d3e8"/><rect x="44" y="49" width="1" height="1" fill="#1a1a1a"/><rect x="45" y="49" width="24" height="1" fill="#ffffff"/><rect x="69" y="49" width="1" height="1" fill="#1a1a1a"/><rect x="70" y="49" width="2" height="1" fill="#6d82b4"/><rect x="72" y="49" width="2" height="1" fill="#c5d3e8"/><rect x="0" y="50" width="44" height="1" fill="#c5d3e8"/><rect x="44" y="50" width="1" height="1" fill="#1a1a1a"/><rect x="45" y="50" width="24" height="1" fill="#ffffff"/><rect x="69" y="50" width="1" height="1" fill="#1a1a1a"/><rect x="70" y="50" width="2" height="1" fill="#6d82b4"/><rect x="72" y="50" width="2" height="1" fill="#c5d3e8"/><rect x="0" y="51" width="44" height="1" fill="#c5d3e8"/><rect x="44" y="51" width="1" height="1" fill="#1a1a1a"/><rect x="45" y="51" width="3" height="1" fill="#ffffff"/><rect x="48" y="51" width="9" height="1" fill="#c5d3e8"/><rect x="57" y="51" width="12" height="1" fill="#ffffff"/><rect x="69" y="51" width="1" height="1" fill="#1a1a1a"/><rect x="70" y="51" width="2" height="1" fill="#6d82b4"/><rect x="72" y="51" width="2" height="1" fill="#c5d3e8"/><rect x="0" y="52" width="44" height="1" fill="#c5d3e8"/><rect x="44" y="52" width="1" height="1" fill="#1a1a1a"/><rect x="45" y="52" width="3" height="1" fill="#ffffff"/><rect x="48" y="52" width="9" height="1" fill="#c5d3e8"/><rect x="57" y="52" width="12" height="1" fill="#ffffff"/><rect x="69" y="52" width="1" height="1" fill="#1a1a1a"/><rect x="70" y="52" width="2" height="1" fill="#6d82b4"/><rect x="72" y="52" width="2" height="1" fill="#c5d3e8"/><rect x="0" y="53" width="44" height="1" fill="#c5d3e8"/><rect x="44" y="53" width="1" height="1" fill="#1a1a1a"/><rect x="45" y="53" width="24" height="1" fill="#ffffff"/><rect x="69" y="53" width="1" height="1" fill="#1a1a1a"/><rect x="70" y="53" width="2" height="1" fill="#6d82b4"/><rect x="72" y="53" width="2" height="1" fill="#c5d3e8"/><rect x="0" y="54" width="44" height="1" fill="#c5d3e8"/><rect x="44" y="54" width="1" height="1" fill="#1a1a1a"/><rect x="45" y="54" width="3" height="1" fill="#ffffff"/><rect x="48" y="54" width="6" height="1" fill="#ffbe3c"/><rect x="54" y="54" width="15" height="1" fill="#ffffff"/><rect x="69" y="54" width="1" height="1" fill="#1a1a1a"/><rect x="70" y="54" width="2" height="1" fill="#6d82b4"/><rect x="72" y="54" width="2" height="1" fill="#c5d3e8"/><rect x="0" y="55" width="44" height="1" fill="#c5d3e8"/><rect x="44" y="55" width="1" height="1" fill="#1a1a1a"/><rect x="45" y="55" width="3" height="1" fill="#ffffff"/><rect x="48" y="55" width="6" height="1" fill="#ffbe3c"/><rect x="54" y="55" width="15" height="1" fill="#ffffff"/><rect x="69" y="55" width="1" height="1" fill="#1a1a1a"/><rect x="70" y="55" width="2" height="1" fill="#6d82b4"/><rect x="72" y="55" width="2" height="1" fill="#c5d3e8"/><rect x="0" y="56" width="44" height="1" fill="#c5d3e8"/><rect x="44" y="56" width="1" height="1" fill="#1a1a1a"/><rect x="45" y="56" width="3" height="1" fill="#ffffff"/><rect x="48" y="56" width="6" height="1" fill="#ffbe3c"/><rect x="54" y="56" width="15" height="1" fill="#ffffff"/><rect x="69" y="56" width="1" height="1" fill="#1a1a1a"/><rect x="70" y="56" width="2" height="1" fill="#6d82b4"/><rect x="72" y="56" width="2" height="1" fill="#c5d3e8"/><rect x="0" y="57" width="44" height="1" fill="#c5d3e8"/><rect x="44" y="57" width="1" height="1" fill="#1a1a1a"/><rect x="45" y="57" width="24" height="1" fill="#ffffff"/><rect x="69" y="57" width="1" height="1" fill="#1a1a1a"/><rect x="70" y="57" width="2" height="1" fill="#6d82b4"/><rect x="72" y="57" width="2" height="1" fill="#c5d3e8"/><rect x="0" y="58" width="44" height="1" fill="#c5d3e8"/><rect x="44" y="58" width="1" height="1" fill="#1a1a1a"/><rect x="45" y="58" width="24" height="1" fill="#ffffff"/><rect x="69" y="58" width="1" height="1" fill="#1a1a1a"/><rect x="70" y="58" width="2" height="1" fill="#6d82b4"/><rect x="72" y="58" width="2" height="1" fill="#c5d3e8"/><rect x="0" y="59" width="44" height="1" fill="#c5d3e8"/><rect x="44" y="59" width="1" height="1" fill="#1a1a1a"/><rect x="45" y="59" width="24" height="1" fill="#ffffff"/><rect x="69" y="59" width="1" height="1" fill="#1a1a1a"/><rect x="70" y="59" width="2" height="1" fill="#6d82b4"/><rect x="72" y="59" width="2" height="1" fill="#c5d3e8"/><rect x="0" y="60" width="44" height="1" fill="#c5d3e8"/><rect x="44" y="60" width="1" height="1" fill="#1a1a1a"/><rect x="45" y="60" width="24" height="1" fill="#ffffff"/><rect x="69" y="60" width="1" height="1" fill="#1a1a1a"/><rect x="70" y="60" width="2" height="1" fill="#6d82b4"/><rect x="72" y="60" width="2" height="1" fill="#c5d3e8"/><rect x="0" y="61" width="45" height="1" fill="#c5d3e8"/><rect x="45" y="61" width="24" height="1" fill="#1a1a1a"/><rect x="69" y="61" width="1" height="1" fill="#c5d3e8"/><rect x="70" y="61" width="2" height="1" fill="#6d82b4"/><rect x="72" y="61" width="2" height="1" fill="#c5d3e8"/><rect x="0" y="62" width="46" height="1" fill="#c5d3e8"/><rect x="46" y="62" width="26" height="1" fill="#6d82b4"/><rect x="72" y="62" width="2" height="1" fill="#c5d3e8"/><rect x="0" y="63" width="46" height="1" fill="#c5d3e8"/><rect x="46" y="63" width="26" height="1" fill="#6d82b4"/><rect x="72" y="63" width="2" height="1" fill="#c5d3e8"/><rect x="0" y="64" width="74" height="1" fill="#c5d3e8"/><rect x="0" y="65" width="74" height="1" fill="#c5d3e8"/><rect x="0" y="66" width="74" height="1" fill="#c5d3e8"/><rect x="0" y="67" width="74" height="1" fill="#c5d3e8"/></svg>