<svg xmlns="http://www.w3.org/2000/svg" viewBox="0 0 72 60" width="288" height="240" shape-rendering="crispEdges"><rect x="55" y="13" width="1" height="1" fill="#fff4be"/><rect x="49" y="15" width="1" height="1" fill="#f8801c"/><rect x="58" y="17" width="1" height="1" fill="#f8801c"/><rect x="52" y="20" width="1" height="1" fill="#ffbe3c"/><rect x="61" y="23" width="1" height="1" fill="#c64610"/><rect x="56" y="26" width="1" height="1" fill="#c64610"/><rect x="55" y="27" width="2" height="1" fill="#c64610"/><rect x="55" y="28" width="2" height="1" fill="#c64610"/><rect x="54" y="29" width="3" height="1" fill="#c64610"/><rect x="13" y="30" width="4" height="1" fill="#1a1a1a"/><rect x="53" y="30" width="3" height="1" fill="#c64610"/><rect x="12" y="31" width="1" height="1" fill="#1a1a1a"/><rect x="13" y="31" width="4" height="1" fill="#445c93"/><rect x="17" y="31" width="1" height="1" fill="#1a1a1a"/><rect x="52" y="31" width="1" height="1" fill="#c64610"/><rect x="53" y="31" width="2" height="1" fill="#f8801c"/><rect x="55" y="31" width="1" height="1" fill="#c64610"/><rect x="11" y="32" width="1" height="1" fill="#1a1a1a"/><rect x="12" y="32" width="2" height="1" fill="#445c93"/><rect x="14" y="32" width="4" height="1" fill="#2c447f"/><rect x="18" y="32" width="1" height="1" fill="#1a1a1a"/><rect x="52" y="32" width="3" height="1" fill="#c64610"/><rect x="11" y="33" width="1" height="1" fill="#1a1a1a"/><rect x="12" y="33" width="1" height="1" fill="#445c93"/><rect x="13" y="33" width="3" height="1" fill="#2c447f"/><rect x="16" y="33" width="2" height="1" fill="#ffe8c2"/><rect x="18" y="33" width="1" height="1" fill="#1a1a1a"/><rect x="51" y="33" width="4" height="1" fill="#c64610"/><rect x="11" y="34" width="1" height="1" fill="#1a1a1a"/><rect x="12" y="34" width="1" height="1" fill="#445c93"/><rect x="13" y="34" width="3" height="1" fill="#2c447f"/><rect x="16" y="34" width="2" height="1" fill="#ffe8c2"/><rect x="18" y="34" width="1" height="1" fill="#1a1a1a"/><rect x="51" y="34" width="1" height="1" fill="#c64610"/><rect x="52" y="34" width="2" height="1" fill="#f8801c"/><rect x="54" y="34" width="2" height="1" fill="#c64610"/><rect x="11" y="35" width="1" height="1" fill="#1a1a1a"/><rect x="12" y="35" width="1" height="1" fill="#445c93"/><rect x="13" y="35" width="3" height="1" fill="#2c447f"/><rect x="16" y="35" width="2" height="1" fill="#ffe8c2"/><rect x="18" y="35" width="1" height="1" fill="#1a1a1a"/><rect x="50" y="35" width="1" height="1" fill="#c64610"/><rect x="51" y="35" width="4" height="1" fill="#f8801c"/><rect x="55" y="35" width="1" height="1" fill="#c64610"/><rect x="11" y="36" width="1" height="1" fill="#1a1a1a"/><rect x="12" y="36" width="5" height="1" fill="#2c447f"/><rect x="17" y="36" width="1" height="1" fill="#ffe8c2"/><rect x="18" y="36" width="1" height="1" fill="#1a1a1a"/><rect x="50" y="36" width="2" height="1" fill="#c64610"/><rect x="52" y="36" width="2" height="1" fill="#f8801c"/><rect x="54" y="36" width="3" height="1" fill="#c64610"/><rect x="12" y="37" width="1" height="1" fill="#1a1a1a"/><rect x="13" y="37" width="4" height="1" fill="#2c447f"/><rect x="17" y="37" width="1" height="1" fill="#1a1a1a"/><rect x="49" y="37" width="2" height="1" fill="#c64610"/><rect x="51" y="37" width="4" height="1" fill="#f8801c"/><rect x="55" y="37" width="2" height="1" fill="#c64610"/><rect x="10" y="38" width="1" height="1" fill="#1a1a1a"/><rect x="11" y="38" width="7" height="1" fill="#2c447f"/><rect x="18" y="38" width="1" height="1" fill="#1a1a1a"/><rect x="49" y="38" width="1" height="1" fill="#c64610"/><rect x="50" y="38" width="2" height="1" fill="#f8801c"/><rect x="52" y="38" width="2" height="1" fill="#ffbe3c"/><rect x="54" y="38" width="2" height="1" fill="#f8801c"/><rect x="56" y="38" width="2" height="1" fill="#c64610"/><rect x="9" y="39" width="1" height="1" fill="#1a1a1a"/><rect x="10" y="39" width="1" height="1" fill="#445c93"/><rect x="11" y="39" width="7" height="1" fill="#2c447f"/><rect x="18" y="39" width="1" height="1" fill="#1a1a1a"/><rect x="48" y="39" width="3" height="1" fill="#c64610"/><rect x="51" y="39" width="4" height="1" fill="#ffbe3c"/><rect x="55" y="39" width="3" height="1" fill="#c64610"/><rect x="9" y="40" width="1" height="1" fill="#1a1a1a"/><rect x="10" y="40" width="1" height="1" fill="#445c93"/><rect x="11" y="40" width="4" height="1" fill="#2c447f"/><rect x="15" y="40" width="1" height="1" fill="#1a1a1a"/><rect x="16" y="40" width="3" height="1" fill="#2c447f"/><rect x="19" y="40" width="1" height="1" fill="#1a1a1a"/><rect x="48" y="40" width="2" height="1" fill="#c64610"/><rect x="50" y="40" width="2" height="1" fill="#f8801c"/><rect x="52" y="40" width="2" height="1" fill="#ffbe3c"/><rect x="54" y="40" width="4" height="1" fill="#f8801c"/><rect x="58" y="40" width="1" height="1" fill="#c64610"/><rect x="8" y="41" width="1" height="1" fill="#1a1a1a"/><rect x="9" y="41" width="1" height="1" fill="#445c93"/><rect x="10" y="41" width="5" height="1" fill="#2c447f"/><rect x="15" y="41" width="1" height="1" fill="#1a1a1a"/><rect x="17" y="41" width="1" height="1" fill="#1a1a1a"/><rect x="18" y="41" width="2" height="1" fill="#2c447f"/><rect x="20" y="41" width="1" height="1" fill="#1a1a1a"/><rect x="47" y="41" width="2" height="1" fill="#c64610"/><rect x="49" y="41" width="2" height="1" fill="#f8801c"/><rect x="51" y="41" width="4" height="1" fill="#ffbe3c"/><rect x="55" y="41" width="2" height="1" fill="#f8801c"/><rect x="57" y="41" width="2" height="1" fill="#c64610"/><rect x="8" y="42" width="1" height="1" fill="#1a1a1a"/><rect x="9" y="42" width="1" height="1" fill="#445c93"/><rect x="10" y="42" width="4" height="1" fill="#2c447f"/><rect x="14" y="42" width="1" height="1" fill="#1a1a1a"/><rect x="18" y="42" width="1" height="1" fill="#1a1a1a"/><rect x="19" y="42" width="2" height="1" fill="#2c447f"/><rect x="21" y="42" width="1" height="1" fill="#1a1a1a"/><rect x="47" y="42" width="3" height="1" fill="#c64610"/><rect x="50" y="42" width="6" height="1" fill="#ffbe3c"/><rect x="56" y="42" width="3" height="1" fill="#c64610"/><rect x="7" y="43" width="1" height="1" fill="#1a1a1a"/><rect x="8" y="43" width="1" height="1" fill="#445c93"/><rect x="9" y="43" width="4" height="1" fill="#2c447f"/><rect x="13" y="43" width="1" height="1" fill="#1a1a1a"/><rect x="19" y="43" width="1" height="1" fill="#1a1a1a"/><rect x="20" y="43" width="2" height="1" fill="#ffe8c2"/><rect x="43" y="43" width="2" height="1" fill="#c64610"/><rect x="46" y="43" width="1" height="1" fill="#c64610"/><rect x="47" y="43" width="2" height="1" fill="#f8801c"/><rect x="49" y="43" width="8" height="1" fill="#ffbe3c"/><rect x="57" y="43" width="2" height="1" fill="#f8801c"/><rect x="59" y="43" width="1" height="1" fill="#c64610"/><rect x="7" y="44" width="1" height="1" fill="#1a1a1a"/><rect x="8" y="44" width="1" height="1" fill="#445c93"/><rect x="9" y="44" width="4" height="1" fill="#2c447f"/><rect x="13" y="44" width="1" height="1" fill="#1a1a1a"/><rect x="20" y="44" width="4" height="1" fill="#1a1a1a"/><rect x="42" y="44" width="3" height="1" fill="#c64610"/><rect x="46" y="44" width="2" height="1" fill="#c64610"/><rect x="48" y="44" width="2" height="1" fill="#f8801c"/><rect x="50" y="44" width="2" height="1" fill="#ffbe3c"/><rect x="52" y="44" width="2" height="1" fill="#fff4be"/><rect x="54" y="44" width="2" height="1" fill="#ffbe3c"/><rect x="56" y="44" width="2" height="1" fill="#f8801c"/><rect x="58" y="44" width="2" height="1" fill="#c64610"/><rect x="7" y="45" width="1" height="1" fill="#1a1a1a"/><rect x="8" y="45" width="5" height="1" fill="#2c447f"/><rect x="13" y="45" width="1" height="1" fill="#1a1a1a"/><rect x="24" y="45" width="3" height="1" fill="#1a1a1a"/><rect x="43" y="45" width="4" height="1" fill="#c64610"/><rect x="47" y="45" width="2" height="1" fill="#f8801c"/><rect x="49" y="45" width="2" height="1" fill="#ffbe3c"/><rect x="51" y="45" width="4" height="1" fill="#fff4be"/><rect x="55" y="45" width="2" height="1" fill="#ffbe3c"/><rect x="57" y="45" width="2" height="1" fill="#f8801c"/><rect x="59" y="45" width="2" height="1" fill="#c64610"/><rect x="6" y="46" width="1" height="1" fill="#1a1a1a"/><rect x="7" y="46" width="11" height="1" fill="#1c2c5c"/><rect x="18" y="46" width="1" height="1" fill="#1a1a1a"/><rect x="27" y="46" width="3" height="1" fill="#1a1a1a"/><rect x="45" y="46" width="1" height="1" fill="#c64610"/><rect x="46" y="46" width="2" height="1" fill="#f8801c"/><rect x="48" y="46" width="4" height="1" fill="#ffbe3c"/><rect x="52" y="46" width="4" height="1" fill="#fff4be"/><rect x="56" y="46" width="2" height="1" fill="#ffbe3c"/><rect x="58" y="46" width="2" height="1" fill="#f8801c"/><rect x="60" y="46" width="1" height="1" fill="#c64610"/><rect x="6" y="47" width="1" height="1" fill="#1a1a1a"/><rect x="7" y="47" width="11" height="1" fill="#1c2c5c"/><rect x="18" y="47" width="1" height="1" fill="#ffbe3c"/><rect x="19" y="47" width="1" height="1" fill="#1a1a1a"/><rect x="30" y="47" width="3" height="1" fill="#1a1a1a"/><rect x="45" y="47" width="2" height="1" fill="#c64610"/><rect x="47" y="47" width="2" height="1" fill="#f8801c"/><rect x="49" y="47" width="2" height="1" fill="#ffbe3c"/><rect x="51" y="47" width="4" height="1" fill="#fff4be"/><rect x="55" y="47" width="2" height="1" fill="#ffbe3c"/><rect x="57" y="47" width="2" height="1" fill="#f8801c"/><rect x="59" y="47" width="2" height="1" fill="#c64610"/><rect x="6" y="48" width="1" height="1" fill="#1a1a1a"/><rect x="7" y="48" width="3" height="1" fill="#1c2c5c"/><rect x="10" y="48" width="1" height="1" fill="#1a1a1a"/><rect x="15" y="48" width="1" height="1" fill="#1a1a1a"/><rect x="16" y="48" width="3" height="1" fill="#1c2c5c"/><rect x="19" y="48" width="1" height="1" fill="#1a1a1a"/><rect x="33" y="48" width="3" height="1" fill="#1a1a1a"/><rect x="45" y="48" width="3" height="1" fill="#c64610"/><rect x="48" y="48" width="2" height="1" fill="#f8801c"/><rect x="50" y="48" width="6" height="1" fill="#fff4be"/><rect x="56" y="48" width="2" height="1" fill="#ffbe3c"/><rect x="58" y="48" width="2" height="1" fill="#f8801c"/><rect x="60" y="48" width="2" height="1" fill="#c64610"/><rect x="5" y="49" width="1" height="1" fill="#1a1a1a"/><rect x="6" y="49" width="3" height="1" fill="#1c2c5c"/><rect x="9" y="49" width="1" height="1" fill="#1a1a1a"/><rect x="15" y="49" width="1" height="1" fill="#1a1a1a"/><rect x="16" y="49" width="3" height="1" fill="#1c2c5c"/><rect x="19" y="49" width="1" height="1" fill="#1a1a1a"/><rect x="36" y="49" width="3" height="1" fill="#1a1a1a"/><rect x="46" y="49" width="1" height="1" fill="#c64610"/><rect x="47" y="49" width="2" height="1" fill="#f8801c"/><rect x="49" y="49" width="2" height="1" fill="#ffbe3c"/><rect x="51" y="49" width="4" height="1" fill="#fff4be"/><rect x="55" y="49" width="4" height="1" fill="#ffbe3c"/><rect x="59" y="49" width="2" height="1" fill="#f8801c"/><rect x="61" y="49" width="1" height="1" fill="#c64610"/><rect x="5" y="50" width="1" height="1" fill="#1a1a1a"/><rect x="6" y="50" width="3" height="1" fill="#1c2c5c"/><rect x="9" y="50" width="1" height="1" fill="#1a1a1a"/><rect x="15" y="50" width="1" height="1" fill="#1a1a1a"/><rect x="16" y="50" width="2" height="1" fill="#1c2c5c"/><rect x="18" y="50" width="1" height="1" fill="#ffbe3c"/><rect x="19" y="50" width="1" height="1" fill="#1a1a1a"/><rect x="39" y="50" width="3" height="1" fill="#1a1a1a"/><rect x="46" y="50" width="2" height="1" fill="#c64610"/><rect x="48" y="50" width="2" height="1" fill="#f8801c"/><rect x="50" y="50" width="2" height="1" fill="#ffbe3c"/><rect x="52" y="50" width="2" height="1" fill="#fff4be"/><rect x="54" y="50" width="4" height="1" fill="#ffbe3c"/><rect x="58" y="50" width="2" height="1" fill="#f8801c"/><rect x="60" y="50" width="1" height="1" fill="#c64610"/><rect x="4" y="51" width="1" height="1" fill="#1a1a1a"/><rect x="5" y="51" width="3" height="1" fill="#1c2c5c"/><rect x="8" y="51" width="1" height="1" fill="#1a1a1a"/><rect x="15" y="51" width="1" height="1" fill="#1a1a1a"/><rect x="16" y="51" width="3" height="1" fill="#1c2c5c"/><rect x="19" y="51" width="1" height="1" fill="#1a1a1a"/><rect x="39" y="51" width="22" height="1" fill="#1a1a1a"/><rect x="63" y="51" width="3" height="1" fill="#1a1a1a"/><rect x="4" y="52" width="1" height="1" fill="#1a1a1a"/><rect x="5" y="52" width="5" height="1" fill="#1c2c5c"/><rect x="10" y="52" width="1" height="1" fill="#1a1a1a"/><rect x="15" y="52" width="1" height="1" fill="#1a1a1a"/><rect x="16" y="52" width="3" height="1" fill="#1c2c5c"/><rect x="19" y="52" width="1" height="1" fill="#1a1a1a"/><rect x="38" y="52" width="1" height="1" fill="#1a1a1a"/><rect x="39" y="52" width="3" height="1" fill="#2c447f"/><rect x="42" y="52" width="1" height="1" fill="#1a1a1a"/><rect x="44" y="52" width="3" height="1" fill="#1a1a1a"/><rect x="47" y="52" width="1" height="1" fill="#c64610"/><rect x="48" y="52" width="4" height="1" fill="#842a0e"/><rect x="52" y="52" width="1" height="1" fill="#c64610"/><rect x="53" y="52" width="3" height="1" fill="#842a0e"/><rect x="56" y="52" width="1" height="1" fill="#c64610"/><rect x="57" y="52" width="4" height="1" fill="#842a0e"/><rect x="61" y="52" width="2" height="1" fill="#1a1a1a"/><rect x="63" y="52" width="3" height="1" fill="#2c447f"/><rect x="66" y="52" width="1" height="1" fill="#1a1a1a"/><rect x="3" y="53" width="1" height="1" fill="#1a1a1a"/><rect x="4" y="53" width="7" height="1" fill="#1c2c5c"/><rect x="11" y="53" width="1" height="1" fill="#1a1a1a"/><rect x="15" y="53" width="1" height="1" fill="#1a1a1a"/><rect x="16" y="53" width="5" height="1" fill="#1c2c5c"/><rect x="21" y="53" width="1" height="1" fill="#1a1a1a"/><rect x="38" y="53" width="1" height="1" fill="#1a1a1a"/><rect x="39" y="53" width="3" height="1" fill="#1c2c5c"/><rect x="42" y="53" width="1" height="1" fill="#1a1a1a"/><rect x="44" y="53" width="1" height="1" fill="#1a1a1a"/><rect x="45" y="53" width="16" height="1" fill="#842a0e"/><rect x="61" y="53" width="2" height="1" fill="#1a1a1a"/><rect x="63" y="53" width="3" height="1" fill="#1c2c5c"/><rect x="66" y="53" width="1" height="1" fill="#1a1a1a"/><rect x="4" y="54" width="7" height="1" fill="#1a1a1a"/><rect x="15" y="54" width="7" height="1" fill="#1a1a1a"/><rect x="38" y="54" width="5" height="1" fill="#1a1a1a"/><rect x="44" y="54" width="1" height="1" fill="#c64610"/><rect x="45" y="54" width="16" height="1" fill="#1a1a1a"/><rect x="62" y="54" width="5" height="1" fill="#1a1a1a"/><rect x="37" y="55" width="1" height="1" fill="#c64610"/><rect x="39" y="55" width="1" height="1" fill="#c64610"/><rect x="41" y="55" width="1" height="1" fill="#c64610"/><rect x="43" y="55" width="1" height="1" fill="#c64610"/><rect x="45" y="55" width="1" height="1" fill="#c64610"/><rect x="47" y="55" width="1" height="1" fill="#c64610"/><rect x="49" y="55" width="1" height="1" fill="#c64610"/><rect x="51" y="55" width="1" height="1" fill="#c64610"/><rect x="53" y="55" width="1" height="1" fill="#c64610"/><rect x="55" y="55" width="1" height="1" fill="#c64610"/><rect x="57" y="55" width="1" height="1" fill="#c64610"/><rect x="59" y="55" width="1" height="1" fill="#c64610"/><rect x="61" y="55" width="1" height="1" fill="#c64610"/><rect x="63" y="55" width="1" height="1" fill="#c64610"/><rect x="65" y="55" width="1" height="1" fill="#c64610"/><rect x="67" y="55" width="1" height="1" fill="#c64610"/><rect x="12" y="56" width="1" height="1" fill="#842a0e"/><rect x="14" y="56" width="1" height="1" fill="#842a0e"/><rect x="16" y="56" width="1" height="1" fill="#842a0e"/><rect x="42" y="56" width="1" height="1" fill="#842a0e"/><rect x="44" y="56" width="1" height="1" fill="#842a0e"/><rect x="46" y="56" width="1" height="1" fill="#842a0e"/><rect x="48" y="56" width="1" height="1" fill="#842a0e"/><rect x="50" y="56" width="1" height="1" fill="#842a0e"/><rect x="52" y="56" width="1" height="1" fill="#842a0e"/><rect x="54" y="56" width="1" height="1" fill="#842a0e"/><rect x="56" y="56" width="1" height="1" fill="#842a0e"/><rect x="58" y="56" width="1" height="1" fill="#842a0e"/><rect x="60" y="56" width="1" height="1" fill="#842a0e"/><rect x="62" y="56" width="1" height="1" fill="#842a0e"/><rect x="64" y="56" width="1" height="1" fill="#842a0e"/><rect x="45" y="57" width="1" height="1" fill="#842a0e"/><rect x="48" y="57" width="1" height="1" fill="#842a0e"/><rect x="51" y="57" width="1" height="1" fill="#842a0e"/><rect x="54" y="57" width="1" height="1" fill="#842a0e"/><rect x="57" y="57" width="1" height="1" fill="#842a0e"/><rect x="60" y="57" width="1" height="1" fill="#842a0e"/></svg>