<svg xmlns="http://www.w3.org/2000/svg" viewBox="0 0 74 68" width="296" height="272" shape-rendering="crispEdges"><rect x="0" y="0" width="74" height="1" fill="#c5d3e8"/><rect x="0" y="1" width="74" height="1" fill="#c5d3e8"/><rect x="0" y="2" width="74" height="1" fill="#c5d3e8"/><rect x="0" y="3" width="74" height="1" fill="#c5d3e8"/><rect x="0" y="4" width="74" height="1" fill="#c5d3e8"/><rect x="0" y="5" width="74" height="1" fill="#c5d3e8"/><rect x="0" y="6" width="74" height="1" fill="#c5d3e8"/><rect x="0" y="7" width="74" height="1" fill="#c5d3e8"/><rect x="0" y="8" width="74" height="1" fill="#c5d3e8"/><rect x="0" y="9" width="74" height="1" fill="#c5d3e8"/><rect x="0" y="10" width="52" height="1" fill="#c5d3e8"/><rect x="52" y="10" width="6" height="1" fill="#f8801c"/><rect x="58" y="10" width="16" height="1" fill="#c5d3e8"/><rect x="0" y="11" width="50" height="1" fill="#c5d3e8"/><rect x="50" y="11" width="4" height="1" fill="#f8801c"/><rect x="54" y="11" width="2" height="1" fill="#c5d3e8"/><rect x="56" y="11" width="4" height="1" fill="#f8801c"/><rect x="60" y="11" width="14" height="1" fill="#c5d3e8"/><rect x="0" y="12" width="50" height="1" fill="#c5d3e8"/><rect x="50" y="12" width="2" height="1" fill="#f8801c"/><rect x="52" y="12" width="6" height="1" fill="#c5d3e8"/><rect x="58" y="12" width="2" height="1" fill="#f8801c"/><rect x="60" y="12" width="14" height="1" fill="#c5d3e8"/><rect x="0" y="13" width="6" height="1" fill="#c5d3e8"/><rect x="6" y="13" width="43" height="1" fill="#1a1a1a"/><rect x="49" y="13" width="2" height="1" fill="#f8801c"/><rect x="51" y="13" width="8" height="1" fill="#c5d3e8"/><rect x="59" y="13" width="2" height="1" fill="#f8801c"/><rect x="61" y="13" width="13" height="1" fill="#c5d3e8"/><rect x="0" y="14" width="5" height="1" fill="#c5d3e8"/><rect x="5" y="14" width="1" height="1" fill="#1a1a1a"/><rect x="6" y="14" width="43" height="1" fill="#445c93"/><rect x="49" y="14" width="2" height="1" fill="#f8801c"/><rect x="51" y="14" width="8" height="1" fill="#c5d3e8"/><rect x="59" y="14" width="2" height="1" fill="#f8801c"/><rect x="61" y="14" width="13" height="1" fill="#c5d3e8"/><rect x="0" y="15" width="5" height="1" fill="#c5d3e8"/><rect x="5" y="15" width="1" height="1" fill="#1a1a1a"/><rect x="6" y="15" width="43" height="1" fill="#445c93"/><rect x="49" y="15" width="1" height="1" fill="#f8801c"/><rect x="50" y="15" width="1" height="1" fill="#1a1a1a"/><rect x="51" y="15" width="2" height="1" fill="#6d82b4"/><rect x="53" y="15" width="7" height="1" fill="#c5d3e8"/><rect x="60" y="15" width="1" height="1" fill="#f8801c"/><rect x="61" y="15" width="13" height="1" fill="#c5d3e8"/><rect x="0" y="16" width="5" height="1" fill="#c5d3e8"/><rect x="5" y="16" width="1" height="1" fill="#1a1a1a"/><rect x="6" y="16" width="43" height="1" fill="#445c93"/><rect x="49" y="16" width="1" height="1" fill="#f8801c"/><rect x="50" y="16" width="1" height="1" fill="#1a1a1a"/><rect x="51" y="16" width="2" height="1" fill="#6d82b4"/><rect x="53" y="16" width="7" height="1" fill="#c5d3e8"/><rect x="60" y="16" width="1" height="1" fill="#f8801c"/><rect x="61" y="16" width="13" height="1" fill="#c5d3e8"/><rect x="0" y="17" width="5" height="1" fill="#c5d3e8"/><rect x="5" y="17" width="1" height="1" fill="#1a1a1a"/><rect x="6" y="17" width="43" height="1" fill="#445c93"/><rect x="49" y="17" width="2" height="1" fill="#f8801c"/><rect x="51" y="17" width="2" height="1" fill="#6d82b4"/><rect x="53" y="17" width="6" height="1" fill="#c5d3e8"/><rect x="59" y="17" width="2" height="1" fill="#f8801c"/><rect x="61" y="17" width="13" height="1" fill="#c5d3e8"/><rect x="0" y="18" width="5" height="1" fill="#c5d3e8"/><rect x="5" y="18" width="1" height="1" fill="#1a1a1a"/><rect x="6" y="18" width="2" height="1" fill="#445c93"/><rect x="8" y="18" width="2" height="1" fill="#c5d3e8"/><rect x="10" y="18" width="1" height="1" fill="#445c93"/><rect x="11" y="18" width="2" height="1" fill="#c5d3e8"/><rect x="13" y="18" width="1" height="1" fill="#445c93"/><rect x="14" y="18" width="2" height="1" fill="#c5d3e8"/><rect x="16" y="18" width="33" height="1" fill="#445c93"/><rect x="49" y="18" width="2" height="1" fill="#f8801c"/><rect x="51" y="18" width="2" height="1" fill="#6d82b4"/><rect x="53" y="18" width="6" height="1" fill="#c5d3e8"/><rect x="59" y="18" width="2" height="1" fill="#f8801c"/><rect x="61" y="18" width="13" height="1" fill="#c5d3e8"/><rect x="0" y="19" width="5" height="1" fill="#c5d3e8"/><rect x="5" y="19" width="1" height="1" fill="#1a1a1a"/><rect x="6" y="19" width="2" height="1" fill="#445c93"/><rect x="8" y="19" width="2" height="1" fill="#c5d3e8"/><rect x="10" y="19" width="1" height="1" fill="#445c93"/><rect x="11" y="19" width="2" height="1" fill="#c5d3e8"/><rect x="13" y="19" width="1" height="1" fill="#445c93"/><rect x="14" y="19" width="2" height="1" fill="#c5d3e8"/><rect x="16" y="19" width="3" height="1" fill="#445c93"/><rect x="19" y="19" width="20" height="1" fill="#c5d3e8"/><rect x="39" y="19" width="11" height="1" fill="#445c93"/><rect x="50" y="19" width="2" height="1" fill="#f8801c"/><rect x="52" y="19" width="1" height="1" fill="#6d82b4"/><rect x="53" y="19" width="5" height="1" fill="#c5d3e8"/><rect x="58" y="19" width="2" height="1" fill="#f8801c"/><rect x="60" y="19" width="14" height="1" fill="#c5d3e8"/><rect x="0" y="20" width="5" height="1" fill="#c5d3e8"/><rect x="5" y="20" width="1" height="1" fill="#1a1a1a"/><rect x="6" y="20" width="44" height="1" fill="#445c93"/><rect x="50" y="20" width="4" height="1" fill="#f8801c"/><rect x="54" y="20" width="2" height="1" fill="#c5d3e8"/><rect x="56" y="20" width="5" height="1" fill="#f8801c"/><rect x="61" y="20" width="13" height="1" fill="#c5d3e8"/><rect x="0" y="21" width="5" height="1" fill="#c5d3e8"/><rect x="5" y="21" width="1" height="1" fill="#1a1a1a"/><rect x="6" y="21" width="44" height="1" fill="#445c93"/><rect x="50" y="21" width="1" height="1" fill="#1a1a1a"/><rect x="51" y="21" width="1" height="1" fill="#6d82b4"/><rect x="52" y="21" width="6" height="1" fill="#f8801c"/><rect x="58" y="21" width="1" height="1" fill="#c5d3e8"/><rect x="59" y="21" width="3" height="1" fill="#f8801c"/><rect x="62" y="21" width="12" height="1" fill="#c5d3e8"/><rect x="0" y="22" width="5" height="1" fill="#c5d3e8"/><rect x="5" y="22" width="1" height="1" fill="#1a1a1a"/><rect x="6" y="22" width="44" height="1" fill="#445c93"/><rect x="50" y="22" width="1" height="1" fill="#1a1a1a"/><rect x="51" y="22" width="2" height="1" fill="#6d82b4"/><rect x="53" y="22" width="7" height="1" fill="#c5d3e8"/><rect x="60" y="22" width="3" height="1" fill="#f8801c"/><rect x="63" y="22" width="11" height="1" fill="#c5d3e8"/><rect x="0" y="23" width="5" height="1" fill="#c5d3e8"/><rect x="5" y="23" width="1" height="1" fill="#1a1a1a"/><rect x="6" y="23" width="5" height="1" fill="#445c93"/><rect x="11" y="23" width="1" height="1" fill="#c5d3e8"/><rect x="12" y="23" width="44" height="1" fill="#1a1a1a"/><rect x="56" y="23" width="5" height="1" fill="#c5d3e8"/><rect x="61" y="23" width="3" height="1" fill="#f8801c"/><rect x="64" y="23" width="10" height="1" fill="#c5d3e8"/><rect x="0" y="24" width="6" height="1" fill="#c5d3e8"/><rect x="6" y="24" width="6" height="1" fill="#1a1a1a"/><rect x="12" y="24" width="44" height="1" fill="#6d82b4"/><rect x="56" y="24" width="1" height="1" fill="#1a1a1a"/><rect x="57" y="24" width="5" height="1" fill="#c5d3e8"/><rect x="62" y="24" width="2" height="1" fill="#f8801c"/><rect x="64" y="24" width="10" height="1" fill="#c5d3e8"/><rect x="0" y="25" width="7" height="1" fill="#c5d3e8"/><rect x="7" y="25" width="4" height="1" fill="#6d82b4"/><rect x="11" y="25" width="1" height="1" fill="#1a1a1a"/><rect x="12" y="25" width="44" height="1" fill="#6d82b4"/><rect x="56" y="25" width="1" height="1" fill="#1a1a1a"/><rect x="57" y="25" width="2" height="1" fill="#6d82b4"/><rect x="59" y="25" width="15" height="1" fill="#c5d3e8"/><rect x="0" y="26" width="7" height="1" fill="#c5d3e8"/><rect x="7" y="26" width="4" height="1" fill="#6d82b4"/><rect x="11" y="26" width="1" height="1" fill="#1a1a1a"/><rect x="12" y="26" width="44" height="1" fill="#6d82b4"/><rect x="56" y="26" width="1" height="1" fill="#1a1a1a"/><rect x="57" y="26" width="2" height="1" fill="#6d82b4"/><rect x="59" y="26" width="15" height="1" fill="#c5d3e8"/><rect x="0" y="27" width="11" height="1" fill="#c5d3e8"/><rect x="11" y="27" width="1" height="1" fill="#1a1a1a"/><rect x="12" y="27" width="44" height="1" fill="#6d82b4"/><rect x="56" y="27" width="1" height="1" fill="#1a1a1a"/><rect x="57" y="27" width="2" height="1" fill="#6d82b4"/><rect x="59" y="27" width="15" height="1" fill="#c5d3e8"/><rect x="0" y="28" width="11" height="1" fill="#c5d3e8"/><rect x="11" y="28" width="1" height="1" fill="#1a1a1a"/><rect x="12" y="28" width="2" height="1" fill="#6d82b4"/><rect x="14" y="28" width="2" height="1" fill="#c5d3e8"/><rect x="16" y="28" width="1" height="1" fill="#6d82b4"/><rect x="17" y="28" width="2" height="1" fill="#c5d3e8"/><rect x="19" y="28" width="1" height="1" fill="#6d82b4"/><rect x="20" y="28" width="2" height="1" fill="#c5d3e8"/><rect x="22" y="28" width="34" height="1" fill="#6d82b4"/><rect x="56" y="28" width="1" height="1" fill="#1a1a1a"/><rect x="57" y="28" width="2" height="1" fill="#6d82b4"/><rect x="59" y="28" width="15" height="1" fill="#c5d3e8"/><rect x="0" y="29" width="11" height="1" fill="#c5d3e8"/><rect x="11" y="29" width="1" height="1" fill="#1a1a1a"/><rect x="12" y="29" width="2" height="1" fill="#6d82b4"/><rect x="14" y="29" width="2" height="1" fill="#c5d3e8"/><rect x="16" y="29" width="1" height="1" fill="#6d82b4"/><rect x="17" y="29" width="2" height="1" fill="#c5d3e8"/><rect x="19" y="29" width="1" height="1" fill="#6d82b4"/><rect x="20" y="29" width="2" height="1" fill="#c5d3e8"/><rect x="22" y="29" width="3" height="1" fill="#6d82b4"/><rect x="25" y="29" width="24" height="1" fill="#c5d3e8"/><rect x="49" y="29" width="7" height="1" fill="#6d82b4"/><rect x="56" y="29" width="1" height="1" fill="#1a1a1a"/><rect x="57" y="29" width="2" height="1" fill="#6d82b4"/><rect x="59" y="29" width="15" height="1" fill="#c5d3e8"/><rect x="0" y="30" width="11" height="1" fill="#c5d3e8"/><rect x="11" y="30" width="1" height="1" fill="#1a1a1a"/><rect x="12" y="30" width="44" height="1" fill="#6d82b4"/><rect x="56" y="30" width="1" height="1" fill="#1a1a1a"/><rect x="57" y="30" width="2" height="1" fill="#6d82b4"/><rect x="59" y="30" width="15" height="1" fill="#c5d3e8"/><rect x="0" y="31" width="11" height="1" fill="#c5d3e8"/><rect x="11" y="31" width="1" height="1" fill="#1a1a1a"/><rect x="12" y="31" width="44" height="1" fill="#6d82b4"/><rect x="56" y="31" width="1" height="1" fill="#1a1a1a"/><rect x="57" y="31" width="2" height="1" fill="#6d82b4"/><rect x="59" y="31" width="15" height="1" fill="#c5d3e8"/><rect x="0" y="32" width="11" height="1" fill="#c5d3e8"/><rect x="11" y="32" width="1" height="1" fill="#1a1a1a"/><rect x="12" y="32" width="44" height="1" fill="#6d82b4"/><rect x="56" y="32" width="1" height="1" fill="#1a1a1a"/><rect x="57" y="32" width="2" height="1" fill="#6d82b4"/><rect x="59" y="32" width="15" height="1" fill="#c5d3e8"/><rect x="0" y="33" width="11" height="1" fill="#c5d3e8"/><rect x="11" y="33" width="1" height="1" fill="#1a1a1a"/><rect x="12" y="33" width="5" height="1" fill="#6d82b4"/><rect x="17" y="33" width="1" height="1" fill="#c5d3e8"/><rect x="18" y="33" width="44" height="1" fill="#1a1a1a"/><rect x="62" y="33" width="12" height="1" fill="#c5d3e8"/><rect x="0" y="34" width="12" height="1" fill="#c5d3e8"/><rect x="12" y="34" width="6" height="1" fill="#1a1a1a"/><rect x="18" y="34" width="44" height="1" fill="#f8f7f4"/><rect x="62" y="34" width="1" height="1" fill="#1a1a1a"/><rect x="63" y="34" width="11" height="1" fill="#c5d3e8"/><rect x="0" y="35" width="13" height="1" fill="#c5d3e8"/><rect x="13" y="35" width="4" height="1" fill="#6d82b4"/><rect x="17" y="35" width="1" height="1" fill="#1a1a1a"/><rect x="18" y="35" width="44" height="1" fill="#f8f7f4"/><rect x="62" y="35" width="1" height="1" fill="#1a1a1a"/><rect x="63" y="35" width="2" height="1" fill="#6d82b4"/><rect x="65" y="35" width="9" height="1" fill="#c5d3e8"/><rect x="0" y="36" width="13" height="1" fill="#c5d3e8"/><rect x="13" y="36" width="4" height="1" fill="#6d82b4"/><rect x="17" y="36" width="1" height="1" fill="#1a1a1a"/><rect x="18" y="36" width="44" height="1" fill="#f8f7f4"/><rect x="62" y="36" width="1" height="1" fill="#1a1a1a"/><rect x="63" y="36" width="2" height="1" fill="#6d82b4"/><rect x="65" y="36" width="9" height="1" fill="#c5d3e8"/><rect x="0" y="37" width="17" height="1" fill="#c5d3e8"/><rect x="17" y="37" width="1" height="1" fill="#1a1a1a"/><rect x="18" y="37" width="44" height="1" fill="#f8f7f4"/><rect x="62" y="37" width="1" height="1" fill="#1a1a1a"/><rect x="63" y="37" width="2" height="1" fill="#6d82b4"/><rect x="65" y="37" width="9" height="1" fill="#c5d3e8"/><rect x="0" y="38" width="17" height="1" fill="#c5d3e8"/><rect x="17" y="38" width="1" height="1" fill="#1a1a1a"/><rect x="18" y="38" width="2" height="1" fill="#f8f7f4"/><rect x="20" y="38" width="2" height="1" fill="#6d82b4"/><rect x="22" y="38" width="1" height="1" fill="#f8f7f4"/><rect x="23" y="38" width="2" height="1" fill="#6d82b4"/><rect x="25" y="38" width="1" height="1" fill="#f8f7f4"/><rect x="26" y="38" width="2" height="1" fill="#6d82b4"/><rect x="28" y="38" width="34" height="1" fill="#f8f7f4"/><rect x="62" y="38" width="1" height="1" fill="#1a1a1a"/><rect x="63" y="38" width="2" height="1" fill="#6d82b4"/><rect x="65" y="38" width="9" height="1" fill="#c5d3e8"/><rect x="0" y="39" width="17" height="1" fill="#c5d3e8"/><rect x="17" y="39" width="1" height="1" fill="#1a1a1a"/><rect x="18" y="39" width="2" height="1" fill="#f8f7f4"/><rect x="20" y="39" width="2" height="1" fill="#6d82b4"/><rect x="22" y="39" width="1" height="1" fill="#f8f7f4"/><rect x="23" y="39" width="2" height="1" fill="#6d82b4"/><rect x="25" y="39" width="1" height="1" fill="#f8f7f4"/><rect x="26" y="39" width="2" height="1" fill="#6d82b4"/><rect x="28" y="39" width="3" height="1" fill="#f8f7f4"/><rect x="31" y="39" width="18" height="1" fill="#6d82b4"/><rect x="49" y="39" width="13" height="1" fill="#f8f7f4"/><rect x="62" y="39" width="1" height="1" fill="#1a1a1a"/><rect x="63" y="39" width="2" height="1" fill="#6d82b4"/><rect x="65" y="39" width="9" height="1" fill="#c5d3e8"/><rect x="0" y="40" width="17" height="1" fill="#c5d3e8"/><rect x="17" y="40" width="1" height="1" fill="#1a1a1a"/><rect x="18" y="40" width="44" height="1" fill="#f8f7f4"/><rect x="62" y="40" width="1" height="1" fill="#1a1a1a"/><rect x="63" y="40" width="2" height="1" fill="#6d82b4"/><rect x="65" y="40" width="9" height="1" fill="#c5d3e8"/><rect x="0" y="41" width="17" height="1" fill="#c5d3e8"/><rect x="17" y="41" width="1" height="1" fill="#1a1a1a"/><rect x="18" y="41" width="44" height="1" fill="#f8f7f4"/><rect x="62" y="41" width="1" height="1" fill="#1a1a1a"/><rect x="63" y="41" width="2" height="1" fill="#6d82b4"/><rect x="65" y="41" width="9" height="1" fill="#c5d3e8"/><rect x="0" y="42" width="17" height="1" fill="#c5d3e8"/><rect x="17" y="42" width="1" height="1" fill="#1a1a1a"/><rect x="18" y="42" width="44" height="1" fill="#f8f7f4"/><rect x="62" y="42" width="1" height="1" fill="#1a1a1a"/><rect x="63" y="42" width="2" height="1" fill="#6d82b4"/><rect x="65" y="42" width="9" height="1" fill="#c5d3e8"/><rect x="0" y="43" width="17" height="1" fill="#c5d3e8"/><rect x="17" y="43" width="1" height="1" fill="#1a1a1a"/><rect x="18" y="43" width="5" height="1" fill="#f8f7f4"/><rect x="23" y="43" width="1" height="1" fill="#c5d3e8"/><rect x="24" y="43" width="44" height="1" fill="#1a1a1a"/><rect x="68" y="43" width="6" height="1" fill="#c5d3e8"/><rect x="0" y="44" width="18" height="1" fill="#c5d3e8"/><rect x="18" y="44" width="6" height="1" fill="#1a1a1a"/><rect x="24" y="44" width="44" height="1" fill="#ffffff"/><rect x="68" y="44" width="1" height="1" fill="#1a1a1a"/><rect x="69" y="44" width="5" height="1" fill="#c5d3e8"/><rect x="0" y="45" width="19" height="1" fill="#c5d3e8"/><rect x="19" y="45" width="4" height="1" fill="#6d82b4"/><rect x="23" y="45" width="1" height="1" fill="#1a1a1a"/><rect x="24" y="45" width="44" height="1" fill="#ffffff"/><rect x="68" y="45" width="1" height="1" fill="#1a1a1a"/><rect x="69" y="45" width="2" height="1" fill="#6d82b4"/><rect x="71" y="45" width="3" height="1" fill="#c5d3e8"/><rect x="0" y="46" width="19" height="1" fill="#c5d3e8"/><rect x="19" y="46" width="4" height="1" fill="#6d82b4"/><rect x="23" y="46" width="1" height="1" fill="#1a1a1a"/><rect x="24" y="46" width="44" height="1" fill="#ffffff"/><rect x="68" y="46" width="1" height="1" fill="#1a1a1a"/><rect x="69" y="46" width="2" height="1" fill="#6d82b4"/><rect x="71" y="46" width="3" height="1" fill="#c5d3e8"/><rect x="0" y="47" width="23" height="1" fill="#c5d3e8"/><rect x="23" y="47" width="1" height="1" fill="#1a1a1a"/><rect x="24" y="47" width="44" height="1" fill="#ffffff"/><rect x="68" y="47" width="1" height="1" fill="#1a1a1a"/><rect x="69" y="47" width="2" height="1" fill="#6d82b4"/><rect x="71" y="47" width="3" height="1" fill="#c5d3e8"/><rect x="0" y="48" width="23" height="1" fill="#c5d3e8"/><rect x="23" y="48" width="1" height="1" fill="#1a1a1a"/><rect x="24" y="48" width="2" height="1" fill="#ffffff"/><rect x="26" y="48" width="2" height="1" fill="#6d82b4"/><rect x="28" y="48" width="1" height="1" fill="#ffffff"/><rect x="29" y="48" width="2" height="1" fill="#6d82b4"/><rect x="31" y="48" width="1" height="1" fill="#ffffff"/><rect x="32" y="48" width="2" height="1" fill="#6d82b4"/><rect x="34" y="48" width="34" height="1" fill="#ffffff"/><rect x="68" y="48" width="1" height="1" fill="#1a1a1a"/><rect x="69" y="48" width="2" height="1" fill="#6d82b4"/><rect x="71" y="48" width="3" height="1" fill="#c5d3e8"/><rect x="0" y="49" width="23" height="1" fill="#c5d3e8"/><rect x="23" y="49" width="1" height="1" fill="#1a1a1a"/><rect x="24" y="49" width="2" height="1" fill="#ffffff"/><rect x="26" y="49" width="2" height="1" fill="#6d82b4"/><rect x="28" y="49" width="1" height="1" fill="#ffffff"/><rect x="29" y="49" width="2" height="1" fill="#6d82b4"/><rect x="31" y="49" width="1" height="1" fill="#ffffff"/><rect x="32" y="49" width="2" height="1" fill="#6d82b4"/><rect x="34" y="49" width="3" height="1" fill="#ffffff"/><rect x="37" y="49" width="22" height="1" fill="#6d82b4"/><rect x="59" y="49" width="9" height="1" fill="#ffffff"/><rect x="68" y="49" width="1" height="1" fill="#1a1a1a"/><rect x="69" y="49" width="2" height="1" fill="#6d82b4"/><rect x="71" y="49" width="3" height="1" fill="#c5d3e8"/><rect x="0" y="50" width="23" height="1" fill="#c5d3e8"/><rect x="23" y="50" width="1" height="1" fill="#1a1a1a"/><rect x="24" y="50" width="44" height="1" fill="#ffffff"/><rect x="68" y="50" width="1" height="1" fill="#1a1a1a"/><rect x="69" y="50" width="2" height="1" fill="#6d82b4"/><rect x="71" y="50" width="3" height="1" fill="#c5d3e8"/><rect x="0" y="51" width="23" height="1" fill="#c5d3e8"/><rect x="23" y="51" width="1" height="1" fill="#1a1a1a"/><rect x="24" y="51" width="44" height="1" fill="#ffffff"/><rect x="68" y="51" width="1" height="1" fill="#1a1a1a"/><rect x="69" y="51" width="2" height="1" fill="#6d82b4"/><rect x="71" y="51" width="3" height="1" fill="#c5d3e8"/><rect x="0" y="52" width="23" height="1" fill="#c5d3e8"/><rect x="23" y="52" width="1" height="1" fill="#1a1a1a"/><rect x="24" y="52" width="44" height="1" fill="#ffffff"/><rect x="68" y="52" width="1" height="1" fill="#1a1a1a"/><rect x="69" y="52" width="2" height="1" fill="#6d82b4"/><rect x="71" y="52" width="3" height="1" fill="#c5d3e8"/><rect x="0" y="53" width="23" height="1" fill="#c5d3e8"/><rect x="23" y="53" width="1" height="1" fill="#1a1a1a"/><rect x="24" y="53" width="44" height="1" fill="#ffffff"/><rect x="68" y="53" width="1" height="1" fill="#1a1a1a"/><rect x="69" y="53" width="2" height="1" fill="#6d82b4"/><rect x="71" y="53" width="3" height="1" fill="#c5d3e8"/><rect x="0" y="54" width="24" height="1" fill="#c5d3e8"/><rect x="24" y="54" width="44" height="1" fill="#1a1a1a"/><rect x="68" y="54" width="1" height="1" fill="#c5d3e8"/><rect x="69" y="54" width="2" height="1" fill="#6d82b4"/><rect x="71" y="54" width="3" height="1" fill="#c5d3e8"/><rect x="0" y="55" width="25" height="1" fill="#c5d3e8"/><rect x="25" y="55" width="46" height="1" fill="#6d82b4"/><rect x="71" y="55" width="3" height="1" fill="#c5d3e8"/><rect x="0" y="56" width="25" height="1" fill="#c5d3e8"/><rect x="25" y="56" width="46" height="1" fill="#6d82b4"/><rect x="71" y="56" width="3" height="1" fill="#c5d3e8"/><rect x="0" y="57" width="74" height="1" fill="#c5d3e8"/><rect x="0" y="58" width="74" height="1" fill="#c5d3e8"/><rect x="0" y="59" width="74" height="1" fill="#c5d3e8"/><rect x="0" y="60" width="74" height="1" fill="#c5d3e8"/><rect x="0" y="61" width="74" height="1" fill="#c5d3e8"/><rect x="0" y="62" width="74" height="1" fill="#c5d3e8"/><rect x="0" y="63" width="74" height="1" fill="#c5d3e8"/><rect x="0" y="64" width="74" height="1" fill="#c5d3e8"/><rect x="0" y="65" width="74" height="1" fill="#c5d3e8"/><rect x="0" y="66" width="74" height="1" fill="#c5d3e8"/><rect x="0" y="67" width="74" height="1" fill="#c5d3e8"/></svg>