<svg xmlns="http://www.w3.org/2000/svg" viewBox="0 0 74 68" width="296" height="272" shape-rendering="crispEdges"><rect x="0" y="0" width="74" height="1" fill="#c5d3e8"/><rect x="0" y="1" width="74" height="1" fill="#c5d3e8"/><rect x="0" y="2" width="74" height="1" fill="#c5d3e8"/><rect x="0" y="3" width="74" height="1" fill="#c5d3e8"/><rect x="0" y="4" width="74" height="1" fill="#c5d3e8"/><rect x="0" y="5" width="5" height="1" fill="#c5d3e8"/><rect x="5" y="5" width="62" height="1" fill="#1a1a1a"/><rect x="67" y="5" width="7" height="1" fill="#c5d3e8"/><rect x="0" y="6" width="4" height="1" fill="#c5d3e8"/><rect x="4" y="6" width="1" height="1" fill="#1a1a1a"/><rect x="5" y="6" width="62" height="1" fill="#f8f7f4"/><rect x="67" y="6" width="1" height="1" fill="#1a1a1a"/><rect x="68" y="6" width="6" height="1" fill="#c5d3e8"/><rect x="0" y="7" width="4" height="1" fill="#c5d3e8"/><rect x="4" y="7" width="1" height="1" fill="#1a1a1a"/><rect x="5" y="7" width="12" height="1" fill="#f8f7f4"/><rect x="17" y="7" width="47" height="1" fill="#c5d3e8"/><rect x="64" y="7" width="3" height="1" fill="#f8f7f4"/><rect x="67" y="7" width="1" height="1" fill="#1a1a1a"/><rect x="68" y="7" width="2" height="1" fill="#6d82b4"/><rect x="70" y="7" width="4" height="1" fill="#c5d3e8"/><rect x="0" y="8" width="4" height="1" fill="#c5d3e8"/><rect x="4" y="8" width="1" height="1" fill="#1a1a1a"/><rect x="5" y="8" width="2" height="1" fill="#f8f7f4"/><rect x="7" y="8" width="2" height="1" fill="#6d82b4"/><rect x="9" y="8" width="1" height="1" fill="#f8f7f4"/><rect x="10" y="8" width="2" height="1" fill="#6d82b4"/><rect x="12" y="8" width="1" height="1" fill="#f8f7f4"/><rect x="13" y="8" width="2" height="1" fill="#6d82b4"/><rect x="15" y="8" width="2" height="1" fill="#f8f7f4"/><rect x="17" y="8" width="47" height="1" fill="#c5d3e8"/><rect x="64" y="8" width="3" height="1" fill="#f8f7f4"/><rect x="67" y="8" width="1" height="1" fill="#1a1a1a"/><rect x="68" y="8" width="2" height="1" fill="#6d82b4"/><rect x="70" y="8" width="4" height="1" fill="#c5d3e8"/><rect x="0" y="9" width="4" height="1" fill="#c5d3e8"/><rect x="4" y="9" width="1" height="1" fill="#1a1a1a"/><rect x="5" y="9" width="2" height="1" fill="#f8f7f4"/><rect x="7" y="9" width="2" height="1" fill="#6d82b4"/><rect x="9" y="9" width="1" height="1" fill="#f8f7f4"/><rect x="10" y="9" width="2" height="1" fill="#6d82b4"/><rect x="12" y="9" width="1" height="1" fill="#f8f7f4"/><rect x="13" y="9" width="2" height="1" fill="#6d82b4"/><rect x="15" y="9" width="2" height="1" fill="#f8f7f4"/><rect x="17" y="9" width="2" height="1" fill="#c5d3e8"/><rect x="19" y="9" width="10" height="1" fill="#6d82b4"/><rect x="29" y="9" width="35" height="1" fill="#c5d3e8"/><rect x="64" y="9" width="3" height="1" fill="#f8f7f4"/><rect x="67" y="9" width="1" height="1" fill="#1a1a1a"/><rect x="68" y="9" width="2" height="1" fill="#6d82b4"/><rect x="70" y="9" width="4" height="1" fill="#c5d3e8"/><rect x="0" y="10" width="4" height="1" fill="#c5d3e8"/><rect x="4" y="10" width="1" height="1" fill="#1a1a1a"/><rect x="5" y="10" width="12" height="1" fill="#f8f7f4"/><rect x="17" y="10" width="47" height="1" fill="#c5d3e8"/><rect x="64" y="10" width="3" height="1" fill="#f8f7f4"/><rect x="67" y="10" width="1" height="1" fill="#1a1a1a"/><rect x="68" y="10" width="2" height="1" fill="#6d82b4"/><rect x="70" y="10" width="4" height="1" fill="#c5d3e8"/><rect x="0" y="11" width="4" height="1" fill="#c5d3e8"/><rect x="4" y="11" width="1" height="1" fill="#1a1a1a"/><rect x="5" y="11" width="62" height="1" fill="#f8f7f4"/><rect x="67" y="11" width="1" height="1" fill="#1a1a1a"/><rect x="68" y="11" width="2" height="1" fill="#6d82b4"/><rect x="70" y="11" width="4" height="1" fill="#c5d3e8"/><rect x="0" y="12" width="4" height="1" fill="#c5d3e8"/><rect x="4" y="12" width="1" height="1" fill="#1a1a1a"/><rect x="5" y="12" width="62" height="1" fill="#f8f7f4"/><rect x="67" y="12" width="1" height="1" fill="#1a1a1a"/><rect x="68" y="12" width="2" height="1" fill="#6d82b4"/><rect x="70" y="12" width="4" height="1" fill="#c5d3e8"/><rect x="0" y="13" width="4" height="1" fill="#c5d3e8"/><rect x="4" y="13" width="1" height="1" fill="#1a1a1a"/><rect x="5" y="13" width="62" height="1" fill="#c5d3e8"/><rect x="67" y="13" width="1" height="1" fill="#1a1a1a"/><rect x="68" y="13" width="2" height="1" fill="#6d82b4"/><rect x="70" y="13" width="4" height="1" fill="#c5d3e8"/><rect x="0" y="14" width="4" height="1" fill="#c5d3e8"/><rect x="4" y="14" width="1" height="1" fill="#1a1a1a"/><rect x="5" y="14" width="62" height="1" fill="#ffffff"/><rect x="67" y="14" width="1" height="1" fill="#1a1a1a"/><rect x="68" y="14" width="2" height="1" fill="#6d82b4"/><rect x="70" y="14" width="4" height="1" fill="#c5d3e8"/><rect x="0" y="15" width="4" height="1" fill="#c5d3e8"/><rect x="4" y="15" width="1" height="1" fill="#1a1a1a"/><rect x="5" y="15" width="62" height="1" fill="#ffffff"/><rect x="67" y="15" width="1" height="1" fill="#1a1a1a"/><rect x="68" y="15" width="2" height="1" fill="#6d82b4"/><rect x="70" y="15" width="4" height="1" fill="#c5d3e8"/><rect x="0" y="16" width="4" height="1" fill="#c5d3e8"/><rect x="4" y="16" width="1" height="1" fill="#1a1a1a"/><rect x="5" y="16" width="62" height="1" fill="#ffffff"/><rect x="67" y="16" width="1" height="1" fill="#1a1a1a"/><rect x="68" y="16" width="2" height="1" fill="#6d82b4"/><rect x="70" y="16" width="4" height="1" fill="#c5d3e8"/><rect x="0" y="17" width="4" height="1" fill="#c5d3e8"/><rect x="4" y="17" width="1" height="1" fill="#1a1a1a"/><rect x="5" y="17" width="4" height="1" fill="#ffffff"/><rect x="9" y="17" width="26" height="1" fill="#c5d3e8"/><rect x="35" y="17" width="32" height="1" fill="#ffffff"/><rect x="67" y="17" width="1" height="1" fill="#1a1a1a"/><rect x="68" y="17" width="2" height="1" fill="#6d82b4"/><rect x="70" y="17" width="4" height="1" fill="#c5d3e8"/><rect x="0" y="18" width="4" height="1" fill="#c5d3e8"/><rect x="4" y="18" width="1" height="1" fill="#1a1a1a"/><rect x="5" y="18" width="62" height="1" fill="#ffffff"/><rect x="67" y="18" width="1" height="1" fill="#1a1a1a"/><rect x="68" y="18" width="2" height="1" fill="#6d82b4"/><rect x="70" y="18" width="4" height="1" fill="#c5d3e8"/><rect x="0" y="19" width="4" height="1" fill="#c5d3e8"/><rect x="4" y="19" width="1" height="1" fill="#1a1a1a"/><rect x="5" y="19" width="62" height="1" fill="#ffffff"/><rect x="67" y="19" width="1" height="1" fill="#1a1a1a"/><rect x="68" y="19" width="2" height="1" fill="#6d82b4"/><rect x="70" y="19" width="4" height="1" fill="#c5d3e8"/><rect x="0" y="20" width="4" height="1" fill="#c5d3e8"/><rect x="4" y="20" width="1" height="1" fill="#1a1a1a"/><rect x="5" y="20" width="4" height="1" fill="#ffffff"/><rect x="9" y="20" width="18" height="1" fill="#c5d3e8"/><rect x="27" y="20" width="40" height="1" fill="#ffffff"/><rect x="67" y="20" width="1" height="1" fill="#1a1a1a"/><rect x="68" y="20" width="2" height="1" fill="#6d82b4"/><rect x="70" y="20" width="4" height="1" fill="#c5d3e8"/><rect x="0" y="21" width="4" height="1" fill="#c5d3e8"/><rect x="4" y="21" width="1" height="1" fill="#1a1a1a"/><rect x="5" y="21" width="62" height="1" fill="#ffffff"/><rect x="67" y="21" width="1" height="1" fill="#1a1a1a"/><rect x="68" y="21" width="2" height="1" fill="#6d82b4"/><rect x="70" y="21" width="4" height="1" fill="#c5d3e8"/><rect x="0" y="22" width="4" height="1" fill="#c5d3e8"/><rect x="4" y="22" width="1" height="1" fill="#1a1a1a"/><rect x="5" y="22" width="62" height="1" fill="#ffffff"/><rect x="67" y="22" width="1" height="1" fill="#1a1a1a"/><rect x="68" y="22" width="2" height="1" fill="#6d82b4"/><rect x="70" y="22" width="4" height="1" fill="#c5d3e8"/><rect x="0" y="23" width="4" height="1" fill="#c5d3e8"/><rect x="4" y="23" width="1" height="1" fill="#1a1a1a"/><rect x="5" y="23" width="62" height="1" fill="#ffffff"/><rect x="67" y="23" width="1" height="1" fill="#1a1a1a"/><rect x="68" y="23" width="2" height="1" fill="#6d82b4"/><rect x="70" y="23" width="4" height="1" fill="#c5d3e8"/><rect x="0" y="24" width="4" height="1" fill="#c5d3e8"/><rect x="4" y="24" width="1" height="1" fill="#1a1a1a"/><rect x="5" y="24" width="62" height="1" fill="#ffffff"/><rect x="67" y="24" width="1" height="1" fill="#1a1a1a"/><rect x="68" y="24" width="2" height="1" fill="#6d82b4"/><rect x="70" y="24" width="4" height="1" fill="#c5d3e8"/><rect x="0" y="25" width="4" height="1" fill="#c5d3e8"/><rect x="4" y="25" width="1" height="1" fill="#1a1a1a"/><rect x="5" y="25" width="62" height="1" fill="#ffffff"/><rect x="67" y="25" width="1" height="1" fill="#1a1a1a"/><rect x="68" y="25" width="2" height="1" fill="#6d82b4"/><rect x="70" y="25" width="4" height="1" fill="#c5d3e8"/><rect x="0" y="26" width="4" height="1" fill="#c5d3e8"/><rect x="4" y="26" width="1" height="1" fill="#1a1a1a"/><rect x="5" y="26" width="31" height="1" fill="#ffffff"/><rect x="36" y="26" width="2" height="1" fill="#f8801c"/><rect x="38" y="26" width="2" height="1" fill="#ffffff"/><rect x="40" y="26" width="2" height="1" fill="#f8801c"/><rect x="42" y="26" width="25" height="1" fill="#ffffff"/><rect x="67" y="26" width="1" height="1" fill="#1a1a1a"/><rect x="68" y="26" width="2" height="1" fill="#6d82b4"/><rect x="70" y="26" width="4" height="1" fill="#c5d3e8"/><rect x="0" y="27" width="4" height="1" fill="#c5d3e8"/><rect x="4" y="27" width="1" height="1" fill="#1a1a1a"/><rect x="5" y="27" width="31" height="1" fill="#ffffff"/><rect x="36" y="27" width="2" height="1" fill="#f8801c"/><rect x="38" y="27" width="2" height="1" fill="#ffffff"/><rect x="40" y="27" width="2" height="1" fill="#f8801c"/><rect x="42" y="27" width="3" height="1" fill="#ffffff"/><rect x="45" y="27" width="2" height="1" fill="#f8801c"/><rect x="47" y="27" width="20" height="1" fill="#ffffff"/><rect x="67" y="27" width="1" height="1" fill="#1a1a1a"/><rect x="68" y="27" width="2" height="1" fill="#6d82b4"/><rect x="70" y="27" width="4" height="1" fill="#c5d3e8"/><rect x="0" y="28" width="4" height="1" fill="#c5d3e8"/><rect x="4" y="28" width="1" height="1" fill="#1a1a1a"/><rect x="5" y="28" width="40" height="1" fill="#ffffff"/><rect x="45" y="28" width="2" height="1" fill="#f8801c"/><rect x="47" y="28" width="20" height="1" fill="#ffffff"/><rect x="67" y="28" width="1" height="1" fill="#1a1a1a"/><rect x="68" y="28" width="2" height="1" fill="#6d82b4"/><rect x="70" y="28" width="4" height="1" fill="#c5d3e8"/><rect x="0" y="29" width="4" height="1" fill="#c5d3e8"/><rect x="4" y="29" width="1" height="1" fill="#1a1a1a"/><rect x="5" y="29" width="27" height="1" fill="#ffffff"/><rect x="32" y="29" width="2" height="1" fill="#f8801c"/><rect x="34" y="29" width="33" height="1" fill="#ffffff"/><rect x="67" y="29" width="1" height="1" fill="#1a1a1a"/><rect x="68" y="29" width="2" height="1" fill="#6d82b4"/><rect x="70" y="29" width="4" height="1" fill="#c5d3e8"/><rect x="0" y="30" width="4" height="1" fill="#c5d3e8"/><rect x="4" y="30" width="1" height="1" fill="#1a1a1a"/><rect x="5" y="30" width="27" height="1" fill="#ffffff"/><rect x="32" y="30" width="2" height="1" fill="#f8801c"/><rect x="34" y="30" width="33" height="1" fill="#ffffff"/><rect x="67" y="30" width="1" height="1" fill="#1a1a1a"/><rect x="68" y="30" width="2" height="1" fill="#6d82b4"/><rect x="70" y="30" width="4" height="1" fill="#c5d3e8"/><rect x="0" y="31" width="4" height="1" fill="#c5d3e8"/><rect x="4" y="31" width="1" height="1" fill="#1a1a1a"/><rect x="5" y="31" width="25" height="1" fill="#ffffff"/><rect x="30" y="31" width="2" height="1" fill="#f8801c"/><rect x="32" y="31" width="16" height="1" fill="#ffffff"/><rect x="48" y="31" width="2" height="1" fill="#f8801c"/><rect x="50" y="31" width="17" height="1" fill="#ffffff"/><rect x="67" y="31" width="1" height="1" fill="#1a1a1a"/><rect x="68" y="31" width="2" height="1" fill="#6d82b4"/><rect x="70" y="31" width="4" height="1" fill="#c5d3e8"/><rect x="0" y="32" width="4" height="1" fill="#c5d3e8"/><rect x="4" y="32" width="1" height="1" fill="#1a1a1a"/><rect x="5" y="32" width="25" height="1" fill="#ffffff"/><rect x="30" y="32" width="2" height="1" fill="#f8801c"/><rect x="32" y="32" width="16" height="1" fill="#ffffff"/><rect x="48" y="32" width="2" height="1" fill="#f8801c"/><rect x="50" y="32" width="17" height="1" fill="#ffffff"/><rect x="67" y="32" width="1" height="1" fill="#1a1a1a"/><rect x="68" y="32" width="2" height="1" fill="#6d82b4"/><rect x="70" y="32" width="4" height="1" fill="#c5d3e8"/><rect x="0" y="33" width="4" height="1" fill="#c5d3e8"/><rect x="4" y="33" width="1" height="1" fill="#1a1a1a"/><rect x="5" y="33" width="62" height="1" fill="#ffffff"/><rect x="67" y="33" width="1" height="1" fill="#1a1a1a"/><rect x="68" y="33" width="2" height="1" fill="#6d82b4"/><rect x="70" y="33" width="4" height="1" fill="#c5d3e8"/><rect x="0" y="34" width="4" height="1" fill="#c5d3e8"/><rect x="4" y="34" width="1" height="1" fill="#1a1a1a"/><rect x="5" y="34" width="25" height="1" fill="#ffffff"/><rect x="30" y="34" width="2" height="1" fill="#1a1a1a"/><rect x="32" y="34" width="11" height="1" fill="#ffffff"/><rect x="43" y="34" width="2" height="1" fill="#1a1a1a"/><rect x="45" y="34" width="22" height="1" fill="#ffffff"/><rect x="67" y="34" width="1" height="1" fill="#1a1a1a"/><rect x="68" y="34" width="2" height="1" fill="#6d82b4"/><rect x="70" y="34" width="4" height="1" fill="#c5d3e8"/><rect x="0" y="35" width="4" height="1" fill="#c5d3e8"/><rect x="4" y="35" width="1" height="1" fill="#1a1a1a"/><rect x="5" y="35" width="25" height="1" fill="#ffffff"/><rect x="30" y="35" width="3" height="1" fill="#1a1a1a"/><rect x="33" y="35" width="9" height="1" fill="#ffffff"/><rect x="42" y="35" width="3" height="1" fill="#1a1a1a"/><rect x="45" y="35" width="5" height="1" fill="#ffffff"/><rect x="50" y="35" width="2" height="1" fill="#f8801c"/><rect x="52" y="35" width="15" height="1" fill="#ffffff"/><rect x="67" y="35" width="1" height="1" fill="#1a1a1a"/><rect x="68" y="35" width="2" height="1" fill="#6d82b4"/><rect x="70" y="35" width="4" height="1" fill="#c5d3e8"/><rect x="0" y="36" width="4" height="1" fill="#c5d3e8"/><rect x="4" y="36" width="1" height="1" fill="#1a1a1a"/><rect x="5" y="36" width="26" height="1" fill="#ffffff"/><rect x="31" y="36" width="3" height="1" fill="#1a1a1a"/><rect x="34" y="36" width="7" height="1" fill="#ffffff"/><rect x="41" y="36" width="3" height="1" fill="#1a1a1a"/><rect x="44" y="36" width="6" height="1" fill="#ffffff"/><rect x="50" y="36" width="2" height="1" fill="#f8801c"/><rect x="52" y="36" width="15" height="1" fill="#ffffff"/><rect x="67" y="36" width="1" height="1" fill="#1a1a1a"/><rect x="68" y="36" width="2" height="1" fill="#6d82b4"/><rect x="70" y="36" width="4" height="1" fill="#c5d3e8"/><rect x="0" y="37" width="4" height="1" fill="#c5d3e8"/><rect x="4" y="37" width="1" height="1" fill="#1a1a1a"/><rect x="5" y="37" width="23" height="1" fill="#ffffff"/><rect x="28" y="37" width="2" height="1" fill="#f8801c"/><rect x="30" y="37" width="2" height="1" fill="#ffffff"/><rect x="32" y="37" width="3" height="1" fill="#1a1a1a"/><rect x="35" y="37" width="5" height="1" fill="#ffffff"/><rect x="40" y="37" width="3" height="1" fill="#1a1a1a"/><rect x="43" y="37" width="24" height="1" fill="#ffffff"/><rect x="67" y="37" width="1" height="1" fill="#1a1a1a"/><rect x="68" y="37" width="2" height="1" fill="#6d82b4"/><rect x="70" y="37" width="4" height="1" fill="#c5d3e8"/><rect x="0" y="38" width="4" height="1" fill="#c5d3e8"/><rect x="4" y="38" width="1" height="1" fill="#1a1a1a"/><rect x="5" y="38" width="23" height="1" fill="#ffffff"/><rect x="28" y="38" width="2" height="1" fill="#f8801c"/><rect x="30" y="38" width="3" height="1" fill="#ffffff"/><rect x="33" y="38" width="3" height="1" fill="#1a1a1a"/><rect x="36" y="38" width="3" height="1" fill="#ffffff"/><rect x="39" y="38" width="3" height="1" fill="#1a1a1a"/><rect x="42" y="38" width="25" height="1" fill="#ffffff"/><rect x="67" y="38" width="1" height="1" fill="#1a1a1a"/><rect x="68" y="38" width="2" height="1" fill="#6d82b4"/><rect x="70" y="38" width="4" height="1" fill="#c5d3e8"/><rect x="0" y="39" width="4" height="1" fill="#c5d3e8"/><rect x="4" y="39" width="1" height="1" fill="#1a1a1a"/><rect x="5" y="39" width="29" height="1" fill="#ffffff"/><rect x="34" y="39" width="3" height="1" fill="#1a1a1a"/><rect x="37" y="39" width="1" height="1" fill="#ffffff"/><rect x="38" y="39" width="3" height="1" fill="#1a1a1a"/><rect x="41" y="39" width="11" height="1" fill="#ffffff"/><rect x="52" y="39" width="2" height="1" fill="#f8801c"/><rect x="54" y="39" width="13" height="1" fill="#ffffff"/><rect x="67" y="39" width="1" height="1" fill="#1a1a1a"/><rect x="68" y="39" width="2" height="1" fill="#6d82b4"/><rect x="70" y="39" width="4" height="1" fill="#c5d3e8"/><rect x="0" y="40" width="4" height="1" fill="#c5d3e8"/><rect x="4" y="40" width="1" height="1" fill="#1a1a1a"/><rect x="5" y="40" width="30" height="1" fill="#ffffff"/><rect x="35" y="40" width="5" height="1" fill="#1a1a1a"/><rect x="40" y="40" width="12" height="1" fill="#ffffff"/><rect x="52" y="40" width="2" height="1" fill="#f8801c"/><rect x="54" y="40" width="13" height="1" fill="#ffffff"/><rect x="67" y="40" width="1" height="1" fill="#1a1a1a"/><rect x="68" y="40" width="2" height="1" fill="#6d82b4"/><rect x="70" y="40" width="4" height="1" fill="#c5d3e8"/><rect x="0" y="41" width="4" height="1" fill="#c5d3e8"/><rect x="4" y="41" width="1" height="1" fill="#1a1a1a"/><rect x="5" y="41" width="31" height="1" fill="#ffffff"/><rect x="36" y="41" width="3" height="1" fill="#1a1a1a"/><rect x="39" y="41" width="28" height="1" fill="#ffffff"/><rect x="67" y="41" width="1" height="1" fill="#1a1a1a"/><rect x="68" y="41" width="2" height="1" fill="#6d82b4"/><rect x="70" y="41" width="4" height="1" fill="#c5d3e8"/><rect x="0" y="42" width="4" height="1" fill="#c5d3e8"/><rect x="4" y="42" width="1" height="1" fill="#1a1a1a"/><rect x="5" y="42" width="22" height="1" fill="#ffffff"/><rect x="27" y="42" width="2" height="1" fill="#f8801c"/><rect x="29" y="42" width="6" height="1" fill="#ffffff"/><rect x="35" y="42" width="5" height="1" fill="#1a1a1a"/><rect x="40" y="42" width="27" height="1" fill="#ffffff"/><rect x="67" y="42" width="1" height="1" fill="#1a1a1a"/><rect x="68" y="42" width="2" height="1" fill="#6d82b4"/><rect x="70" y="42" width="4" height="1" fill="#c5d3e8"/><rect x="0" y="43" width="4" height="1" fill="#c5d3e8"/><rect x="4" y="43" width="1" height="1" fill="#1a1a1a"/><rect x="5" y="43" width="22" height="1" fill="#ffffff"/><rect x="27" y="43" width="2" height="1" fill="#f8801c"/><rect x="29" y="43" width="5" height="1" fill="#ffffff"/><rect x="34" y="43" width="3" height="1" fill="#1a1a1a"/><rect x="37" y="43" width="1" height="1" fill="#ffffff"/><rect x="38" y="43" width="3" height="1" fill="#1a1a1a"/><rect x="41" y="43" width="15" height="1" fill="#ffffff"/><rect x="56" y="43" width="5" height="1" fill="#f8801c"/><rect x="61" y="43" width="6" height="1" fill="#ffffff"/><rect x="67" y="43" width="1" height="1" fill="#1a1a1a"/><rect x="68" y="43" width="2" height="1" fill="#6d82b4"/><rect x="70" y="43" width="4" height="1" fill="#c5d3e8"/><rect x="0" y="44" width="4" height="1" fill="#c5d3e8"/><rect x="4" y="44" width="1" height="1" fill="#1a1a1a"/><rect x="5" y="44" width="28" height="1" fill="#ffffff"/><rect x="33" y="44" width="3" height="1" fill="#1a1a1a"/><rect x="36" y="44" width="3" height="1" fill="#ffffff"/><rect x="39" y="44" width="3" height="1" fill="#1a1a1a"/><rect x="42" y="44" width="13" height="1" fill="#ffffff"/><rect x="55" y="44" width="1" height="1" fill="#f8801c"/><rect x="56" y="44" width="5" height="1" fill="#ffbe3c"/><rect x="61" y="44" width="1" height="1" fill="#f8801c"/><rect x="62" y="44" width="5" height="1" fill="#ffffff"/><rect x="67" y="44" width="1" height="1" fill="#1a1a1a"/><rect x="68" y="44" width="2" height="1" fill="#6d82b4"/><rect x="70" y="44" width="4" height="1" fill="#c5d3e8"/><rect x="0" y="45" width="4" height="1" fill="#c5d3e8"/><rect x="4" y="45" width="1" height="1" fill="#1a1a1a"/><rect x="5" y="45" width="27" height="1" fill="#ffffff"/><rect x="32" y="45" width="3" height="1" fill="#1a1a1a"/><rect x="35" y="45" width="5" height="1" fill="#ffffff"/><rect x="40" y="45" width="3" height="1" fill="#1a1a1a"/><rect x="43" y="45" width="12" height="1" fill="#ffffff"/><rect x="55" y="45" width="1" height="1" fill="#f8801c"/><rect x="56" y="45" width="5" height="1" fill="#ffbe3c"/><rect x="61" y="45" width="1" height="1" fill="#f8801c"/><rect x="62" y="45" width="5" height="1" fill="#ffffff"/><rect x="67" y="45" width="1" height="1" fill="#1a1a1a"/><rect x="68" y="45" width="2" height="1" fill="#6d82b4"/><rect x="70" y="45" width="4" height="1" fill="#c5d3e8"/><rect x="0" y="46" width="4" height="1" fill="#c5d3e8"/><rect x="4" y="46" width="1" height="1" fill="#1a1a1a"/><rect x="5" y="46" width="21" height="1" fill="#ffffff"/><rect x="26" y="46" width="2" height="1" fill="#f8801c"/><rect x="28" y="46" width="3" height="1" fill="#ffffff"/><rect x="31" y="46" width="3" height="1" fill="#1a1a1a"/><rect x="34" y="46" width="7" height="1" fill="#ffffff"/><rect x="41" y="46" width="3" height="1" fill="#1a1a1a"/><rect x="44" y="46" width="11" height="1" fill="#ffffff"/><rect x="55" y="46" width="1" height="1" fill="#f8801c"/><rect x="56" y="46" width="5" height="1" fill="#ffbe3c"/><rect x="61" y="46" width="1" height="1" fill="#f8801c"/><rect x="62" y="46" width="5" height="1" fill="#ffffff"/><rect x="67" y="46" width="1" height="1" fill="#1a1a1a"/><rect x="68" y="46" width="2" height="1" fill="#6d82b4"/><rect x="70" y="46" width="4" height="1" fill="#c5d3e8"/><rect x="0" y="47" width="4" height="1" fill="#c5d3e8"/><rect x="4" y="47" width="1" height="1" fill="#1a1a1a"/><rect x="5" y="47" width="21" height="1" fill="#ffffff"/><rect x="26" y="47" width="2" height="1" fill="#f8801c"/><rect x="28" y="47" width="2" height="1" fill="#ffffff"/><rect x="30" y="47" width="3" height="1" fill="#1a1a1a"/><rect x="33" y="47" width="9" height="1" fill="#ffffff"/><rect x="42" y="47" width="3" height="1" fill="#1a1a1a"/><rect x="45" y="47" width="10" height="1" fill="#ffffff"/><rect x="55" y="47" width="1" height="1" fill="#f8801c"/><rect x="56" y="47" width="5" height="1" fill="#ffbe3c"/><rect x="61" y="47" width="1" height="1" fill="#f8801c"/><rect x="62" y="47" width="5" height="1" fill="#ffffff"/><rect x="67" y="47" width="1" height="1" fill="#1a1a1a"/><rect x="68" y="47" width="2" height="1" fill="#6d82b4"/><rect x="70" y="47" width="4" height="1" fill="#c5d3e8"/><rect x="0" y="48" width="4" height="1" fill="#c5d3e8"/><rect x="4" y="48" width="1" height="1" fill="#1a1a1a"/><rect x="5" y="48" width="25" height="1" fill="#ffffff"/><rect x="30" y="48" width="2" height="1" fill="#1a1a1a"/><rect x="32" y="48" width="11" height="1" fill="#ffffff"/><rect x="43" y="48" width="2" height="1" fill="#1a1a1a"/><rect x="45" y="48" width="10" height="1" fill="#ffffff"/><rect x="55" y="48" width="1" height="1" fill="#f8801c"/><rect x="56" y="48" width="5" height="1" fill="#ffbe3c"/><rect x="61" y="48" width="1" height="1" fill="#f8801c"/><rect x="62" y="48" width="5" height="1" fill="#ffffff"/><rect x="67" y="48" width="1" height="1" fill="#1a1a1a"/><rect x="68" y="48" width="2" height="1" fill="#6d82b4"/><rect x="70" y="48" width="4" height="1" fill="#c5d3e8"/><rect x="0" y="49" width="4" height="1" fill="#c5d3e8"/><rect x="4" y="49" width="1" height="1" fill="#1a1a1a"/><rect x="5" y="49" width="17" height="1" fill="#ffffff"/><rect x="22" y="49" width="2" height="1" fill="#f8801c"/><rect x="24" y="49" width="32" height="1" fill="#ffffff"/><rect x="56" y="49" width="5" height="1" fill="#f8801c"/><rect x="61" y="49" width="6" height="1" fill="#ffffff"/><rect x="67" y="49" width="1" height="1" fill="#1a1a1a"/><rect x="68" y="49" width="2" height="1" fill="#6d82b4"/><rect x="70" y="49" width="4" height="1" fill="#c5d3e8"/><rect x="0" y="50" width="4" height="1" fill="#c5d3e8"/><rect x="4" y="50" width="1" height="1" fill="#1a1a1a"/><rect x="5" y="50" width="4" height="1" fill="#ffffff"/><rect x="9" y="50" width="2" height="1" fill="#f8801c"/><rect x="11" y="50" width="3" height="1" fill="#ffffff"/><rect x="14" y="50" width="2" height="1" fill="#f8801c"/><rect x="16" y="50" width="2" height="1" fill="#ffffff"/><rect x="18" y="50" width="2" height="1" fill="#f8801c"/><rect x="20" y="50" width="2" height="1" fill="#ffffff"/><rect x="22" y="50" width="2" height="1" fill="#f8801c"/><rect x="24" y="50" width="43" height="1" fill="#ffffff"/><rect x="67" y="50" width="1" height="1" fill="#1a1a1a"/><rect x="68" y="50" width="2" height="1" fill="#6d82b4"/><rect x="70" y="50" width="4" height="1" fill="#c5d3e8"/><rect x="0" y="51" width="4" height="1" fill="#c5d3e8"/><rect x="4" y="51" width="1" height="1" fill="#1a1a1a"/><rect x="5" y="51" width="4" height="1" fill="#ffffff"/><rect x="9" y="51" width="2" height="1" fill="#f8801c"/><rect x="11" y="51" width="3" height="1" fill="#ffffff"/><rect x="14" y="51" width="2" height="1" fill="#f8801c"/><rect x="16" y="51" width="2" height="1" fill="#ffffff"/><rect x="18" y="51" width="2" height="1" fill="#f8801c"/><rect x="20" y="51" width="47" height="1" fill="#ffffff"/><rect x="67" y="51" width="1" height="1" fill="#1a1a1a"/><rect x="68" y="51" width="2" height="1" fill="#6d82b4"/><rect x="70" y="51" width="4" height="1" fill="#c5d3e8"/><rect x="0" y="52" width="4" height="1" fill="#c5d3e8"/><rect x="4" y="52" width="1" height="1" fill="#1a1a1a"/><rect x="5" y="52" width="62" height="1" fill="#ffffff"/><rect x="67" y="52" width="1" height="1" fill="#1a1a1a"/><rect x="68" y="52" width="2" height="1" fill="#6d82b4"/><rect x="70" y="52" width="4" height="1" fill="#c5d3e8"/><rect x="0" y="53" width="4" height="1" fill="#c5d3e8"/><rect x="4" y="53" width="1" height="1" fill="#1a1a1a"/><rect x="5" y="53" width="62" height="1" fill="#ffffff"/><rect x="67" y="53" width="1" height="1" fill="#1a1a1a"/><rect x="68" y="53" width="2" height="1" fill="#6d82b4"/><rect x="70" y="53" width="4" height="1" fill="#c5d3e8"/><rect x="0" y="54" width="4" height="1" fill="#c5d3e8"/><rect x="4" y="54" width="1" height="1" fill="#1a1a1a"/><rect x="5" y="54" width="62" height="1" fill="#ffffff"/><rect x="67" y="54" width="1" height="1" fill="#1a1a1a"/><rect x="68" y="54" width="2" height="1" fill="#6d82b4"/><rect x="70" y="54" width="4" height="1" fill="#c5d3e8"/><rect x="0" y="55" width="4" height="1" fill="#c5d3e8"/><rect x="4" y="55" width="1" height="1" fill="#1a1a1a"/><rect x="5" y="55" width="62" height="1" fill="#ffffff"/><rect x="67" y="55" width="1" height="1" fill="#1a1a1a"/><rect x="68" y="55" width="2" height="1" fill="#6d82b4"/><rect x="70" y="55" width="4" height="1" fill="#c5d3e8"/><rect x="0" y="56" width="4" height="1" fill="#c5d3e8"/><rect x="4" y="56" width="1" height="1" fill="#1a1a1a"/><rect x="5" y="56" width="62" height="1" fill="#ffffff"/><rect x="67" y="56" width="1" height="1" fill="#1a1a1a"/><rect x="68" y="56" width="2" height="1" fill="#6d82b4"/><rect x="70" y="56" width="4" height="1" fill="#c5d3e8"/><rect x="0" y="57" width="4" height="1" fill="#c5d3e8"/><rect x="4" y="57" width="1" height="1" fill="#1a1a1a"/><rect x="5" y="57" width="62" height="1" fill="#ffffff"/><rect x="67" y="57" width="1" height="1" fill="#1a1a1a"/><rect x="68" y="57" width="2" height="1" fill="#6d82b4"/><rect x="70" y="57" width="4" height="1" fill="#c5d3e8"/><rect x="0" y="58" width="4" height="1" fill="#c5d3e8"/><rect x="4" y="58" width="1" height="1" fill="#1a1a1a"/><rect x="5" y="58" width="62" height="1" fill="#ffffff"/><rect x="67" y="58" width="1" height="1" fill="#1a1a1a"/><rect x="68" y="58" width="2" height="1" fill="#6d82b4"/><rect x="70" y="58" width="4" height="1" fill="#c5d3e8"/><rect x="0" y="59" width="4" height="1" fill="#c5d3e8"/><rect x="4" y="59" width="1" height="1" fill="#1a1a1a"/><rect x="5" y="59" width="62" height="1" fill="#ffffff"/><rect x="67" y="59" width="1" height="1" fill="#1a1a1a"/><rect x="68" y="59" width="2" height="1" fill="#6d82b4"/><rect x="70" y="59" width="4" height="1" fill="#c5d3e8"/><rect x="0" y="60" width="5" height="1" fill="#c5d3e8"/><rect x="5" y="60" width="62" height="1" fill="#1a1a1a"/><rect x="67" y="60" width="1" height="1" fill="#c5d3e8"/><rect x="68" y="60" width="2" height="1" fill="#6d82b4"/><rect x="70" y="60" width="4" height="1" fill="#c5d3e8"/><rect x="0" y="61" width="6" height="1" fill="#c5d3e8"/><rect x="6" y="61" width="64" height="1" fill="#6d82b4"/><rect x="70" y="61" width="4" height="1" fill="#c5d3e8"/><rect x="0" y="62" width="6" height="1" fill="#c5d3e8"/><rect x="6" y="62" width="64" height="1" fill="#6d82b4"/><rect x="70" y="62" width="4" height="1" fill="#c5d3e8"/><rect x="0" y="63" width="74" height="1" fill="#c5d3e8"/><rect x="0" y="64" width="74" height="1" fill="#c5d3e8"/><rect x="0" y="65" width="74" height="1" fill="#c5d3e8"/><rect x="0" y="66" width="74" height="1" fill="#c5d3e8"/><rect x="0" y="67" width="74" height="1" fill="#c5d3e8"/></svg>