<svg xmlns="http://www.w3.org/2000/svg" viewBox="0 0 74 68" width="296" height="272" shape-rendering="crispEdges"><rect x="0" y="0" width="74" height="1" fill="#c5d3e8"/><rect x="0" y="1" width="74" height="1" fill="#c5d3e8"/><rect x="0" y="2" width="74" height="1" fill="#c5d3e8"/><rect x="0" y="3" width="74" height="1" fill="#c5d3e8"/><rect x="0" y="4" width="74" height="1" fill="#c5d3e8"/><rect x="0" y="5" width="74" height="1" fill="#c5d3e8"/><rect x="0" y="6" width="74" height="1" fill="#c5d3e8"/><rect x="0" y="7" width="38" height="1" fill="#c5d3e8"/><rect x="38" y="7" width="30" height="1" fill="#f8801c"/><rect x="68" y="7" width="6" height="1" fill="#c5d3e8"/><rect x="0" y="8" width="6" height="1" fill="#c5d3e8"/><rect x="6" y="8" width="26" height="1" fill="#1a1a1a"/><rect x="32" y="8" width="6" height="1" fill="#c5d3e8"/><rect x="38" y="8" width="1" height="1" fill="#f8801c"/><rect x="39" y="8" width="1" height="1" fill="#c5d3e8"/><rect x="40" y="8" width="26" height="1" fill="#1a1a1a"/><rect x="66" y="8" width="1" height="1" fill="#c5d3e8"/><rect x="67" y="8" width="1" height="1" fill="#f8801c"/><rect x="68" y="8" width="6" height="1" fill="#c5d3e8"/><rect x="0" y="9" width="5" height="1" fill="#c5d3e8"/><rect x="5" y="9" width="1" height="1" fill="#1a1a1a"/><rect x="6" y="9" width="26" height="1" fill="#f8f7f4"/><rect x="32" y="9" width="1" height="1" fill="#1a1a1a"/><rect x="33" y="9" width="5" height="1" fill="#c5d3e8"/><rect x="38" y="9" width="1" height="1" fill="#f8801c"/><rect x="39" y="9" width="1" height="1" fill="#1a1a1a"/><rect x="40" y="9" width="26" height="1" fill="#f8f7f4"/><rect x="66" y="9" width="1" height="1" fill="#1a1a1a"/><rect x="67" y="9" width="1" height="1" fill="#f8801c"/><rect x="68" y="9" width="6" height="1" fill="#c5d3e8"/><rect x="0" y="10" width="5" height="1" fill="#c5d3e8"/><rect x="5" y="10" width="1" height="1" fill="#1a1a1a"/><rect x="6" y="10" width="2" height="1" fill="#f8f7f4"/><rect x="8" y="10" width="2" height="1" fill="#6d82b4"/><rect x="10" y="10" width="1" height="1" fill="#f8f7f4"/><rect x="11" y="10" width="2" height="1" fill="#6d82b4"/><rect x="13" y="10" width="1" height="1" fill="#f8f7f4"/><rect x="14" y="10" width="2" height="1" fill="#6d82b4"/><rect x="16" y="10" width="2" height="1" fill="#f8f7f4"/><rect x="18" y="10" width="12" height="1" fill="#c5d3e8"/><rect x="30" y="10" width="2" height="1" fill="#f8f7f4"/><rect x="32" y="10" width="1" height="1" fill="#1a1a1a"/><rect x="33" y="10" width="2" height="1" fill="#6d82b4"/><rect x="35" y="10" width="3" height="1" fill="#c5d3e8"/><rect x="38" y="10" width="1" height="1" fill="#f8801c"/><rect x="39" y="10" width="1" height="1" fill="#1a1a1a"/><rect x="40" y="10" width="2" height="1" fill="#f8f7f4"/><rect x="42" y="10" width="2" height="1" fill="#6d82b4"/><rect x="44" y="10" width="1" height="1" fill="#f8f7f4"/><rect x="45" y="10" width="2" height="1" fill="#6d82b4"/><rect x="47" y="10" width="1" height="1" fill="#f8f7f4"/><rect x="48" y="10" width="2" height="1" fill="#6d82b4"/><rect x="50" y="10" width="2" height="1" fill="#f8f7f4"/><rect x="52" y="10" width="12" height="1" fill="#c5d3e8"/><rect x="64" y="10" width="2" height="1" fill="#f8f7f4"/><rect x="66" y="10" width="1" height="1" fill="#1a1a1a"/><rect x="67" y="10" width="1" height="1" fill="#f8801c"/><rect x="68" y="10" width="1" height="1" fill="#6d82b4"/><rect x="69" y="10" width="5" height="1" fill="#c5d3e8"/><rect x="0" y="11" width="5" height="1" fill="#c5d3e8"/><rect x="5" y="11" width="1" height="1" fill="#1a1a1a"/><rect x="6" y="11" width="2" height="1" fill="#f8f7f4"/><rect x="8" y="11" width="2" height="1" fill="#6d82b4"/><rect x="10" y="11" width="1" height="1" fill="#f8f7f4"/><rect x="11" y="11" width="2" height="1" fill="#6d82b4"/><rect x="13" y="11" width="1" height="1" fill="#f8f7f4"/><rect x="14" y="11" width="2" height="1" fill="#6d82b4"/><rect x="16" y="11" width="2" height="1" fill="#f8f7f4"/><rect x="18" y="11" width="12" height="1" fill="#c5d3e8"/><rect x="30" y="11" width="2" height="1" fill="#f8f7f4"/><rect x="32" y="11" width="1" height="1" fill="#1a1a1a"/><rect x="33" y="11" width="2" height="1" fill="#6d82b4"/><rect x="35" y="11" width="3" height="1" fill="#c5d3e8"/><rect x="38" y="11" width="1" height="1" fill="#f8801c"/><rect x="39" y="11" width="1" height="1" fill="#1a1a1a"/><rect x="40" y="11" width="2" height="1" fill="#f8f7f4"/><rect x="42" y="11" width="2" height="1" fill="#6d82b4"/><rect x="44" y="11" width="1" height="1" fill="#f8f7f4"/><rect x="45" y="11" width="2" height="1" fill="#6d82b4"/><rect x="47" y="11" width="1" height="1" fill="#f8f7f4"/><rect x="48" y="11" width="2" height="1" fill="#6d82b4"/><rect x="50" y="11" width="2" height="1" fill="#f8f7f4"/><rect x="52" y="11" width="12" height="1" fill="#c5d3e8"/><rect x="64" y="11" width="2" height="1" fill="#f8f7f4"/><rect x="66" y="11" width="1" height="1" fill="#1a1a1a"/><rect x="67" y="11" width="1" height="1" fill="#f8801c"/><rect x="68" y="11" width="1" height="1" fill="#6d82b4"/><rect x="69" y="11" width="5" height="1" fill="#c5d3e8"/><rect x="0" y="12" width="5" height="1" fill="#c5d3e8"/><rect x="5" y="12" width="1" height="1" fill="#1a1a1a"/><rect x="6" y="12" width="26" height="1" fill="#f8f7f4"/><rect x="32" y="12" width="1" height="1" fill="#1a1a1a"/><rect x="33" y="12" width="2" height="1" fill="#6d82b4"/><rect x="35" y="12" width="3" height="1" fill="#c5d3e8"/><rect x="38" y="12" width="1" height="1" fill="#f8801c"/><rect x="39" y="12" width="1" height="1" fill="#1a1a1a"/><rect x="40" y="12" width="26" height="1" fill="#f8f7f4"/><rect x="66" y="12" width="1" height="1" fill="#1a1a1a"/><rect x="67" y="12" width="1" height="1" fill="#f8801c"/><rect x="68" y="12" width="1" height="1" fill="#6d82b4"/><rect x="69" y="12" width="5" height="1" fill="#c5d3e8"/><rect x="0" y="13" width="5" height="1" fill="#c5d3e8"/><rect x="5" y="13" width="1" height="1" fill="#1a1a1a"/><rect x="6" y="13" width="26" height="1" fill="#f8f7f4"/><rect x="32" y="13" width="1" height="1" fill="#1a1a1a"/><rect x="33" y="13" width="2" height="1" fill="#6d82b4"/><rect x="35" y="13" width="3" height="1" fill="#c5d3e8"/><rect x="38" y="13" width="1" height="1" fill="#f8801c"/><rect x="39" y="13" width="1" height="1" fill="#1a1a1a"/><rect x="40" y="13" width="26" height="1" fill="#f8f7f4"/><rect x="66" y="13" width="1" height="1" fill="#1a1a1a"/><rect x="67" y="13" width="1" height="1" fill="#f8801c"/><rect x="68" y="13" width="1" height="1" fill="#6d82b4"/><rect x="69" y="13" width="5" height="1" fill="#c5d3e8"/><rect x="0" y="14" width="5" height="1" fill="#c5d3e8"/><rect x="5" y="14" width="1" height="1" fill="#1a1a1a"/><rect x="6" y="14" width="26" height="1" fill="#c5d3e8"/><rect x="32" y="14" width="1" height="1" fill="#1a1a1a"/><rect x="33" y="14" width="2" height="1" fill="#6d82b4"/><rect x="35" y="14" width="3" height="1" fill="#c5d3e8"/><rect x="38" y="14" width="1" height="1" fill="#f8801c"/><rect x="39" y="14" width="1" height="1" fill="#1a1a1a"/><rect x="40" y="14" width="26" height="1" fill="#c5d3e8"/><rect x="66" y="14" width="1" height="1" fill="#1a1a1a"/><rect x="67" y="14" width="1" height="1" fill="#f8801c"/><rect x="68" y="14" width="1" height="1" fill="#6d82b4"/><rect x="69" y="14" width="5" height="1" fill="#c5d3e8"/><rect x="0" y="15" width="5" height="1" fill="#c5d3e8"/><rect x="5" y="15" width="1" height="1" fill="#1a1a1a"/><rect x="6" y="15" width="26" height="1" fill="#ffffff"/><rect x="32" y="15" width="1" height="1" fill="#1a1a1a"/><rect x="33" y="15" width="2" height="1" fill="#6d82b4"/><rect x="35" y="15" width="3" height="1" fill="#c5d3e8"/><rect x="38" y="15" width="1" height="1" fill="#f8801c"/><rect x="39" y="15" width="1" height="1" fill="#1a1a1a"/><rect x="40" y="15" width="26" height="1" fill="#ffffff"/><rect x="66" y="15" width="1" height="1" fill="#1a1a1a"/><rect x="67" y="15" width="1" height="1" fill="#f8801c"/><rect x="68" y="15" width="1" height="1" fill="#6d82b4"/><rect x="69" y="15" width="5" height="1" fill="#c5d3e8"/><rect x="0" y="16" width="5" height="1" fill="#c5d3e8"/><rect x="5" y="16" width="1" height="1" fill="#1a1a1a"/><rect x="6" y="16" width="26" height="1" fill="#ffffff"/><rect x="32" y="16" width="1" height="1" fill="#1a1a1a"/><rect x="33" y="16" width="2" height="1" fill="#6d82b4"/><rect x="35" y="16" width="3" height="1" fill="#c5d3e8"/><rect x="38" y="16" width="1" height="1" fill="#f8801c"/><rect x="39" y="16" width="1" height="1" fill="#1a1a1a"/><rect x="40" y="16" width="26" height="1" fill="#ffffff"/><rect x="66" y="16" width="1" height="1" fill="#1a1a1a"/><rect x="67" y="16" width="1" height="1" fill="#f8801c"/><rect x="68" y="16" width="1" height="1" fill="#6d82b4"/><rect x="69" y="16" width="5" height="1" fill="#c5d3e8"/><rect x="0" y="17" width="5" height="1" fill="#c5d3e8"/><rect x="5" y="17" width="1" height="1" fill="#1a1a1a"/><rect x="6" y="17" width="3" height="1" fill="#ffffff"/><rect x="9" y="17" width="15" height="1" fill="#c5d3e8"/><rect x="24" y="17" width="8" height="1" fill="#ffffff"/><rect x="32" y="17" width="1" height="1" fill="#1a1a1a"/><rect x="33" y="17" width="2" height="1" fill="#6d82b4"/><rect x="35" y="17" width="3" height="1" fill="#c5d3e8"/><rect x="38" y="17" width="1" height="1" fill="#f8801c"/><rect x="39" y="17" width="1" height="1" fill="#1a1a1a"/><rect x="40" y="17" width="3" height="1" fill="#ffffff"/><rect x="43" y="17" width="11" height="1" fill="#c5d3e8"/><rect x="54" y="17" width="1" height="1" fill="#ffffff"/><rect x="55" y="17" width="2" height="1" fill="#ffbe3c"/><rect x="57" y="17" width="9" height="1" fill="#ffffff"/><rect x="66" y="17" width="1" height="1" fill="#1a1a1a"/><rect x="67" y="17" width="1" height="1" fill="#f8801c"/><rect x="68" y="17" width="1" height="1" fill="#6d82b4"/><rect x="69" y="17" width="5" height="1" fill="#c5d3e8"/><rect x="0" y="18" width="5" height="1" fill="#c5d3e8"/><rect x="5" y="18" width="1" height="1" fill="#1a1a1a"/><rect x="6" y="18" width="3" height="1" fill="#ffffff"/><rect x="9" y="18" width="15" height="1" fill="#c5d3e8"/><rect x="24" y="18" width="8" height="1" fill="#ffffff"/><rect x="32" y="18" width="1" height="1" fill="#1a1a1a"/><rect x="33" y="18" width="2" height="1" fill="#6d82b4"/><rect x="35" y="18" width="3" height="1" fill="#c5d3e8"/><rect x="38" y="18" width="1" height="1" fill="#f8801c"/><rect x="39" y="18" width="1" height="1" fill="#1a1a1a"/><rect x="40" y="18" width="3" height="1" fill="#ffffff"/><rect x="43" y="18" width="11" height="1" fill="#c5d3e8"/><rect x="54" y="18" width="1" height="1" fill="#ffffff"/><rect x="55" y="18" width="2" height="1" fill="#ffbe3c"/><rect x="57" y="18" width="9" height="1" fill="#ffffff"/><rect x="66" y="18" width="1" height="1" fill="#1a1a1a"/><rect x="67" y="18" width="1" height="1" fill="#f8801c"/><rect x="68" y="18" width="1" height="1" fill="#6d82b4"/><rect x="69" y="18" width="5" height="1" fill="#c5d3e8"/><rect x="0" y="19" width="5" height="1" fill="#c5d3e8"/><rect x="5" y="19" width="1" height="1" fill="#1a1a1a"/><rect x="6" y="19" width="26" height="1" fill="#ffffff"/><rect x="32" y="19" width="1" height="1" fill="#1a1a1a"/><rect x="33" y="19" width="2" height="1" fill="#6d82b4"/><rect x="35" y="19" width="3" height="1" fill="#c5d3e8"/><rect x="38" y="19" width="1" height="1" fill="#f8801c"/><rect x="39" y="19" width="1" height="1" fill="#1a1a1a"/><rect x="40" y="19" width="26" height="1" fill="#ffffff"/><rect x="66" y="19" width="1" height="1" fill="#1a1a1a"/><rect x="67" y="19" width="1" height="1" fill="#f8801c"/><rect x="68" y="19" width="1" height="1" fill="#6d82b4"/><rect x="69" y="19" width="5" height="1" fill="#c5d3e8"/><rect x="0" y="20" width="2" height="1" fill="#c5d3e8"/><rect x="2" y="20" width="70" height="1" fill="#f8801c"/><rect x="72" y="20" width="2" height="1" fill="#c5d3e8"/><rect x="0" y="21" width="5" height="1" fill="#c5d3e8"/><rect x="5" y="21" width="1" height="1" fill="#1a1a1a"/><rect x="6" y="21" width="26" height="1" fill="#ffffff"/><rect x="32" y="21" width="1" height="1" fill="#1a1a1a"/><rect x="33" y="21" width="2" height="1" fill="#6d82b4"/><rect x="35" y="21" width="3" height="1" fill="#c5d3e8"/><rect x="38" y="21" width="1" height="1" fill="#f8801c"/><rect x="39" y="21" width="1" height="1" fill="#1a1a1a"/><rect x="40" y="21" width="26" height="1" fill="#ffffff"/><rect x="66" y="21" width="1" height="1" fill="#1a1a1a"/><rect x="67" y="21" width="1" height="1" fill="#f8801c"/><rect x="68" y="21" width="1" height="1" fill="#6d82b4"/><rect x="69" y="21" width="5" height="1" fill="#c5d3e8"/><rect x="0" y="22" width="5" height="1" fill="#c5d3e8"/><rect x="5" y="22" width="1" height="1" fill="#1a1a1a"/><rect x="6" y="22" width="26" height="1" fill="#ffffff"/><rect x="32" y="22" width="1" height="1" fill="#1a1a1a"/><rect x="33" y="22" width="2" height="1" fill="#6d82b4"/><rect x="35" y="22" width="3" height="1" fill="#c5d3e8"/><rect x="38" y="22" width="1" height="1" fill="#f8801c"/><rect x="39" y="22" width="1" height="1" fill="#1a1a1a"/><rect x="40" y="22" width="26" height="1" fill="#ffffff"/><rect x="66" y="22" width="1" height="1" fill="#1a1a1a"/><rect x="67" y="22" width="1" height="1" fill="#f8801c"/><rect x="68" y="22" width="1" height="1" fill="#6d82b4"/><rect x="69" y="22" width="5" height="1" fill="#c5d3e8"/><rect x="0" y="23" width="5" height="1" fill="#c5d3e8"/><rect x="5" y="23" width="1" height="1" fill="#1a1a1a"/><rect x="6" y="23" width="26" height="1" fill="#ffffff"/><rect x="32" y="23" width="1" height="1" fill="#1a1a1a"/><rect x="33" y="23" width="2" height="1" fill="#6d82b4"/><rect x="35" y="23" width="3" height="1" fill="#c5d3e8"/><rect x="38" y="23" width="1" height="1" fill="#f8801c"/><rect x="39" y="23" width="1" height="1" fill="#1a1a1a"/><rect x="40" y="23" width="26" height="1" fill="#ffffff"/><rect x="66" y="23" width="1" height="1" fill="#1a1a1a"/><rect x="67" y="23" width="1" height="1" fill="#f8801c"/><rect x="68" y="23" width="1" height="1" fill="#6d82b4"/><rect x="69" y="23" width="5" height="1" fill="#c5d3e8"/><rect x="0" y="24" width="5" height="1" fill="#c5d3e8"/><rect x="5" y="24" width="1" height="1" fill="#1a1a1a"/><rect x="6" y="24" width="26" height="1" fill="#ffffff"/><rect x="32" y="24" width="1" height="1" fill="#1a1a1a"/><rect x="33" y="24" width="2" height="1" fill="#6d82b4"/><rect x="35" y="24" width="3" height="1" fill="#c5d3e8"/><rect x="38" y="24" width="1" height="1" fill="#f8801c"/><rect x="39" y="24" width="1" height="1" fill="#1a1a1a"/><rect x="40" y="24" width="26" height="1" fill="#ffffff"/><rect x="66" y="24" width="1" height="1" fill="#1a1a1a"/><rect x="67" y="24" width="1" height="1" fill="#f8801c"/><rect x="68" y="24" width="1" height="1" fill="#6d82b4"/><rect x="69" y="24" width="5" height="1" fill="#c5d3e8"/><rect x="0" y="25" width="5" height="1" fill="#c5d3e8"/><rect x="5" y="25" width="1" height="1" fill="#1a1a1a"/><rect x="6" y="25" width="26" height="1" fill="#ffffff"/><rect x="32" y="25" width="1" height="1" fill="#1a1a1a"/><rect x="33" y="25" width="2" height="1" fill="#6d82b4"/><rect x="35" y="25" width="3" height="1" fill="#c5d3e8"/><rect x="38" y="25" width="1" height="1" fill="#f8801c"/><rect x="39" y="25" width="1" height="1" fill="#1a1a1a"/><rect x="40" y="25" width="26" height="1" fill="#ffffff"/><rect x="66" y="25" width="1" height="1" fill="#1a1a1a"/><rect x="67" y="25" width="1" height="1" fill="#f8801c"/><rect x="68" y="25" width="1" height="1" fill="#6d82b4"/><rect x="69" y="25" width="5" height="1" fill="#c5d3e8"/><rect x="0" y="26" width="5" height="1" fill="#c5d3e8"/><rect x="5" y="26" width="1" height="1" fill="#1a1a1a"/><rect x="6" y="26" width="26" height="1" fill="#ffffff"/><rect x="32" y="26" width="1" height="1" fill="#1a1a1a"/><rect x="33" y="26" width="2" height="1" fill="#6d82b4"/><rect x="35" y="26" width="3" height="1" fill="#c5d3e8"/><rect x="38" y="26" width="1" height="1" fill="#f8801c"/><rect x="39" y="26" width="1" height="1" fill="#1a1a1a"/><rect x="40" y="26" width="26" height="1" fill="#ffffff"/><rect x="66" y="26" width="1" height="1" fill="#1a1a1a"/><rect x="67" y="26" width="1" height="1" fill="#f8801c"/><rect x="68" y="26" width="1" height="1" fill="#6d82b4"/><rect x="69" y="26" width="5" height="1" fill="#c5d3e8"/><rect x="0" y="27" width="5" height="1" fill="#c5d3e8"/><rect x="5" y="27" width="1" height="1" fill="#1a1a1a"/><rect x="6" y="27" width="26" height="1" fill="#ffffff"/><rect x="32" y="27" width="1" height="1" fill="#1a1a1a"/><rect x="33" y="27" width="2" height="1" fill="#6d82b4"/><rect x="35" y="27" width="3" height="1" fill="#c5d3e8"/><rect x="38" y="27" width="1" height="1" fill="#f8801c"/><rect x="39" y="27" width="1" height="1" fill="#1a1a1a"/><rect x="40" y="27" width="26" height="1" fill="#ffffff"/><rect x="66" y="27" width="1" height="1" fill="#1a1a1a"/><rect x="67" y="27" width="1" height="1" fill="#f8801c"/><rect x="68" y="27" width="1" height="1" fill="#6d82b4"/><rect x="69" y="27" width="5" height="1" fill="#c5d3e8"/><rect x="0" y="28" width="5" height="1" fill="#c5d3e8"/><rect x="5" y="28" width="1" height="1" fill="#1a1a1a"/><rect x="6" y="28" width="26" height="1" fill="#ffffff"/><rect x="32" y="28" width="1" height="1" fill="#1a1a1a"/><rect x="33" y="28" width="2" height="1" fill="#6d82b4"/><rect x="35" y="28" width="3" height="1" fill="#c5d3e8"/><rect x="38" y="28" width="1" height="1" fill="#f8801c"/><rect x="39" y="28" width="1" height="1" fill="#1a1a1a"/><rect x="40" y="28" width="26" height="1" fill="#ffffff"/><rect x="66" y="28" width="1" height="1" fill="#1a1a1a"/><rect x="67" y="28" width="1" height="1" fill="#f8801c"/><rect x="68" y="28" width="1" height="1" fill="#6d82b4"/><rect x="69" y="28" width="5" height="1" fill="#c5d3e8"/><rect x="0" y="29" width="6" height="1" fill="#c5d3e8"/><rect x="6" y="29" width="26" height="1" fill="#1a1a1a"/><rect x="32" y="29" width="1" height="1" fill="#c5d3e8"/><rect x="33" y="29" width="2" height="1" fill="#6d82b4"/><rect x="35" y="29" width="3" height="1" fill="#c5d3e8"/><rect x="38" y="29" width="1" height="1" fill="#f8801c"/><rect x="39" y="29" width="1" height="1" fill="#c5d3e8"/><rect x="40" y="29" width="26" height="1" fill="#1a1a1a"/><rect x="66" y="29" width="1" height="1" fill="#c5d3e8"/><rect x="67" y="29" width="1" height="1" fill="#f8801c"/><rect x="68" y="29" width="1" height="1" fill="#6d82b4"/><rect x="69" y="29" width="5" height="1" fill="#c5d3e8"/><rect x="0" y="30" width="7" height="1" fill="#c5d3e8"/><rect x="7" y="30" width="28" height="1" fill="#6d82b4"/><rect x="35" y="30" width="3" height="1" fill="#c5d3e8"/><rect x="38" y="30" width="30" height="1" fill="#f8801c"/><rect x="68" y="30" width="1" height="1" fill="#6d82b4"/><rect x="69" y="30" width="5" height="1" fill="#c5d3e8"/><rect x="0" y="31" width="7" height="1" fill="#c5d3e8"/><rect x="7" y="31" width="28" height="1" fill="#6d82b4"/><rect x="35" y="31" width="6" height="1" fill="#c5d3e8"/><rect x="41" y="31" width="28" height="1" fill="#6d82b4"/><rect x="69" y="31" width="5" height="1" fill="#c5d3e8"/><rect x="0" y="32" width="74" height="1" fill="#c5d3e8"/><rect x="0" y="33" width="74" height="1" fill="#c5d3e8"/><rect x="0" y="34" width="74" height="1" fill="#c5d3e8"/><rect x="0" y="35" width="74" height="1" fill="#c5d3e8"/><rect x="0" y="36" width="6" height="1" fill="#c5d3e8"/><rect x="6" y="36" width="26" height="1" fill="#1a1a1a"/><rect x="32" y="36" width="8" height="1" fill="#c5d3e8"/><rect x="40" y="36" width="26" height="1" fill="#1a1a1a"/><rect x="66" y="36" width="8" height="1" fill="#c5d3e8"/><rect x="0" y="37" width="5" height="1" fill="#c5d3e8"/><rect x="5" y="37" width="1" height="1" fill="#1a1a1a"/><rect x="6" y="37" width="26" height="1" fill="#f8f7f4"/><rect x="32" y="37" width="1" height="1" fill="#1a1a1a"/><rect x="33" y="37" width="6" height="1" fill="#c5d3e8"/><rect x="39" y="37" width="1" height="1" fill="#1a1a1a"/><rect x="40" y="37" width="26" height="1" fill="#f8f7f4"/><rect x="66" y="37" width="1" height="1" fill="#1a1a1a"/><rect x="67" y="37" width="7" height="1" fill="#c5d3e8"/><rect x="0" y="38" width="5" height="1" fill="#c5d3e8"/><rect x="5" y="38" width="1" height="1" fill="#1a1a1a"/><rect x="6" y="38" width="2" height="1" fill="#f8f7f4"/><rect x="8" y="38" width="2" height="1" fill="#6d82b4"/><rect x="10" y="38" width="1" height="1" fill="#f8f7f4"/><rect x="11" y="38" width="2" height="1" fill="#6d82b4"/><rect x="13" y="38" width="1" height="1" fill="#f8f7f4"/><rect x="14" y="38" width="2" height="1" fill="#6d82b4"/><rect x="16" y="38" width="2" height="1" fill="#f8f7f4"/><rect x="18" y="38" width="12" height="1" fill="#c5d3e8"/><rect x="30" y="38" width="2" height="1" fill="#f8f7f4"/><rect x="32" y="38" width="1" height="1" fill="#1a1a1a"/><rect x="33" y="38" width="2" height="1" fill="#6d82b4"/><rect x="35" y="38" width="4" height="1" fill="#c5d3e8"/><rect x="39" y="38" width="1" height="1" fill="#1a1a1a"/><rect x="40" y="38" width="2" height="1" fill="#f8f7f4"/><rect x="42" y="38" width="2" height="1" fill="#6d82b4"/><rect x="44" y="38" width="1" height="1" fill="#f8f7f4"/><rect x="45" y="38" width="2" height="1" fill="#6d82b4"/><rect x="47" y="38" width="1" height="1" fill="#f8f7f4"/><rect x="48" y="38" width="2" height="1" fill="#6d82b4"/><rect x="50" y="38" width="2" height="1" fill="#f8f7f4"/><rect x="52" y="38" width="12" height="1" fill="#c5d3e8"/><rect x="64" y="38" width="2" height="1" fill="#f8f7f4"/><rect x="66" y="38" width="1" height="1" fill="#1a1a1a"/><rect x="67" y="38" width="2" height="1" fill="#6d82b4"/><rect x="69" y="38" width="5" height="1" fill="#c5d3e8"/><rect x="0" y="39" width="5" height="1" fill="#c5d3e8"/><rect x="5" y="39" width="1" height="1" fill="#1a1a1a"/><rect x="6" y="39" width="2" height="1" fill="#f8f7f4"/><rect x="8" y="39" width="2" height="1" fill="#6d82b4"/><rect x="10" y="39" width="1" height="1" fill="#f8f7f4"/><rect x="11" y="39" width="2" height="1" fill="#6d82b4"/><rect x="13" y="39" width="1" height="1" fill="#f8f7f4"/><rect x="14" y="39" width="2" height="1" fill="#6d82b4"/><rect x="16" y="39" width="2" height="1" fill="#f8f7f4"/><rect x="18" y="39" width="12" height="1" fill="#c5d3e8"/><rect x="30" y="39" width="2" height="1" fill="#f8f7f4"/><rect x="32" y="39" width="1" height="1" fill="#1a1a1a"/><rect x="33" y="39" width="2" height="1" fill="#6d82b4"/><rect x="35" y="39" width="4" height="1" fill="#c5d3e8"/><rect x="39" y="39" width="1" height="1" fill="#1a1a1a"/><rect x="40" y="39" width="2" height="1" fill="#f8f7f4"/><rect x="42" y="39" width="2" height="1" fill="#6d82b4"/><rect x="44" y="39" width="1" height="1" fill="#f8f7f4"/><rect x="45" y="39" width="2" height="1" fill="#6d82b4"/><rect x="47" y="39" width="1" height="1" fill="#f8f7f4"/><rect x="48" y="39" width="2" height="1" fill="#6d82b4"/><rect x="50" y="39" width="2" height="1" fill="#f8f7f4"/><rect x="52" y="39" width="12" height="1" fill="#c5d3e8"/><rect x="64" y="39" width="2" height="1" fill="#f8f7f4"/><rect x="66" y="39" width="1" height="1" fill="#1a1a1a"/><rect x="67" y="39" width="2" height="1" fill="#6d82b4"/><rect x="69" y="39" width="5" height="1" fill="#c5d3e8"/><rect x="0" y="40" width="5" height="1" fill="#c5d3e8"/><rect x="5" y="40" width="1" height="1" fill="#1a1a1a"/><rect x="6" y="40" width="26" height="1" fill="#f8f7f4"/><rect x="32" y="40" width="1" height="1" fill="#1a1a1a"/><rect x="33" y="40" width="2" height="1" fill="#6d82b4"/><rect x="35" y="40" width="4" height="1" fill="#c5d3e8"/><rect x="39" y="40" width="1" height="1" fill="#1a1a1a"/><rect x="40" y="40" width="26" height="1" fill="#f8f7f4"/><rect x="66" y="40" width="1" height="1" fill="#1a1a1a"/><rect x="67" y="40" width="2" height="1" fill="#6d82b4"/><rect x="69" y="40" width="5" height="1" fill="#c5d3e8"/><rect x="0" y="41" width="5" height="1" fill="#c5d3e8"/><rect x="5" y="41" width="1" height="1" fill="#1a1a1a"/><rect x="6" y="41" width="26" height="1" fill="#f8f7f4"/><rect x="32" y="41" width="1" height="1" fill="#1a1a1a"/><rect x="33" y="41" width="2" height="1" fill="#6d82b4"/><rect x="35" y="41" width="4" height="1" fill="#c5d3e8"/><rect x="39" y="41" width="1" height="1" fill="#1a1a1a"/><rect x="40" y="41" width="26" height="1" fill="#f8f7f4"/><rect x="66" y="41" width="1" height="1" fill="#1a1a1a"/><rect x="67" y="41" width="2" height="1" fill="#6d82b4"/><rect x="69" y="41" width="5" height="1" fill="#c5d3e8"/><rect x="0" y="42" width="5" height="1" fill="#c5d3e8"/><rect x="5" y="42" width="1" height="1" fill="#1a1a1a"/><rect x="6" y="42" width="26" height="1" fill="#c5d3e8"/><rect x="32" y="42" width="1" height="1" fill="#1a1a1a"/><rect x="33" y="42" width="2" height="1" fill="#6d82b4"/><rect x="35" y="42" width="4" height="1" fill="#c5d3e8"/><rect x="39" y="42" width="1" height="1" fill="#1a1a1a"/><rect x="40" y="42" width="26" height="1" fill="#c5d3e8"/><rect x="66" y="42" width="1" height="1" fill="#1a1a1a"/><rect x="67" y="42" width="2" height="1" fill="#6d82b4"/><rect x="69" y="42" width="5" height="1" fill="#c5d3e8"/><rect x="0" y="43" width="5" height="1" fill="#c5d3e8"/><rect x="5" y="43" width="1" height="1" fill="#1a1a1a"/><rect x="6" y="43" width="26" height="1" fill="#ffffff"/><rect x="32" y="43" width="1" height="1" fill="#1a1a1a"/><rect x="33" y="43" width="2" height="1" fill="#6d82b4"/><rect x="35" y="43" width="4" height="1" fill="#c5d3e8"/><rect x="39" y="43" width="1" height="1" fill="#1a1a1a"/><rect x="40" y="43" width="26" height="1" fill="#ffffff"/><rect x="66" y="43" width="1" height="1" fill="#1a1a1a"/><rect x="67" y="43" width="2" height="1" fill="#6d82b4"/><rect x="69" y="43" width="5" height="1" fill="#c5d3e8"/><rect x="0" y="44" width="5" height="1" fill="#c5d3e8"/><rect x="5" y="44" width="1" height="1" fill="#1a1a1a"/><rect x="6" y="44" width="26" height="1" fill="#ffffff"/><rect x="32" y="44" width="1" height="1" fill="#1a1a1a"/><rect x="33" y="44" width="2" height="1" fill="#6d82b4"/><rect x="35" y="44" width="4" height="1" fill="#c5d3e8"/><rect x="39" y="44" width="1" height="1" fill="#1a1a1a"/><rect x="40" y="44" width="26" height="1" fill="#ffffff"/><rect x="66" y="44" width="1" height="1" fill="#1a1a1a"/><rect x="67" y="44" width="2" height="1" fill="#6d82b4"/><rect x="69" y="44" width="5" height="1" fill="#c5d3e8"/><rect x="0" y="45" width="5" height="1" fill="#c5d3e8"/><rect x="5" y="45" width="1" height="1" fill="#1a1a1a"/><rect x="6" y="45" width="3" height="1" fill="#ffffff"/><rect x="9" y="45" width="12" height="1" fill="#c5d3e8"/><rect x="21" y="45" width="11" height="1" fill="#ffffff"/><rect x="32" y="45" width="1" height="1" fill="#1a1a1a"/><rect x="33" y="45" width="2" height="1" fill="#6d82b4"/><rect x="35" y="45" width="4" height="1" fill="#c5d3e8"/><rect x="39" y="45" width="1" height="1" fill="#1a1a1a"/><rect x="40" y="45" width="3" height="1" fill="#ffffff"/><rect x="43" y="45" width="16" height="1" fill="#c5d3e8"/><rect x="59" y="45" width="7" height="1" fill="#ffffff"/><rect x="66" y="45" width="1" height="1" fill="#1a1a1a"/><rect x="67" y="45" width="2" height="1" fill="#6d82b4"/><rect x="69" y="45" width="5" height="1" fill="#c5d3e8"/><rect x="0" y="46" width="5" height="1" fill="#c5d3e8"/><rect x="5" y="46" width="1" height="1" fill="#1a1a1a"/><rect x="6" y="46" width="3" height="1" fill="#ffffff"/><rect x="9" y="46" width="12" height="1" fill="#c5d3e8"/><rect x="21" y="46" width="11" height="1" fill="#ffffff"/><rect x="32" y="46" width="1" height="1" fill="#1a1a1a"/><rect x="33" y="46" width="2" height="1" fill="#6d82b4"/><rect x="35" y="46" width="4" height="1" fill="#c5d3e8"/><rect x="39" y="46" width="1" height="1" fill="#1a1a1a"/><rect x="40" y="46" width="3" height="1" fill="#ffffff"/><rect x="43" y="46" width="16" height="1" fill="#c5d3e8"/><rect x="59" y="46" width="7" height="1" fill="#ffffff"/><rect x="66" y="46" width="1" height="1" fill="#1a1a1a"/><rect x="67" y="46" width="2" height="1" fill="#6d82b4"/><rect x="69" y="46" width="5" height="1" fill="#c5d3e8"/><rect x="0" y="47" width="5" height="1" fill="#c5d3e8"/><rect x="5" y="47" width="1" height="1" fill="#1a1a1a"/><rect x="6" y="47" width="26" height="1" fill="#ffffff"/><rect x="32" y="47" width="1" height="1" fill="#1a1a1a"/><rect x="33" y="47" width="2" height="1" fill="#6d82b4"/><rect x="35" y="47" width="4" height="1" fill="#c5d3e8"/><rect x="39" y="47" width="1" height="1" fill="#1a1a1a"/><rect x="40" y="47" width="26" height="1" fill="#ffffff"/><rect x="66" y="47" width="1" height="1" fill="#1a1a1a"/><rect x="67" y="47" width="2" height="1" fill="#6d82b4"/><rect x="69" y="47" width="5" height="1" fill="#c5d3e8"/><rect x="0" y="48" width="5" height="1" fill="#c5d3e8"/><rect x="5" y="48" width="1" height="1" fill="#1a1a1a"/><rect x="6" y="48" width="26" height="1" fill="#ffffff"/><rect x="32" y="48" width="1" height="1" fill="#1a1a1a"/><rect x="33" y="48" width="2" height="1" fill="#6d82b4"/><rect x="35" y="48" width="4" height="1" fill="#c5d3e8"/><rect x="39" y="48" width="1" height="1" fill="#1a1a1a"/><rect x="40" y="48" width="26" height="1" fill="#ffffff"/><rect x="66" y="48" width="1" height="1" fill="#1a1a1a"/><rect x="67" y="48" width="2" height="1" fill="#6d82b4"/><rect x="69" y="48" width="5" height="1" fill="#c5d3e8"/><rect x="0" y="49" width="5" height="1" fill="#c5d3e8"/><rect x="5" y="49" width="1" height="1" fill="#1a1a1a"/><rect x="6" y="49" width="26" height="1" fill="#ffffff"/><rect x="32" y="49" width="1" height="1" fill="#1a1a1a"/><rect x="33" y="49" width="2" height="1" fill="#6d82b4"/><rect x="35" y="49" width="4" height="1" fill="#c5d3e8"/><rect x="39" y="49" width="1" height="1" fill="#1a1a1a"/><rect x="40" y="49" width="26" height="1" fill="#ffffff"/><rect x="66" y="49" width="1" height="1" fill="#1a1a1a"/><rect x="67" y="49" width="2" height="1" fill="#6d82b4"/><rect x="69" y="49" width="5" height="1" fill="#c5d3e8"/><rect x="0" y="50" width="5" height="1" fill="#c5d3e8"/><rect x="5" y="50" width="1" height="1" fill="#1a1a1a"/><rect x="6" y="50" width="26" height="1" fill="#ffffff"/><rect x="32" y="50" width="1" height="1" fill="#1a1a1a"/><rect x="33" y="50" width="2" height="1" fill="#6d82b4"/><rect x="35" y="50" width="4" height="1" fill="#c5d3e8"/><rect x="39" y="50" width="1" height="1" fill="#1a1a1a"/><rect x="40" y="50" width="26" height="1" fill="#ffffff"/><rect x="66" y="50" width="1" height="1" fill="#1a1a1a"/><rect x="67" y="50" width="2" height="1" fill="#6d82b4"/><rect x="69" y="50" width="5" height="1" fill="#c5d3e8"/><rect x="0" y="51" width="5" height="1" fill="#c5d3e8"/><rect x="5" y="51" width="1" height="1" fill="#1a1a1a"/><rect x="6" y="51" width="26" height="1" fill="#ffffff"/><rect x="32" y="51" width="1" height="1" fill="#1a1a1a"/><rect x="33" y="51" width="2" height="1" fill="#6d82b4"/><rect x="35" y="51" width="4" height="1" fill="#c5d3e8"/><rect x="39" y="51" width="1" height="1" fill="#1a1a1a"/><rect x="40" y="51" width="26" height="1" fill="#ffffff"/><rect x="66" y="51" width="1" height="1" fill="#1a1a1a"/><rect x="67" y="51" width="2" height="1" fill="#6d82b4"/><rect x="69" y="51" width="5" height="1" fill="#c5d3e8"/><rect x="0" y="52" width="5" height="1" fill="#c5d3e8"/><rect x="5" y="52" width="1" height="1" fill="#1a1a1a"/><rect x="6" y="52" width="26" height="1" fill="#ffffff"/><rect x="32" y="52" width="1" height="1" fill="#1a1a1a"/><rect x="33" y="52" width="2" height="1" fill="#6d82b4"/><rect x="35" y="52" width="4" height="1" fill="#c5d3e8"/><rect x="39" y="52" width="1" height="1" fill="#1a1a1a"/><rect x="40" y="52" width="26" height="1" fill="#ffffff"/><rect x="66" y="52" width="1" height="1" fill="#1a1a1a"/><rect x="67" y="52" width="2" height="1" fill="#6d82b4"/><rect x="69" y="52" width="5" height="1" fill="#c5d3e8"/><rect x="0" y="53" width="5" height="1" fill="#c5d3e8"/><rect x="5" y="53" width="1" height="1" fill="#1a1a1a"/><rect x="6" y="53" width="26" height="1" fill="#ffffff"/><rect x="32" y="53" width="1" height="1" fill="#1a1a1a"/><rect x="33" y="53" width="2" height="1" fill="#6d82b4"/><rect x="35" y="53" width="4" height="1" fill="#c5d3e8"/><rect x="39" y="53" width="1" height="1" fill="#1a1a1a"/><rect x="40" y="53" width="26" height="1" fill="#ffffff"/><rect x="66" y="53" width="1" height="1" fill="#1a1a1a"/><rect x="67" y="53" width="2" height="1" fill="#6d82b4"/><rect x="69" y="53" width="5" height="1" fill="#c5d3e8"/><rect x="0" y="54" width="5" height="1" fill="#c5d3e8"/><rect x="5" y="54" width="1" height="1" fill="#1a1a1a"/><rect x="6" y="54" width="26" height="1" fill="#ffffff"/><rect x="32" y="54" width="1" height="1" fill="#1a1a1a"/><rect x="33" y="54" width="2" height="1" fill="#6d82b4"/><rect x="35" y="54" width="4" height="1" fill="#c5d3e8"/><rect x="39" y="54" width="1" height="1" fill="#1a1a1a"/><rect x="40" y="54" width="26" height="1" fill="#ffffff"/><rect x="66" y="54" width="1" height="1" fill="#1a1a1a"/><rect x="67" y="54" width="2" height="1" fill="#6d82b4"/><rect x="69" y="54" width="5" height="1" fill="#c5d3e8"/><rect x="0" y="55" width="5" height="1" fill="#c5d3e8"/><rect x="5" y="55" width="1" height="1" fill="#1a1a1a"/><rect x="6" y="55" width="26" height="1" fill="#ffffff"/><rect x="32" y="55" width="1" height="1" fill="#1a1a1a"/><rect x="33" y="55" width="2" height="1" fill="#6d82b4"/><rect x="35" y="55" width="4" height="1" fill="#c5d3e8"/><rect x="39" y="55" width="1" height="1" fill="#1a1a1a"/><rect x="40" y="55" width="26" height="1" fill="#ffffff"/><rect x="66" y="55" width="1" height="1" fill="#1a1a1a"/><rect x="67" y="55" width="2" height="1" fill="#6d82b4"/><rect x="69" y="55" width="5" height="1" fill="#c5d3e8"/><rect x="0" y="56" width="5" height="1" fill="#c5d3e8"/><rect x="5" y="56" width="1" height="1" fill="#1a1a1a"/><rect x="6" y="56" width="26" height="1" fill="#ffffff"/><rect x="32" y="56" width="1" height="1" fill="#1a1a1a"/><rect x="33" y="56" width="2" height="1" fill="#6d82b4"/><rect x="35" y="56" width="4" height="1" fill="#c5d3e8"/><rect x="39" y="56" width="1" height="1" fill="#1a1a1a"/><rect x="40" y="56" width="26" height="1" fill="#ffffff"/><rect x="66" y="56" width="1" height="1" fill="#1a1a1a"/><rect x="67" y="56" width="2" height="1" fill="#6d82b4"/><rect x="69" y="56" width="5" height="1" fill="#c5d3e8"/><rect x="0" y="57" width="6" height="1" fill="#c5d3e8"/><rect x="6" y="57" width="26" height="1" fill="#1a1a1a"/><rect x="32" y="57" width="1" height="1" fill="#c5d3e8"/><rect x="33" y="57" width="2" height="1" fill="#6d82b4"/><rect x="35" y="57" width="5" height="1" fill="#c5d3e8"/><rect x="40" y="57" width="26" height="1" fill="#1a1a1a"/><rect x="66" y="57" width="1" height="1" fill="#c5d3e8"/><rect x="67" y="57" width="2" height="1" fill="#6d82b4"/><rect x="69" y="57" width="5" height="1" fill="#c5d3e8"/><rect x="0" y="58" width="7" height="1" fill="#c5d3e8"/><rect x="7" y="58" width="28" height="1" fill="#6d82b4"/><rect x="35" y="58" width="6" height="1" fill="#c5d3e8"/><rect x="41" y="58" width="28" height="1" fill="#6d82b4"/><rect x="69" y="58" width="5" height="1" fill="#c5d3e8"/><rect x="0" y="59" width="7" height="1" fill="#c5d3e8"/><rect x="7" y="59" width="28" height="1" fill="#6d82b4"/><rect x="35" y="59" width="6" height="1" fill="#c5d3e8"/><rect x="41" y="59" width="28" height="1" fill="#6d82b4"/><rect x="69" y="59" width="5" height="1" fill="#c5d3e8"/><rect x="0" y="60" width="74" height="1" fill="#c5d3e8"/><rect x="0" y="61" width="74" height="1" fill="#c5d3e8"/><rect x="0" y="62" width="74" height="1" fill="#c5d3e8"/><rect x="0" y="63" width="74" height="1" fill="#c5d3e8"/><rect x="0" y="64" width="74" height="1" fill="#c5d3e8"/><rect x="0" y="65" width="74" height="1" fill="#c5d3e8"/><rect x="0" y="66" width="74" height="1" fill="#c5d3e8"/><rect x="0" y="67" width="74" height="1" fill="#c5d3e8"/></svg>